NotoNaskhArabicUI-Regular.ufo
<glyph name="uni0021" format="2">
  <advance width="206"/>
  <unicode hex="0021"/>
  <outline>
    <contour>
      <point x="85" y="249" type="curve"/>
      <point x="130" y="269" type="line"/>
      <point x="130" y="511"/>
      <point x="128" y="572"/>
      <point x="119" y="749" type="curve"/>
      <point x="91" y="729"/>
      <point x="69" y="711"/>
      <point x="51" y="693" type="curve"/>
      <point x="67" y="562"/>
      <point x="76" y="426"/>
    </contour>
    <contour>
      <point x="125" y="69" type="curve"/>
      <point x="153" y="109"/>
      <point x="167" y="133"/>
      <point x="167" y="140" type="curve" smooth="yes"/>
      <point x="167" y="144"/>
      <point x="161" y="151"/>
      <point x="149" y="161" type="curve" smooth="yes"/>
      <point x="137" y="171"/>
      <point x="118" y="183"/>
      <point x="90" y="199" type="curve"/>
      <point x="82" y="187"/>
      <point x="74" y="174"/>
      <point x="68" y="161" type="curve" smooth="yes"/>
      <point x="61" y="148"/>
      <point x="54" y="135"/>
      <point x="46" y="121" type="curve"/>
      <point x="76" y="103"/>
      <point x="95" y="91"/>
    </contour>
  </outline>
</glyph>
<glyph name="uni0030" format="2">
  <advance width="572"/>
  <unicode hex="0030"/>
  <outline>
    <contour>
      <point x="285" y="-10" type="curve" smooth="yes"/>
      <point x="445" y="-10"/>
      <point x="523" y="110"/>
      <point x="523" y="358" type="curve" smooth="yes"/>
      <point x="523" y="597"/>
      <point x="440" y="725"/>
      <point x="285" y="725" type="curve" smooth="yes"/>
      <point x="124" y="725"/>
      <point x="49" y="607"/>
      <point x="49" y="358" type="curve" smooth="yes"/>
      <point x="49" y="117"/>
      <point x="130" y="-10"/>
    </contour>
    <contour>
      <point x="285" y="65" type="curve" smooth="yes"/>
      <point x="246" y="65"/>
      <point x="215" y="77"/>
      <point x="192" y="104" type="curve" smooth="yes"/>
      <point x="154" y="148"/>
      <point x="137" y="229"/>
      <point x="137" y="358" type="curve" smooth="yes"/>
      <point x="137" y="481"/>
      <point x="153" y="562"/>
      <point x="188" y="606" type="curve" smooth="yes"/>
      <point x="212" y="636"/>
      <point x="244" y="650"/>
      <point x="285" y="650" type="curve" smooth="yes"/>
      <point x="320" y="650"/>
      <point x="348" y="640"/>
      <point x="370" y="619" type="curve" smooth="yes"/>
      <point x="414" y="577"/>
      <point x="434" y="491"/>
      <point x="434" y="358" type="curve" smooth="yes"/>
      <point x="434" y="233"/>
      <point x="417" y="151"/>
      <point x="379" y="106" type="curve" smooth="yes"/>
      <point x="356" y="78"/>
      <point x="325" y="65"/>
    </contour>
  </outline>
</glyph>
<glyph name="uni0033" format="2">
  <advance width="572"/>
  <unicode hex="0033"/>
  <outline>
    <contour>
      <point x="241" y="-10" type="curve" smooth="yes"/>
      <point x="418" y="-10"/>
      <point x="515" y="67"/>
      <point x="515" y="203" type="curve" smooth="yes"/>
      <point x="515" y="297"/>
      <point x="459" y="358"/>
      <point x="345" y="372" type="curve"/>
      <point x="345" y="376" type="line"/>
      <point x="440" y="396"/>
      <point x="493" y="456"/>
      <point x="493" y="547" type="curve" smooth="yes"/>
      <point x="493" y="656"/>
      <point x="411" y="724"/>
      <point x="272" y="724" type="curve" smooth="yes"/>
      <point x="186" y="724"/>
      <point x="107" y="696"/>
      <point x="49" y="650" type="curve"/>
      <point x="93" y="590" type="line"/>
      <point x="162" y="635"/>
      <point x="210" y="650"/>
      <point x="273" y="650" type="curve" smooth="yes"/>
      <point x="354" y="650"/>
      <point x="403" y="609"/>
      <point x="403" y="541" type="curve" smooth="yes"/>
      <point x="403" y="456"/>
      <point x="336" y="406"/>
      <point x="224" y="406" type="curve" smooth="yes"/>
      <point x="154" y="406" type="line"/>
      <point x="154" y="331" type="line"/>
      <point x="223" y="331" type="line" smooth="yes"/>
      <point x="356" y="331"/>
      <point x="423" y="289"/>
      <point x="423" y="205" type="curve" smooth="yes"/>
      <point x="423" y="111"/>
      <point x="363" y="64"/>
      <point x="242" y="64" type="curve" smooth="yes"/>
      <point x="178" y="64"/>
      <point x="105" y="81"/>
      <point x="45" y="111" type="curve"/>
      <point x="45" y="29" type="line"/>
      <point x="104" y="0"/>
      <point x="166" y="-10"/>
    </contour>
  </outline>
</glyph>
<glyph name="uni003A" format="2">
  <advance width="206"/>
  <unicode hex="003A"/>
  <outline>
    <contour>
      <point x="125" y="423" type="curve"/>
      <point x="153" y="463"/>
      <point x="167" y="487"/>
      <point x="167" y="493" type="curve" smooth="yes"/>
      <point x="167" y="503"/>
      <point x="141" y="523"/>
      <point x="90" y="552" type="curve"/>
      <point x="82" y="540"/>
      <point x="74" y="527"/>
      <point x="68" y="514" type="curve" smooth="yes"/>
      <point x="61" y="501"/>
      <point x="54" y="488"/>
      <point x="46" y="475" type="curve"/>
      <point x="66" y="462"/>
      <point x="93" y="445"/>
    </contour>
    <contour>
      <point x="125" y="69" type="curve"/>
      <point x="153" y="109"/>
      <point x="167" y="132"/>
      <point x="167" y="140" type="curve" smooth="yes"/>
      <point x="167" y="150"/>
      <point x="141" y="169"/>
      <point x="90" y="199" type="curve"/>
      <point x="82" y="187"/>
      <point x="74" y="174"/>
      <point x="68" y="161" type="curve" smooth="yes"/>
      <point x="61" y="148"/>
      <point x="54" y="135"/>
      <point x="46" y="121" type="curve"/>
      <point x="70" y="106"/>
      <point x="97" y="89"/>
    </contour>
  </outline>
</glyph>
<glyph name="uni00AB" format="2">
  <advance width="414"/>
  <unicode hex="00AB"/>
  <outline>
    <contour>
      <point x="336" y="226" type="curve" smooth="yes"/>
      <point x="354" y="226"/>
      <point x="370" y="234"/>
      <point x="385" y="251" type="curve"/>
      <point x="365" y="273"/>
      <point x="346" y="296"/>
      <point x="328" y="319" type="curve" smooth="yes"/>
      <point x="280" y="378" type="line"/>
      <point x="368" y="513" type="line"/>
      <point x="335" y="544" type="line"/>
      <point x="216" y="371" type="line"/>
      <point x="246" y="327"/>
      <point x="275" y="283"/>
      <point x="305" y="240" type="curve" smooth="yes"/>
      <point x="312" y="230"/>
      <point x="323" y="226"/>
    </contour>
    <contour>
      <point x="178" y="226" type="curve" smooth="yes"/>
      <point x="196" y="226"/>
      <point x="212" y="234"/>
      <point x="227" y="251" type="curve"/>
      <point x="212" y="267"/>
      <point x="193" y="290"/>
      <point x="170" y="319" type="curve" smooth="yes"/>
      <point x="122" y="378" type="line"/>
      <point x="209" y="513" type="line"/>
      <point x="177" y="544" type="line"/>
      <point x="59" y="371" type="line"/>
      <point x="88" y="327"/>
      <point x="117" y="283"/>
      <point x="146" y="240" type="curve" smooth="yes"/>
      <point x="153" y="230"/>
      <point x="165" y="226"/>
    </contour>
  </outline>
</glyph>
<glyph name="uni00BB" format="2">
  <advance width="414"/>
  <unicode hex="00BB"/>
  <outline>
    <contour>
      <point x="237" y="215" type="line"/>
      <point x="355" y="389" type="line"/>
      <point x="326" y="432"/>
      <point x="297" y="476"/>
      <point x="268" y="519" type="curve" smooth="yes"/>
      <point x="261" y="529"/>
      <point x="249" y="534"/>
      <point x="235" y="534" type="curve" smooth="yes"/>
      <point x="218" y="534"/>
      <point x="202" y="525"/>
      <point x="187" y="509" type="curve"/>
      <point x="207" y="486"/>
      <point x="226" y="464"/>
      <point x="244" y="441" type="curve" smooth="yes"/>
      <point x="292" y="382" type="line"/>
      <point x="204" y="247" type="line"/>
    </contour>
    <contour>
      <point x="79" y="215" type="line"/>
      <point x="197" y="389" type="line"/>
      <point x="168" y="432"/>
      <point x="139" y="476"/>
      <point x="109" y="519" type="curve" smooth="yes"/>
      <point x="103" y="529"/>
      <point x="91" y="534"/>
      <point x="78" y="534" type="curve" smooth="yes"/>
      <point x="60" y="534"/>
      <point x="44" y="525"/>
      <point x="29" y="509" type="curve"/>
      <point x="54" y="480"/>
      <point x="81" y="448"/>
      <point x="110" y="411" type="curve" smooth="yes"/>
      <point x="134" y="382" type="line"/>
      <point x="46" y="247" type="line"/>
    </contour>
  </outline>
</glyph>
<glyph name="uni0600" format="2">
  <advance width="108"/>
  <unicode hex="0600"/>
  <outline>
    <contour>
      <point x="477" y="-28" type="curve" smooth="yes"/>
      <point x="599" y="-28" type="line" smooth="yes"/>
      <point x="877" y="-28"/>
      <point x="1037" y="-23"/>
      <point x="1079" y="-13" type="curve"/>
      <point x="1093" y="10"/>
      <point x="1103" y="35"/>
      <point x="1108" y="64" type="curve"/>
      <point x="1061" y="53"/>
      <point x="1018" y="48"/>
      <point x="979" y="48" type="curve" smooth="yes"/>
      <point x="952" y="48"/>
      <point x="917" y="52"/>
      <point x="917" y="70" type="curve" smooth="yes"/>
      <point x="917" y="77"/>
      <point x="926" y="87"/>
      <point x="942" y="99" type="curve" smooth="yes"/>
      <point x="956" y="110"/>
      <point x="987" y="129"/>
      <point x="1021" y="149" type="curve" smooth="yes"/>
      <point x="1037" y="160"/>
      <point x="1044" y="177"/>
      <point x="1044" y="200" type="curve" smooth="yes"/>
      <point x="1044" y="209"/>
      <point x="1043" y="219"/>
      <point x="1039" y="228" type="curve"/>
      <point x="958" y="187"/>
      <point x="917" y="157"/>
      <point x="897" y="121" type="curve" smooth="yes"/>
      <point x="884" y="99"/>
      <point x="880" y="75"/>
      <point x="879" y="45" type="curve"/>
      <point x="507" y="45" type="line" smooth="yes"/>
      <point x="285" y="45"/>
      <point x="128" y="51"/>
      <point x="35" y="62" type="curve"/>
      <point x="34" y="52" type="line" smooth="yes"/>
      <point x="34" y="12"/>
      <point x="55" y="-11"/>
      <point x="97" y="-16" type="curve" smooth="yes"/>
      <point x="147" y="-24"/>
      <point x="274" y="-28"/>
    </contour>
  </outline>
</glyph>
<glyph name="uni0601" format="2">
  <advance width="312"/>
  <unicode hex="0601"/>
  <outline>
    <contour>
      <point x="109" y="-170" type="curve" smooth="yes"/>
      <point x="120" y="-170"/>
      <point x="132" y="-164"/>
      <point x="144" y="-150" type="curve" smooth="yes"/>
      <point x="156" y="-137"/>
      <point x="171" y="-113"/>
      <point x="189" y="-80" type="curve" smooth="yes"/>
      <point x="223" y="-19"/>
      <point x="252" y="10"/>
      <point x="281" y="10" type="curve" smooth="yes"/>
      <point x="287" y="10"/>
      <point x="294" y="7"/>
      <point x="300" y="1" type="curve" smooth="yes"/>
      <point x="306" y="-5"/>
      <point x="318" y="-20"/>
      <point x="334" y="-44" type="curve" smooth="yes"/>
      <point x="360" y="-80"/>
      <point x="385" y="-98"/>
      <point x="410" y="-98" type="curve" smooth="yes"/>
      <point x="431" y="-98"/>
      <point x="457" y="-58"/>
      <point x="477" y="-36" type="curve" smooth="yes"/>
      <point x="484" y="-28"/>
      <point x="491" y="-22"/>
      <point x="496" y="-22" type="curve" smooth="yes"/>
      <point x="499" y="-22"/>
      <point x="505" y="-23"/>
      <point x="513" y="-27" type="curve" smooth="yes"/>
      <point x="623" y="-73"/>
      <point x="743" y="-92"/>
      <point x="889" y="-92" type="curve" smooth="yes"/>
      <point x="954" y="-92"/>
      <point x="1025" y="-86"/>
      <point x="1102" y="-75" type="curve" smooth="yes"/>
      <point x="1258" y="-52"/>
      <point x="1440" y="-4"/>
      <point x="1526" y="23" type="curve" smooth="yes"/>
      <point x="1543" y="28"/>
      <point x="1554" y="31"/>
      <point x="1561" y="31" type="curve" smooth="yes"/>
      <point x="1563" y="31"/>
      <point x="1564" y="30"/>
      <point x="1564" y="27" type="curve" smooth="yes"/>
      <point x="1564" y="13"/>
      <point x="1544" y="-15"/>
      <point x="1504" y="-55" type="curve"/>
      <point x="1531" y="-79" type="line"/>
      <point x="1585" y="-26"/>
      <point x="1612" y="21"/>
      <point x="1612" y="62" type="curve" smooth="yes"/>
      <point x="1612" y="82"/>
      <point x="1596" y="102"/>
      <point x="1572" y="102" type="curve" smooth="yes"/>
      <point x="1561" y="102"/>
      <point x="1547" y="100"/>
      <point x="1530" y="95" type="curve" smooth="yes"/>
      <point x="1208" y="13"/>
      <point x="1053" y="-8"/>
      <point x="906" y="-8" type="curve" smooth="yes"/>
      <point x="746" y="-8"/>
      <point x="616" y="14"/>
      <point x="517" y="59" type="curve" smooth="yes"/>
      <point x="509" y="62"/>
      <point x="503" y="64"/>
      <point x="500" y="64" type="curve" smooth="yes"/>
      <point x="478" y="64"/>
      <point x="456" y="-16"/>
      <point x="425" y="-16" type="curve" smooth="yes"/>
      <point x="397" y="-16"/>
      <point x="373" y="4"/>
      <point x="352" y="44" type="curve" smooth="yes"/>
      <point x="330" y="86"/>
      <point x="314" y="103"/>
      <point x="293" y="103" type="curve" smooth="yes"/>
      <point x="257" y="103"/>
      <point x="220" y="72"/>
      <point x="184" y="9" type="curve" smooth="yes"/>
      <point x="161" y="-31"/>
      <point x="145" y="-57"/>
      <point x="135" y="-69" type="curve" smooth="yes"/>
      <point x="125" y="-81"/>
      <point x="116" y="-87"/>
      <point x="108" y="-87" type="curve" smooth="yes"/>
      <point x="86" y="-87"/>
      <point x="76" y="-50"/>
      <point x="76" y="-19" type="curve" smooth="yes"/>
      <point x="76" y="0"/>
      <point x="84" y="26"/>
      <point x="99" y="58" type="curve"/>
      <point x="67" y="75" type="line"/>
      <point x="44" y="29"/>
      <point x="32" y="-12"/>
      <point x="32" y="-47" type="curve" smooth="yes"/>
      <point x="32" y="-124"/>
      <point x="59" y="-170"/>
    </contour>
  </outline>
</glyph>
<glyph name="uni0604" format="2">
  <advance width="188"/>
  <unicode hex="0604"/>
  <outline>
    <contour>
      <point x="1297" y="-126" type="curve"/>
      <point x="1303" y="-104"/>
      <point x="1311" y="-78"/>
      <point x="1311" y="-59" type="curve" smooth="yes"/>
      <point x="1311" y="-46"/>
      <point x="1309" y="-38"/>
      <point x="1300" y="-34" type="curve" smooth="yes"/>
      <point x="1221" y="-3"/>
      <point x="1179" y="14"/>
      <point x="1179" y="92" type="curve" smooth="yes"/>
      <point x="1179" y="128"/>
      <point x="1212" y="193"/>
      <point x="1250" y="193" type="curve" smooth="yes"/>
      <point x="1275" y="193"/>
      <point x="1302" y="174"/>
      <point x="1341" y="152" type="curve" smooth="yes"/>
      <point x="1385" y="125"/>
      <point x="1447" y="111"/>
      <point x="1507" y="111" type="curve" smooth="yes"/>
      <point x="1559" y="111"/>
      <point x="1618" y="119"/>
      <point x="1629" y="137" type="curve" smooth="yes"/>
      <point x="1632" y="143"/>
      <point x="1635" y="148"/>
      <point x="1637" y="154" type="curve"/>
      <point x="1665" y="141"/>
      <point x="1691" y="130"/>
      <point x="1724" y="122" type="curve" smooth="yes"/>
      <point x="1757" y="115"/>
      <point x="1797" y="111"/>
      <point x="1850" y="111" type="curve"/>
      <point x="1865" y="140"/>
      <point x="1888" y="209"/>
      <point x="1888" y="234" type="curve" smooth="yes"/>
      <point x="1888" y="292"/>
      <point x="1859" y="381"/>
      <point x="1849" y="450" type="curve"/>
      <point x="1819" y="433"/>
      <point x="1783" y="402"/>
      <point x="1783" y="366" type="curve" smooth="yes"/>
      <point x="1783" y="351"/>
      <point x="1791" y="329"/>
      <point x="1803" y="299" type="curve" smooth="yes"/>
      <point x="1815" y="269"/>
      <point x="1829" y="232"/>
      <point x="1841" y="189" type="curve"/>
      <point x="1768" y="189"/>
      <point x="1718" y="204"/>
      <point x="1665" y="229" type="curve"/>
      <point x="1678" y="272"/>
      <point x="1691" y="319"/>
      <point x="1708" y="355" type="curve"/>
      <point x="1701" y="360"/>
      <point x="1691" y="363"/>
      <point x="1684" y="363" type="curve" smooth="yes"/>
      <point x="1661" y="363"/>
      <point x="1648" y="347"/>
      <point x="1635" y="310" type="curve" smooth="yes"/>
      <point x="1629" y="294"/>
      <point x="1604" y="209"/>
      <point x="1597" y="197" type="curve"/>
      <point x="1573" y="189"/>
      <point x="1551" y="187"/>
      <point x="1518" y="187" type="curve" smooth="yes"/>
      <point x="1431" y="187"/>
      <point x="1404" y="203"/>
      <point x="1323" y="251" type="curve" smooth="yes"/>
      <point x="1300" y="264"/>
      <point x="1279" y="275"/>
      <point x="1255" y="275" type="curve" smooth="yes"/>
      <point x="1247" y="275"/>
      <point x="1238" y="272"/>
      <point x="1229" y="266" type="curve" smooth="yes"/>
      <point x="1177" y="236"/>
      <point x="1129" y="145"/>
      <point x="1129" y="78" type="curve" smooth="yes"/>
      <point x="1129" y="39"/>
      <point x="1138" y="9"/>
      <point x="1153" y="-17" type="curve"/>
      <point x="1052" y="0"/>
      <point x="907" y="20"/>
      <point x="824" y="20" type="curve" smooth="yes"/>
      <point x="523" y="20" type="line" smooth="yes"/>
      <point x="384" y="20"/>
      <point x="224" y="15"/>
      <point x="116" y="-9" type="curve" smooth="yes"/>
      <point x="71" y="-19"/>
      <point x="54" y="-44"/>
      <point x="54" y="-89" type="curve"/>
      <point x="237" y="-61"/>
      <point x="274" y="-58"/>
      <point x="466" y="-58" type="curve" smooth="yes"/>
      <point x="767" y="-58" type="line" smooth="yes"/>
      <point x="832" y="-58"/>
      <point x="907" y="-61"/>
      <point x="988" y="-68" type="curve" smooth="yes"/>
      <point x="1069" y="-74"/>
      <point x="1155" y="-84"/>
      <point x="1242" y="-98" type="curve"/>
      <point x="1269" y="-112"/>
      <point x="1287" y="-122"/>
    </contour>
  </outline>
</glyph>
<glyph name="uni0608" format="2">
  <advance width="836"/>
  <unicode hex="0608"/>
  <outline>
    <contour>
      <point x="384" y="-127" type="curve" smooth="yes"/>
      <point x="462" y="-127"/>
      <point x="554" y="-91"/>
      <point x="617" y="-36" type="curve" smooth="yes"/>
      <point x="680" y="19"/>
      <point x="714" y="92"/>
      <point x="714" y="176" type="curve" smooth="yes"/>
      <point x="714" y="189" type="line"/>
      <point x="759" y="212"/>
      <point x="800" y="236"/>
      <point x="821" y="261" type="curve" smooth="yes"/>
      <point x="831" y="273"/>
      <point x="836" y="284"/>
      <point x="836" y="297" type="curve" smooth="yes"/>
      <point x="836" y="314"/>
      <point x="826" y="327"/>
      <point x="807" y="337" type="curve"/>
      <point x="770" y="310"/>
      <point x="736" y="287"/>
      <point x="704" y="269" type="curve"/>
      <point x="694" y="316"/>
      <point x="677" y="357"/>
      <point x="656" y="389" type="curve" smooth="yes"/>
      <point x="622" y="443"/>
      <point x="577" y="475"/>
      <point x="531" y="475" type="curve" smooth="yes"/>
      <point x="509" y="475"/>
      <point x="486" y="465"/>
      <point x="464" y="445" type="curve" smooth="yes"/>
      <point x="420" y="404"/>
      <point x="390" y="332"/>
      <point x="390" y="264" type="curve" smooth="yes"/>
      <point x="390" y="186"/>
      <point x="439" y="135"/>
      <point x="515" y="135" type="curve" smooth="yes"/>
      <point x="559" y="135"/>
      <point x="606" y="144"/>
      <point x="657" y="163" type="curve"/>
      <point x="660" y="139"/>
      <point x="662" y="113"/>
      <point x="663" y="84" type="curve"/>
      <point x="647" y="59"/>
      <point x="624" y="36"/>
      <point x="594" y="17" type="curve" smooth="yes"/>
      <point x="535" y="-22"/>
      <point x="456" y="-44"/>
      <point x="387" y="-44" type="curve" smooth="yes"/>
      <point x="299" y="-44"/>
      <point x="248" y="13"/>
      <point x="248" y="111" type="curve" smooth="yes"/>
      <point x="248" y="125"/>
      <point x="255" y="159"/>
      <point x="268" y="211" type="curve"/>
      <point x="235" y="227" type="line"/>
      <point x="166" y="193"/>
      <point x="118" y="166"/>
      <point x="91" y="148" type="curve" smooth="yes"/>
      <point x="76" y="138"/>
      <point x="68" y="124"/>
      <point x="68" y="105" type="curve" smooth="yes"/>
      <point x="68" y="94"/>
      <point x="71" y="84"/>
      <point x="77" y="74" type="curve"/>
      <point x="122" y="98"/>
      <point x="166" y="122"/>
      <point x="210" y="146" type="curve"/>
      <point x="205" y="123"/>
      <point x="203" y="94"/>
      <point x="203" y="61" type="curve" smooth="yes"/>
      <point x="203" y="-59"/>
      <point x="270" y="-127"/>
    </contour>
    <contour>
      <point x="539" y="217" type="curve" smooth="yes"/>
      <point x="468" y="217"/>
      <point x="429" y="243"/>
      <point x="429" y="292" type="curve" smooth="yes"/>
      <point x="429" y="305"/>
      <point x="433" y="320"/>
      <point x="442" y="335" type="curve" smooth="yes"/>
      <point x="459" y="366"/>
      <point x="488" y="390"/>
      <point x="516" y="390" type="curve" smooth="yes"/>
      <point x="530" y="390"/>
      <point x="545" y="384"/>
      <point x="561" y="373" type="curve" smooth="yes"/>
      <point x="594" y="349"/>
      <point x="623" y="301"/>
      <point x="642" y="239" type="curve"/>
      <point x="604" y="224"/>
      <point x="570" y="217"/>
    </contour>
  </outline>
</glyph>
<glyph name="uni0609" format="2">
  <advance width="553"/>
  <unicode hex="0609"/>
  <outline>
    <contour>
      <point x="88" y="75" type="curve"/>
      <point x="151" y="206"/>
      <point x="235" y="372"/>
      <point x="341" y="572" type="curve" smooth="yes"/>
      <point x="343" y="577"/>
      <point x="344" y="582"/>
      <point x="344" y="589" type="curve" smooth="yes"/>
      <point x="344" y="608"/>
      <point x="332" y="630"/>
      <point x="316" y="641" type="curve"/>
      <point x="236" y="494"/>
      <point x="124" y="275"/>
      <point x="53" y="124" type="curve"/>
      <point x="61" y="104"/>
      <point x="73" y="87"/>
    </contour>
    <contour>
      <point x="317" y="121" type="curve"/>
      <point x="350" y="170"/>
      <point x="367" y="198"/>
      <point x="367" y="207" type="curve" smooth="yes"/>
      <point x="367" y="212"/>
      <point x="360" y="221"/>
      <point x="346" y="233" type="curve" smooth="yes"/>
      <point x="332" y="246"/>
      <point x="309" y="261"/>
      <point x="275" y="281" type="curve"/>
      <point x="265" y="265"/>
      <point x="256" y="249"/>
      <point x="247" y="234" type="curve" smooth="yes"/>
      <point x="239" y="218"/>
      <point x="230" y="202"/>
      <point x="221" y="185" type="curve"/>
      <point x="252" y="168"/>
      <point x="284" y="146"/>
    </contour>
    <contour>
      <point x="130" y="449" type="curve"/>
      <point x="163" y="497"/>
      <point x="180" y="526"/>
      <point x="180" y="534" type="curve" smooth="yes"/>
      <point x="180" y="540"/>
      <point x="173" y="548"/>
      <point x="159" y="561" type="curve" smooth="yes"/>
      <point x="145" y="573"/>
      <point x="122" y="588"/>
      <point x="88" y="608" type="curve"/>
      <point x="78" y="592"/>
      <point x="69" y="576"/>
      <point x="61" y="561" type="curve" smooth="yes"/>
      <point x="52" y="545"/>
      <point x="44" y="529"/>
      <point x="34" y="512" type="curve"/>
      <point x="60" y="498"/>
      <point x="92" y="477"/>
    </contour>
    <contour>
      <point x="493" y="121" type="curve"/>
      <point x="526" y="170"/>
      <point x="543" y="198"/>
      <point x="543" y="207" type="curve" smooth="yes"/>
      <point x="543" y="212"/>
      <point x="536" y="221"/>
      <point x="522" y="233" type="curve" smooth="yes"/>
      <point x="508" y="246"/>
      <point x="484" y="261"/>
      <point x="451" y="281" type="curve"/>
      <point x="441" y="265"/>
      <point x="431" y="249"/>
      <point x="423" y="234" type="curve" smooth="yes"/>
      <point x="415" y="218"/>
      <point x="406" y="202"/>
      <point x="396" y="185" type="curve"/>
      <point x="428" y="168"/>
      <point x="460" y="146"/>
    </contour>
  </outline>
</glyph>
<glyph name="uni060C" format="2">
  <advance width="212"/>
  <unicode hex="060C"/>
  <outline>
    <contour>
      <point x="102" y="75" type="curve" smooth="yes"/>
      <point x="135" y="75"/>
      <point x="163" y="103"/>
      <point x="169" y="142" type="curve"/>
      <point x="134" y="153"/>
      <point x="113" y="163"/>
      <point x="113" y="181" type="curve" smooth="yes"/>
      <point x="113" y="217"/>
      <point x="137" y="282"/>
      <point x="169" y="317" type="curve"/>
      <point x="142" y="340" type="line"/>
      <point x="85" y="279"/>
      <point x="40" y="191"/>
      <point x="40" y="141" type="curve" smooth="yes"/>
      <point x="40" y="108"/>
      <point x="65" y="75"/>
    </contour>
  </outline>
</glyph>
<glyph name="uni060D" format="2">
  <advance width="300"/>
  <unicode hex="060D"/>
  <outline>
    <contour>
      <point x="69" y="-16" type="curve"/>
      <point x="98" y="74"/>
      <point x="147" y="150"/>
      <point x="228" y="230" type="curve"/>
      <point x="210" y="290" type="line"/>
      <point x="185" y="264"/>
      <point x="157" y="233"/>
      <point x="131" y="199" type="curve" smooth="yes"/>
      <point x="83" y="136"/>
      <point x="41" y="68"/>
      <point x="41" y="25" type="curve" smooth="yes"/>
      <point x="41" y="8"/>
      <point x="52" y="-11"/>
    </contour>
  </outline>
</glyph>
<glyph name="uni060E" format="2">
  <advance width="854"/>
  <unicode hex="060E"/>
  <outline>
    <contour>
      <point x="342" y="135" type="curve" smooth="yes"/>
      <point x="470" y="135"/>
      <point x="570" y="142"/>
      <point x="641" y="157" type="curve" smooth="yes"/>
      <point x="711" y="172"/>
      <point x="763" y="196"/>
      <point x="795" y="228" type="curve" smooth="yes"/>
      <point x="810" y="242"/>
      <point x="824" y="264"/>
      <point x="837" y="291" type="curve"/>
      <point x="811" y="312" type="line"/>
      <point x="795" y="292"/>
      <point x="771" y="274"/>
      <point x="737" y="260" type="curve" smooth="yes"/>
      <point x="661" y="227"/>
      <point x="539" y="210"/>
      <point x="371" y="207" type="curve"/>
      <point x="374" y="216"/>
      <point x="383" y="266"/>
      <point x="383" y="288" type="curve" smooth="yes"/>
      <point x="383" y="382"/>
      <point x="333" y="446"/>
      <point x="255" y="446" type="curve" smooth="yes"/>
      <point x="218" y="446"/>
      <point x="181" y="434"/>
      <point x="150" y="414" type="curve" smooth="yes"/>
      <point x="102" y="383"/>
      <point x="68" y="331"/>
      <point x="68" y="274" type="curve" smooth="yes"/>
      <point x="68" y="223"/>
      <point x="88" y="187"/>
      <point x="128" y="166" type="curve" smooth="yes"/>
      <point x="168" y="145"/>
      <point x="240" y="135"/>
    </contour>
    <contour>
      <point x="334" y="207" type="curve"/>
      <point x="260" y="208"/>
      <point x="203" y="216"/>
      <point x="164" y="231" type="curve" smooth="yes"/>
      <point x="124" y="246"/>
      <point x="104" y="267"/>
      <point x="104" y="295" type="curve" smooth="yes"/>
      <point x="104" y="306"/>
      <point x="111" y="317"/>
      <point x="124" y="329" type="curve" smooth="yes"/>
      <point x="151" y="352"/>
      <point x="194" y="368"/>
      <point x="237" y="368" type="curve" smooth="yes"/>
      <point x="256" y="368"/>
      <point x="273" y="363"/>
      <point x="290" y="354" type="curve" smooth="yes"/>
      <point x="322" y="335"/>
      <point x="342" y="300"/>
      <point x="342" y="254" type="curve" smooth="yes"/>
      <point x="342" y="244"/>
      <point x="339" y="228"/>
    </contour>
  </outline>
</glyph>
<glyph name="uni060F" format="2">
  <advance width="648"/>
  <unicode hex="060F"/>
  <anchor x="338" y="-195" name="bottom"/>
  <anchor x="228" y="716" name="top"/>
  <outline>
    <contour>
      <point x="67" y="-162" type="line"/>
      <point x="99" y="-114"/>
      <point x="127" y="-76"/>
      <point x="151" y="-47" type="curve"/>
      <point x="189" y="-110"/>
      <point x="254" y="-146"/>
      <point x="338" y="-146" type="curve" smooth="yes"/>
      <point x="378" y="-146"/>
      <point x="416" y="-137"/>
      <point x="452" y="-120" type="curve" smooth="yes"/>
      <point x="524" y="-85"/>
      <point x="569" y="-21"/>
      <point x="569" y="52" type="curve" smooth="yes"/>
      <point x="569" y="154"/>
      <point x="518" y="211"/>
      <point x="425" y="211" type="curve" smooth="yes"/>
      <point x="337" y="211"/>
      <point x="254" y="156"/>
      <point x="161" y="39" type="curve"/>
      <point x="152" y="60"/>
      <point x="148" y="84"/>
      <point x="148" y="110" type="curve" smooth="yes"/>
      <point x="148" y="159"/>
      <point x="167" y="205"/>
      <point x="202" y="247" type="curve" smooth="yes"/>
      <point x="243" y="295"/>
      <point x="308" y="337"/>
      <point x="394" y="371" type="curve" smooth="yes"/>
      <point x="416" y="380"/>
      <point x="431" y="387"/>
      <point x="440" y="394" type="curve" smooth="yes"/>
      <point x="459" y="406"/>
      <point x="471" y="422"/>
      <point x="471" y="444" type="curve" smooth="yes"/>
      <point x="471" y="454"/>
      <point x="467" y="465"/>
      <point x="460" y="475" type="curve"/>
      <point x="395" y="454"/>
      <point x="340" y="430"/>
      <point x="296" y="402" type="curve"/>
      <point x="190" y="411"/>
      <point x="125" y="467"/>
      <point x="125" y="551" type="curve"/>
      <point x="171" y="575"/>
      <point x="213" y="587"/>
      <point x="253" y="587" type="curve" smooth="yes"/>
      <point x="282" y="587"/>
      <point x="297" y="584"/>
      <point x="350" y="564" type="curve"/>
      <point x="368" y="595" type="line"/>
      <point x="310" y="646"/>
      <point x="272" y="667"/>
      <point x="228" y="667" type="curve" smooth="yes"/>
      <point x="201" y="667"/>
      <point x="176" y="658"/>
      <point x="151" y="638" type="curve" smooth="yes"/>
      <point x="101" y="599"/>
      <point x="68" y="530"/>
      <point x="68" y="473" type="curve" smooth="yes"/>
      <point x="68" y="453"/>
      <point x="74" y="433"/>
      <point x="84" y="415" type="curve" smooth="yes"/>
      <point x="107" y="374"/>
      <point x="152" y="340"/>
      <point x="204" y="328" type="curve"/>
      <point x="148" y="272"/>
      <point x="112" y="193"/>
      <point x="112" y="110" type="curve" smooth="yes"/>
      <point x="112" y="66"/>
      <point x="118" y="29"/>
      <point x="129" y="-2" type="curve"/>
      <point x="100" y="-43"/>
      <point x="70" y="-89"/>
      <point x="38" y="-140" type="curve"/>
    </contour>
    <contour>
      <point x="346" y="-69" type="curve" smooth="yes"/>
      <point x="286" y="-69"/>
      <point x="228" y="-47"/>
      <point x="188" y="-5" type="curve"/>
      <point x="271" y="83"/>
      <point x="352" y="126"/>
      <point x="432" y="126" type="curve" smooth="yes"/>
      <point x="484" y="126"/>
      <point x="534" y="91"/>
      <point x="534" y="49" type="curve" smooth="yes"/>
      <point x="534" y="26"/>
      <point x="526" y="6"/>
      <point x="511" y="-11" type="curve" smooth="yes"/>
      <point x="481" y="-47"/>
      <point x="413" y="-69"/>
    </contour>
  </outline>
</glyph>
<glyph name="uni0610" format="2">
  <unicode hex="0610"/>
  <anchor x="99" y="604" name="_top"/>
  <anchor x="99" y="604" name="_top2"/>
  <anchor x="99" y="604" name="_top3"/>
  <anchor x="73" y="822" name="top3"/>
  <outline>
    <contour>
      <point x="7" y="593" type="curve"/>
      <point x="17" y="594"/>
      <point x="26" y="600"/>
      <point x="33" y="613" type="curve"/>
      <point x="37" y="622"/>
      <point x="39" y="638"/>
      <point x="39" y="661" type="curve"/>
      <point x="52" y="658"/>
      <point x="65" y="656"/>
      <point x="80" y="656" type="curve" smooth="yes"/>
      <point x="139" y="656"/>
      <point x="181" y="692"/>
      <point x="181" y="746" type="curve" smooth="yes"/>
      <point x="181" y="770"/>
      <point x="155" y="798"/>
      <point x="129" y="798" type="curve" smooth="yes"/>
      <point x="98" y="798"/>
      <point x="66" y="770"/>
      <point x="33" y="716" type="curve"/>
      <point x="27" y="727"/>
      <point x="20" y="744"/>
      <point x="12" y="766" type="curve"/>
      <point x="5" y="758"/>
      <point x="-2" y="744"/>
      <point x="-10" y="724" type="curve"/>
      <point x="4" y="693"/>
      <point x="11" y="666"/>
      <point x="11" y="642" type="curve" smooth="yes"/>
      <point x="11" y="625"/>
      <point x="10" y="608"/>
    </contour>
    <contour>
      <point x="81" y="693" type="curve" smooth="yes"/>
      <point x="65" y="693"/>
      <point x="53" y="694"/>
      <point x="44" y="698" type="curve"/>
      <point x="66" y="737"/>
      <point x="91" y="757"/>
      <point x="119" y="757" type="curve" smooth="yes"/>
      <point x="140" y="757"/>
      <point x="155" y="746"/>
      <point x="162" y="723" type="curve"/>
      <point x="149" y="703"/>
      <point x="122" y="693"/>
    </contour>
  </outline>
</glyph>
<glyph name="uni0611" format="2">
  <unicode hex="0611"/>
  <anchor x="91" y="604" name="_top"/>
  <anchor x="91" y="604" name="_top2"/>
  <anchor x="91" y="604" name="_top3"/>
  <anchor x="66" y="820" name="top3"/>
  <outline>
    <contour>
      <point x="5" y="593" type="curve"/>
      <point x="27" y="594"/>
      <point x="38" y="616"/>
      <point x="38" y="657" type="curve"/>
      <point x="47" y="655"/>
      <point x="58" y="654"/>
      <point x="71" y="654" type="curve" smooth="yes"/>
      <point x="89" y="654"/>
      <point x="107" y="656"/>
      <point x="126" y="661" type="curve" smooth="yes"/>
      <point x="166" y="669"/>
      <point x="190" y="680"/>
      <point x="190" y="706" type="curve" smooth="yes"/>
      <point x="190" y="710"/>
      <point x="189" y="715"/>
      <point x="187" y="719" type="curve"/>
      <point x="174" y="713"/>
      <point x="155" y="706"/>
      <point x="132" y="699" type="curve"/>
      <point x="131" y="700" type="line"/>
      <point x="121" y="702" type="line"/>
      <point x="95" y="710"/>
      <point x="83" y="726"/>
      <point x="83" y="752" type="curve"/>
      <point x="97" y="760"/>
      <point x="110" y="763"/>
      <point x="122" y="763" type="curve" smooth="yes"/>
      <point x="134" y="763"/>
      <point x="147" y="760"/>
      <point x="160" y="755" type="curve"/>
      <point x="169" y="768" type="line"/>
      <point x="143" y="791"/>
      <point x="132" y="796"/>
      <point x="117" y="796" type="curve" smooth="yes"/>
      <point x="87" y="796"/>
      <point x="58" y="756"/>
      <point x="58" y="722" type="curve" smooth="yes"/>
      <point x="58" y="713"/>
      <point x="60" y="704"/>
      <point x="66" y="696" type="curve"/>
      <point x="71" y="690" type="line"/>
      <point x="69" y="690" type="line" smooth="yes"/>
      <point x="56" y="690"/>
      <point x="46" y="694"/>
      <point x="52" y="693" type="curve"/>
      <point x="46" y="695"/>
      <point x="42" y="699"/>
      <point x="38" y="705" type="curve" smooth="yes"/>
      <point x="33" y="711"/>
      <point x="24" y="731"/>
      <point x="9" y="765" type="curve"/>
      <point x="0" y="753"/>
      <point x="-7" y="739"/>
      <point x="-12" y="724" type="curve"/>
      <point x="2" y="693"/>
      <point x="9" y="666"/>
      <point x="9" y="642" type="curve" smooth="yes"/>
      <point x="9" y="629"/>
      <point x="8" y="612"/>
    </contour>
  </outline>
</glyph>
<glyph name="uni0612" format="2">
  <unicode hex="0612"/>
  <anchor x="28" y="623" name="_top"/>
  <anchor x="28" y="623" name="_top2"/>
  <anchor x="28" y="623" name="_top3"/>
  <anchor x="48" y="858" name="top3"/>
  <outline>
    <contour>
      <point x="-52" y="637" type="curve"/>
      <point x="-36" y="637" type="line"/>
      <point x="-35" y="686"/>
      <point x="18" y="730"/>
      <point x="89" y="742" type="curve" smooth="yes"/>
      <point x="90" y="742" type="line"/>
      <point x="114" y="743" type="line"/>
      <point x="128" y="780" type="line"/>
      <point x="99" y="778" type="line" smooth="yes"/>
      <point x="83" y="778"/>
      <point x="63" y="782"/>
      <point x="39" y="791" type="curve" smooth="yes"/>
      <point x="15" y="799"/>
      <point x="-5" y="803"/>
      <point x="-20" y="803" type="curve" smooth="yes"/>
      <point x="-47" y="803"/>
      <point x="-67" y="790"/>
      <point x="-67" y="770" type="curve" smooth="yes"/>
      <point x="-67" y="762"/>
      <point x="-64" y="756"/>
      <point x="-58" y="752" type="curve"/>
      <point x="-49" y="761"/>
      <point x="-36" y="766"/>
      <point x="-19" y="766" type="curve" smooth="yes"/>
      <point x="-11" y="766"/>
      <point x="-2" y="765"/>
      <point x="6" y="762" type="curve" smooth="yes"/>
      <point x="26" y="757" type="line"/>
      <point x="-24" y="733"/>
      <point x="-52" y="690"/>
    </contour>
    <contour>
      <point x="107" y="633" type="curve" smooth="yes"/>
      <point x="156" y="633"/>
      <point x="192" y="681"/>
      <point x="192" y="742" type="curve" smooth="yes"/>
      <point x="192" y="753"/>
      <point x="187" y="775"/>
      <point x="175" y="807" type="curve" smooth="yes"/>
      <point x="164" y="843" type="line"/>
      <point x="145" y="835"/>
      <point x="136" y="825"/>
      <point x="136" y="813" type="curve" smooth="yes"/>
      <point x="136" y="803"/>
      <point x="140" y="792"/>
      <point x="147" y="780" type="curve" smooth="yes"/>
      <point x="154" y="768"/>
      <point x="162" y="752"/>
      <point x="173" y="730" type="curve"/>
      <point x="161" y="694"/>
      <point x="137" y="669"/>
      <point x="98" y="669" type="curve" smooth="yes"/>
      <point x="90" y="669"/>
      <point x="76" y="672"/>
      <point x="56" y="677" type="curve"/>
      <point x="49" y="661" type="line"/>
      <point x="63" y="649"/>
      <point x="95" y="633"/>
    </contour>
  </outline>
</glyph>
<glyph name="uni0613" format="2">
  <unicode hex="0613"/>
  <anchor x="39" y="587" name="_top"/>
  <anchor x="39" y="587" name="_top2"/>
  <anchor x="39" y="587" name="_top3"/>
  <anchor x="81" y="863" name="top3"/>
  <outline>
    <contour>
      <point x="-38" y="592" type="curve"/>
      <point x="-28" y="593"/>
      <point x="-20" y="599"/>
      <point x="-12" y="612" type="curve"/>
      <point x="-8" y="619"/>
      <point x="-6" y="636"/>
      <point x="-6" y="660" type="curve"/>
      <point x="6" y="657"/>
      <point x="20" y="656"/>
      <point x="34" y="656" type="curve" smooth="yes"/>
      <point x="93" y="656"/>
      <point x="136" y="690"/>
      <point x="136" y="745" type="curve" smooth="yes"/>
      <point x="136" y="769"/>
      <point x="110" y="797"/>
      <point x="83" y="797" type="curve" smooth="yes"/>
      <point x="52" y="797"/>
      <point x="20" y="769"/>
      <point x="-12" y="715" type="curve"/>
      <point x="-19" y="728"/>
      <point x="-27" y="745"/>
      <point x="-34" y="765" type="curve"/>
      <point x="-42" y="756"/>
      <point x="-49" y="742"/>
      <point x="-55" y="723" type="curve"/>
      <point x="-42" y="691"/>
      <point x="-35" y="664"/>
      <point x="-35" y="641" type="curve" smooth="yes"/>
      <point x="-35" y="631"/>
      <point x="-36" y="614"/>
    </contour>
    <contour>
      <point x="35" y="692" type="curve" smooth="yes"/>
      <point x="19" y="692"/>
      <point x="7" y="694"/>
      <point x="-1" y="697" type="curve"/>
      <point x="20" y="736"/>
      <point x="44" y="756"/>
      <point x="73" y="756" type="curve" smooth="yes"/>
      <point x="96" y="756"/>
      <point x="110" y="745"/>
      <point x="117" y="723" type="curve"/>
      <point x="103" y="702"/>
      <point x="76" y="692"/>
    </contour>
    <contour>
      <point x="0" y="782" type="line"/>
      <point x="5" y="785"/>
      <point x="9" y="790"/>
      <point x="13" y="795" type="curve" smooth="yes"/>
      <point x="17" y="801"/>
      <point x="20" y="806"/>
      <point x="23" y="810" type="curve"/>
      <point x="11" y="823"/>
      <point x="0" y="833"/>
      <point x="-8" y="838" type="curve"/>
      <point x="-31" y="809" type="line"/>
    </contour>
    <contour>
      <point x="135" y="596" type="curve" smooth="yes"/>
      <point x="184" y="596"/>
      <point x="220" y="645"/>
      <point x="220" y="705" type="curve" smooth="yes"/>
      <point x="220" y="719"/>
      <point x="214" y="741"/>
      <point x="203" y="770" type="curve" smooth="yes"/>
      <point x="198" y="782"/>
      <point x="195" y="795"/>
      <point x="192" y="807" type="curve"/>
      <point x="174" y="799"/>
      <point x="165" y="791"/>
      <point x="165" y="776" type="curve" smooth="yes"/>
      <point x="165" y="767"/>
      <point x="168" y="756"/>
      <point x="175" y="743" type="curve" smooth="yes"/>
      <point x="186" y="725"/>
      <point x="194" y="708"/>
      <point x="201" y="693" type="curve"/>
      <point x="188" y="653"/>
      <point x="163" y="633"/>
      <point x="126" y="633" type="curve" smooth="yes"/>
      <point x="118" y="633"/>
      <point x="104" y="635"/>
      <point x="83" y="639" type="curve"/>
      <point x="78" y="624" type="line"/>
      <point x="92" y="612"/>
      <point x="122" y="596"/>
    </contour>
  </outline>
</glyph>
<glyph name="uni0614" format="2">
  <unicode hex="0614"/>
  <anchor x="44" y="636" name="_top"/>
  <anchor x="44" y="636" name="_top2"/>
  <anchor x="44" y="636" name="_top3"/>
  <anchor x="66" y="764" name="top3"/>
  <outline>
    <contour>
      <point x="137" y="646" type="curve" smooth="yes"/>
      <point x="168" y="646"/>
      <point x="194" y="674"/>
      <point x="215" y="731" type="curve"/>
      <point x="203" y="741" type="line"/>
      <point x="183" y="707"/>
      <point x="165" y="690"/>
      <point x="149" y="690" type="curve" smooth="yes"/>
      <point x="135" y="690"/>
      <point x="119" y="708"/>
      <point x="119" y="726" type="curve" smooth="yes"/>
      <point x="119" y="735" type="line"/>
      <point x="105" y="740" type="line"/>
      <point x="90" y="722"/>
      <point x="76" y="710"/>
      <point x="63" y="705" type="curve" smooth="yes"/>
      <point x="37" y="693"/>
      <point x="-8" y="689"/>
      <point x="-91" y="689" type="curve" smooth="yes"/>
      <point x="-130" y="690" type="line"/>
      <point x="-130" y="684" type="line" smooth="yes"/>
      <point x="-130" y="671"/>
      <point x="-122" y="663"/>
      <point x="-104" y="659" type="curve" smooth="yes"/>
      <point x="-86" y="655"/>
      <point x="-60" y="654"/>
      <point x="-26" y="654" type="curve" smooth="yes"/>
      <point x="22" y="654"/>
      <point x="61" y="659"/>
      <point x="89" y="682" type="curve"/>
      <point x="101" y="658"/>
      <point x="117" y="646"/>
    </contour>
  </outline>
</glyph>
<glyph name="uni0615" format="2">
  <unicode hex="0615"/>
  <anchor x="48" y="563" name="_top"/>
  <anchor x="48" y="563" name="_top2"/>
  <anchor x="48" y="563" name="_top3"/>
  <anchor x="73" y="785" name="top3"/>
  <outline>
    <contour>
      <point x="39" y="572" type="curve" smooth="yes"/>
      <point x="107" y="572"/>
      <point x="147" y="598"/>
      <point x="147" y="641" type="curve" smooth="yes"/>
      <point x="147" y="661"/>
      <point x="114" y="687"/>
      <point x="90" y="687" type="curve" smooth="yes"/>
      <point x="66" y="687"/>
      <point x="40" y="671"/>
      <point x="11" y="639" type="curve"/>
      <point x="10" y="663"/>
      <point x="8" y="692"/>
      <point x="4" y="726" type="curve"/>
      <point x="14" y="734" type="line"/>
      <point x="1" y="775" type="line"/>
      <point x="-14" y="772"/>
      <point x="-22" y="763"/>
      <point x="-22" y="748" type="curve" smooth="yes"/>
      <point x="-22" y="737"/>
      <point x="-19" y="716"/>
      <point x="-13" y="684" type="curve" smooth="yes"/>
      <point x="-2" y="624" type="line"/>
      <point x="-20" y="603" type="line"/>
      <point x="-76" y="614" type="line"/>
      <point x="-80" y="602" type="line"/>
      <point x="-50" y="582"/>
      <point x="-38" y="572"/>
    </contour>
    <contour>
      <point x="43" y="599" type="curve" smooth="yes"/>
      <point x="-1" y="600" type="line"/>
      <point x="30" y="639"/>
      <point x="58" y="658"/>
      <point x="82" y="658" type="curve" smooth="yes"/>
      <point x="102" y="658"/>
      <point x="119" y="647"/>
      <point x="131" y="624" type="curve"/>
      <point x="100" y="605"/>
      <point x="76" y="599"/>
    </contour>
  </outline>
</glyph>
<glyph name="uni0616" format="2">
  <unicode hex="0616"/>
  <anchor x="0" y="614" name="_top"/>
  <anchor x="0" y="614" name="_top2"/>
  <anchor x="0" y="614" name="_top3"/>
  <anchor x="0" y="960" name="top3"/>
  <outline>
    <contour>
      <point x="-28" y="624" type="curve" smooth="yes"/>
      <point x="40" y="624"/>
      <point x="148" y="632"/>
      <point x="87" y="629" type="curve"/>
      <point x="130" y="633"/>
      <point x="156" y="637"/>
      <point x="163" y="641" type="curve" smooth="yes"/>
      <point x="171" y="645"/>
      <point x="175" y="650"/>
      <point x="175" y="656" type="curve" smooth="yes"/>
      <point x="175" y="661"/>
      <point x="173" y="665"/>
      <point x="169" y="669" type="curve"/>
      <point x="129" y="661"/>
      <point x="26" y="653"/>
      <point x="-26" y="653" type="curve" smooth="yes"/>
      <point x="-102" y="653"/>
      <point x="-152" y="657"/>
      <point x="-176" y="664" type="curve"/>
      <point x="-152" y="679"/>
      <point x="-123" y="688"/>
      <point x="-95" y="696" type="curve"/>
      <point x="-25" y="714" type="line"/>
      <point x="-18" y="726"/>
      <point x="-12" y="745"/>
      <point x="-12" y="755" type="curve" smooth="yes"/>
      <point x="-12" y="778"/>
      <point x="-13" y="805"/>
      <point x="-15" y="834" type="curve" smooth="yes"/>
      <point x="-21" y="934" type="line"/>
      <point x="-29" y="929"/>
      <point x="-37" y="922"/>
      <point x="-45" y="913" type="curve"/>
      <point x="-37" y="843"/>
      <point x="-31" y="786"/>
      <point x="-28" y="739" type="curve"/>
      <point x="-111" y="725"/>
      <point x="-152" y="706"/>
      <point x="-184" y="678" type="curve"/>
      <point x="-188" y="672"/>
      <point x="-194" y="651"/>
      <point x="-194" y="647" type="curve" smooth="yes"/>
      <point x="-194" y="641"/>
      <point x="-177" y="636"/>
      <point x="-145" y="631" type="curve" smooth="yes"/>
      <point x="-112" y="626"/>
      <point x="-73" y="624"/>
    </contour>
    <contour>
      <point x="21" y="704" type="line"/>
      <point x="38" y="707" type="line"/>
      <point x="41" y="792" type="line"/>
      <point x="41" y="813" type="line"/>
      <point x="39" y="882" type="line"/>
      <point x="49" y="890" type="line"/>
      <point x="35" y="935" type="line"/>
      <point x="17" y="931"/>
      <point x="11" y="922"/>
      <point x="11" y="907" type="curve"/>
      <point x="18" y="810" type="line"/>
      <point x="21" y="739" type="line"/>
    </contour>
  </outline>
</glyph>
<glyph name="uni0617" format="2">
  <unicode hex="0617"/>
  <anchor x="0" y="543" name="_top"/>
  <anchor x="0" y="543" name="_top2"/>
  <anchor x="0" y="543" name="_top3"/>
  <anchor x="1" y="857" name="top3"/>
  <outline>
    <contour>
      <point x="-22" y="553" type="curve" smooth="yes"/>
      <point x="28" y="553"/>
      <point x="62" y="601"/>
      <point x="62" y="661" type="curve" smooth="yes"/>
      <point x="62" y="673"/>
      <point x="59" y="690"/>
      <point x="51" y="711" type="curve" smooth="yes"/>
      <point x="34" y="760" type="line"/>
      <point x="19" y="753"/>
      <point x="11" y="747"/>
      <point x="11" y="734" type="curve" smooth="yes"/>
      <point x="11" y="718"/>
      <point x="24" y="695"/>
      <point x="37" y="673" type="curve" smooth="yes"/>
      <point x="48" y="649" type="line"/>
      <point x="34" y="605"/>
      <point x="7" y="583"/>
      <point x="-31" y="583" type="curve" smooth="yes"/>
      <point x="-42" y="583"/>
      <point x="-54" y="584"/>
      <point x="-67" y="587" type="curve"/>
      <point x="-72" y="574" type="line"/>
      <point x="-57" y="563"/>
      <point x="-34" y="553"/>
    </contour>
    <contour>
      <point x="15" y="780" type="curve"/>
      <point x="25" y="789"/>
      <point x="33" y="798"/>
      <point x="40" y="808" type="curve"/>
      <point x="33" y="813"/>
      <point x="24" y="822"/>
      <point x="15" y="832" type="curve"/>
      <point x="-12" y="804" type="line"/>
      <point x="-5" y="797"/>
      <point x="4" y="789"/>
    </contour>
  </outline>
</glyph>
<glyph name="uni0618" format="2">
  <unicode hex="0618"/>
  <anchor x="0" y="582" name="_top"/>
  <anchor x="0" y="582" name="_top2"/>
  <anchor x="0" y="582" name="_top3"/>
  <anchor x="-3" y="706" name="top3"/>
  <outline>
    <contour>
      <point x="-55" y="597" type="line"/>
      <point x="-29" y="606" type="line" smooth="yes"/>
      <point x="-7" y="613"/>
      <point x="19" y="622"/>
      <point x="50" y="635" type="curve" smooth="yes"/>
      <point x="66" y="642"/>
      <point x="73" y="653"/>
      <point x="73" y="671" type="curve"/>
      <point x="72" y="681" type="line"/>
      <point x="39" y="668"/>
      <point x="-1" y="654"/>
      <point x="-50" y="639" type="curve"/>
    </contour>
  </outline>
</glyph>
<glyph name="uni0619" format="2">
  <unicode hex="0619"/>
  <anchor x="0" y="573" name="_top"/>
  <anchor x="0" y="573" name="_top2"/>
  <anchor x="0" y="573" name="_top3"/>
  <anchor x="0" y="762" name="top3"/>
  <outline>
    <contour>
      <point x="-25" y="583" type="curve" smooth="yes"/>
      <point x="-9" y="583"/>
      <point x="10" y="597"/>
      <point x="32" y="624" type="curve"/>
      <point x="57" y="624"/>
      <point x="68" y="631"/>
      <point x="70" y="652" type="curve"/>
      <point x="49" y="653" type="line"/>
      <point x="53" y="663"/>
      <point x="55" y="674"/>
      <point x="55" y="685" type="curve" smooth="yes"/>
      <point x="55" y="723"/>
      <point x="39" y="738"/>
      <point x="23" y="738" type="curve" smooth="yes"/>
      <point x="-2" y="738"/>
      <point x="-32" y="708"/>
      <point x="-32" y="677" type="curve" smooth="yes"/>
      <point x="-32" y="658"/>
      <point x="-21" y="643"/>
      <point x="1" y="631" type="curve"/>
      <point x="-10" y="622"/>
      <point x="-28" y="614"/>
      <point x="-54" y="608" type="curve"/>
      <point x="-54" y="592"/>
      <point x="-43" y="583"/>
    </contour>
    <contour>
      <point x="25" y="657" type="line"/>
      <point x="3" y="665"/>
      <point x="-8" y="677"/>
      <point x="-8" y="691" type="curve" smooth="yes"/>
      <point x="-8" y="697"/>
      <point x="2" y="706"/>
      <point x="11" y="706" type="curve" smooth="yes"/>
      <point x="23" y="706"/>
      <point x="30" y="696"/>
      <point x="30" y="675" type="curve" smooth="yes"/>
      <point x="30" y="671"/>
      <point x="29" y="667"/>
      <point x="27" y="661" type="curve" smooth="yes"/>
    </contour>
  </outline>
</glyph>
<glyph name="uni061A" format="2">
  <unicode hex="061A"/>
  <anchor x="0" y="46" name="_bottom"/>
  <anchor x="0" y="46" name="_bottom2"/>
  <anchor x="0" y="46" name="_bottom3"/>
  <anchor x="7" y="-53" name="bottom3"/>
  <outline>
    <contour>
      <point x="-55" y="-44" type="line"/>
      <point x="-29" y="-35" type="line" smooth="yes"/>
      <point x="-7" y="-28"/>
      <point x="19" y="-18"/>
      <point x="50" y="-5" type="curve" smooth="yes"/>
      <point x="66" y="1"/>
      <point x="73" y="13"/>
      <point x="73" y="30" type="curve"/>
      <point x="72" y="41" type="line"/>
      <point x="39" y="28"/>
      <point x="-1" y="14"/>
      <point x="-50" y="-1" type="curve"/>
    </contour>
  </outline>
</glyph>
<glyph name="uni061B" format="2">
  <advance width="212"/>
  <unicode hex="061B"/>
  <outline>
    <contour>
      <point x="106" y="311" type="curve" smooth="yes"/>
      <point x="140" y="311"/>
      <point x="167" y="338"/>
      <point x="173" y="378" type="curve"/>
      <point x="139" y="389"/>
      <point x="118" y="399"/>
      <point x="118" y="417" type="curve" smooth="yes"/>
      <point x="118" y="452"/>
      <point x="141" y="517"/>
      <point x="173" y="552" type="curve"/>
      <point x="146" y="575" type="line"/>
      <point x="89" y="514"/>
      <point x="44" y="427"/>
      <point x="44" y="377" type="curve" smooth="yes"/>
      <point x="44" y="343"/>
      <point x="69" y="311"/>
    </contour>
    <contour>
      <point x="125" y="69" type="curve"/>
      <point x="153" y="109"/>
      <point x="167" y="132"/>
      <point x="167" y="140" type="curve" smooth="yes"/>
      <point x="167" y="150"/>
      <point x="141" y="169"/>
      <point x="90" y="199" type="curve"/>
      <point x="82" y="187"/>
      <point x="74" y="174"/>
      <point x="67" y="161" type="curve" smooth="yes"/>
      <point x="61" y="148"/>
      <point x="53" y="135"/>
      <point x="46" y="121" type="curve"/>
      <point x="66" y="109"/>
      <point x="93" y="92"/>
    </contour>
  </outline>
</glyph>
<glyph name="uni061F" format="2">
  <advance width="425"/>
  <unicode hex="061F"/>
  <outline>
    <contour>
      <point x="239" y="103" type="line"/>
      <point x="262" y="148"/>
      <point x="273" y="185"/>
      <point x="273" y="213" type="curve" smooth="yes"/>
      <point x="273" y="239"/>
      <point x="263" y="262"/>
      <point x="243" y="283" type="curve" smooth="yes"/>
      <point x="204" y="323"/>
      <point x="134" y="344"/>
      <point x="91" y="371" type="curve"/>
      <point x="113" y="437"/>
      <point x="171" y="481"/>
      <point x="232" y="481" type="curve" smooth="yes"/>
      <point x="278" y="481"/>
      <point x="303" y="470"/>
      <point x="343" y="433" type="curve"/>
      <point x="363" y="450"/>
      <point x="373" y="469"/>
      <point x="373" y="488" type="curve" smooth="yes"/>
      <point x="373" y="500"/>
      <point x="368" y="511"/>
      <point x="359" y="521" type="curve" smooth="yes"/>
      <point x="331" y="552"/>
      <point x="292" y="567"/>
      <point x="243" y="567" type="curve" smooth="yes"/>
      <point x="211" y="567"/>
      <point x="180" y="557"/>
      <point x="151" y="538" type="curve" smooth="yes"/>
      <point x="94" y="500"/>
      <point x="55" y="430"/>
      <point x="55" y="368" type="curve" smooth="yes"/>
      <point x="55" y="320"/>
      <point x="80" y="285"/>
      <point x="132" y="257" type="curve" smooth="yes"/>
      <point x="162" y="241"/>
      <point x="182" y="227"/>
      <point x="192" y="216" type="curve" smooth="yes"/>
      <point x="202" y="205"/>
      <point x="208" y="194"/>
      <point x="208" y="181" type="curve" smooth="yes"/>
      <point x="208" y="172"/>
      <point x="206" y="154"/>
      <point x="201" y="127" type="curve"/>
    </contour>
    <contour>
      <point x="217" y="-66" type="curve"/>
      <point x="245" y="-25"/>
      <point x="258" y="-2"/>
      <point x="258" y="5" type="curve" smooth="yes"/>
      <point x="258" y="9"/>
      <point x="252" y="16"/>
      <point x="241" y="26" type="curve" smooth="yes"/>
      <point x="229" y="37"/>
      <point x="209" y="48"/>
      <point x="182" y="64" type="curve"/>
      <point x="174" y="52"/>
      <point x="166" y="39"/>
      <point x="159" y="26" type="curve" smooth="yes"/>
      <point x="152" y="13"/>
      <point x="146" y="0"/>
      <point x="138" y="-14" type="curve"/>
      <point x="165" y="-29"/>
      <point x="184" y="-42"/>
    </contour>
  </outline>
</glyph>
<glyph name="uni0621" format="2">
  <advance width="437"/>
  <unicode hex="0621"/>
  <unicode hex="FE80"/>
  <anchor x="237" y="49" name="bottom"/>
  <anchor x="206" y="461" name="top"/>
  <outline>
    <contour>
      <point x="68" y="98" type="line"/>
      <point x="159" y="119"/>
      <point x="195" y="126"/>
      <point x="231" y="132" type="curve" smooth="yes"/>
      <point x="267" y="138"/>
      <point x="324" y="144"/>
      <point x="372" y="149" type="curve" smooth="yes"/>
      <point x="397" y="151"/>
      <point x="419" y="168"/>
      <point x="419" y="197" type="curve" smooth="yes"/>
      <point x="419" y="209"/>
      <point x="414" y="221"/>
      <point x="404" y="232" type="curve"/>
      <point x="394" y="231"/>
      <point x="382" y="229"/>
      <point x="366" y="227" type="curve" smooth="yes"/>
      <point x="336" y="222"/>
      <point x="301" y="216"/>
      <point x="269" y="207" type="curve" smooth="yes"/>
      <point x="259" y="205"/>
      <point x="250" y="203"/>
      <point x="242" y="200" type="curve"/>
      <point x="223" y="205"/>
      <point x="199" y="214"/>
      <point x="184" y="222" type="curve" smooth="yes"/>
      <point x="161" y="235"/>
      <point x="146" y="253"/>
      <point x="135" y="278" type="curve"/>
      <point x="163" y="315"/>
      <point x="209" y="342"/>
      <point x="248" y="342" type="curve" smooth="yes"/>
      <point x="260" y="342"/>
      <point x="281" y="338"/>
      <point x="289" y="330" type="curve"/>
      <point x="288" y="320"/>
      <point x="286" y="313"/>
      <point x="281" y="305" type="curve"/>
      <point x="292" y="300"/>
      <point x="298" y="297"/>
      <point x="311" y="293" type="curve"/>
      <point x="318" y="305"/>
      <point x="323" y="323"/>
      <point x="323" y="338" type="curve" smooth="yes"/>
      <point x="323" y="387"/>
      <point x="291" y="412"/>
      <point x="244" y="412" type="curve" smooth="yes"/>
      <point x="228" y="412"/>
      <point x="213" y="408"/>
      <point x="199" y="402" type="curve" smooth="yes"/>
      <point x="141" y="377"/>
      <point x="97" y="307"/>
      <point x="97" y="251" type="curve" smooth="yes"/>
      <point x="97" y="228"/>
      <point x="109" y="206"/>
      <point x="127" y="188" type="curve" smooth="yes"/>
      <point x="131" y="184"/>
      <point x="138" y="179"/>
      <point x="146" y="174" type="curve"/>
      <point x="106" y="160"/>
      <point x="79" y="150"/>
      <point x="54" y="140" type="curve"/>
    </contour>
  </outline>
</glyph>
<glyph name="uni0627" format="2">
  <advance width="238"/>
  <unicode hex="0627"/>
  <unicode hex="FE8D"/>
  <anchor x="131" y="83" name="bottom"/>
  <anchor x="122" y="825" name="top"/>
  <outline>
    <contour>
      <point x="104" y="135" type="curve"/>
      <point x="150" y="143" type="line"/>
      <point x="159" y="365"/>
      <point x="159" y="515"/>
      <point x="151" y="664" type="curve"/>
      <point x="178" y="687" type="line"/>
      <point x="162" y="734"/>
      <point x="148" y="780"/>
      <point x="143" y="806" type="curve"/>
      <point x="91" y="796"/>
      <point x="72" y="771"/>
      <point x="77" y="717" type="curve" smooth="yes"/>
      <point x="92" y="563"/>
      <point x="100" y="369"/>
    </contour>
  </outline>
</glyph>
<glyph name="uni062D" format="2">
  <advance width="636"/>
  <unicode hex="062D"/>
  <unicode hex="FEA1"/>
  <anchor x="77" y="-147" name="bottom"/>
  <anchor x="342" y="565" name="top"/>
  <outline>
    <contour>
      <point x="360" y="-152" type="curve" smooth="yes"/>
      <point x="438" y="-152"/>
      <point x="521" y="-129"/>
      <point x="619" y="-75" type="curve"/>
      <point x="607" y="-42" type="line"/>
      <point x="527" y="-60"/>
      <point x="445" y="-70"/>
      <point x="363" y="-70" type="curve" smooth="yes"/>
      <point x="210" y="-70"/>
      <point x="136" y="-12"/>
      <point x="136" y="93" type="curve" smooth="yes"/>
      <point x="136" y="159"/>
      <point x="178" y="222"/>
      <point x="251" y="273" type="curve" smooth="yes"/>
      <point x="324" y="324"/>
      <point x="429" y="361"/>
      <point x="512" y="367" type="curve"/>
      <point x="530" y="367"/>
      <point x="549" y="368"/>
      <point x="568" y="371" type="curve"/>
      <point x="597" y="448" type="line"/>
      <point x="531" y="446" type="line" smooth="yes"/>
      <point x="469" y="446"/>
      <point x="413" y="464"/>
      <point x="357" y="481" type="curve" smooth="yes"/>
      <point x="301" y="498"/>
      <point x="246" y="516"/>
      <point x="189" y="516" type="curve" smooth="yes"/>
      <point x="117" y="516"/>
      <point x="68" y="482"/>
      <point x="68" y="432" type="curve" smooth="yes"/>
      <point x="68" y="416"/>
      <point x="75" y="401"/>
      <point x="83" y="394" type="curve"/>
      <point x="131" y="424"/>
      <point x="152" y="432"/>
      <point x="192" y="432" type="curve" smooth="yes"/>
      <point x="235" y="432"/>
      <point x="309" y="405"/>
      <point x="333" y="396" type="curve"/>
      <point x="291" y="380"/>
      <point x="252" y="356"/>
      <point x="216" y="325" type="curve" smooth="yes"/>
      <point x="144" y="262"/>
      <point x="101" y="176"/>
      <point x="101" y="93" type="curve" smooth="yes"/>
      <point x="101" y="-66"/>
      <point x="195" y="-152"/>
    </contour>
  </outline>
</glyph>
<glyph name="uni062F" format="2">
  <advance width="414"/>
  <unicode hex="062F"/>
  <unicode hex="FEA9"/>
  <anchor x="214" y="83" name="bottom"/>
  <anchor x="219" y="582" name="top"/>
  <outline>
    <contour>
      <point x="156" y="135" type="curve" smooth="yes"/>
      <point x="228" y="135"/>
      <point x="288" y="148"/>
      <point x="336" y="174" type="curve"/>
      <point x="359" y="216"/>
      <point x="372" y="256"/>
      <point x="372" y="276" type="curve" smooth="yes"/>
      <point x="372" y="306"/>
      <point x="357" y="343"/>
      <point x="337" y="386" type="curve" smooth="yes"/>
      <point x="321" y="423"/>
      <point x="290" y="489"/>
      <point x="273" y="533" type="curve"/>
      <point x="238" y="522"/>
      <point x="221" y="500"/>
      <point x="221" y="467" type="curve" smooth="yes"/>
      <point x="221" y="434"/>
      <point x="229" y="419"/>
      <point x="282" y="323" type="curve" smooth="yes"/>
      <point x="299" y="292"/>
      <point x="313" y="261"/>
      <point x="324" y="232" type="curve"/>
      <point x="278" y="218"/>
      <point x="232" y="211"/>
      <point x="188" y="211" type="curve" smooth="yes"/>
      <point x="125" y="211"/>
      <point x="85" y="224"/>
      <point x="52" y="251" type="curve"/>
      <point x="40" y="238"/>
      <point x="34" y="220"/>
      <point x="34" y="198" type="curve" smooth="yes"/>
      <point x="34" y="158"/>
      <point x="75" y="135"/>
    </contour>
  </outline>
</glyph>
<glyph name="uni0631" format="2">
  <advance width="372"/>
  <unicode hex="0631"/>
  <unicode hex="FEAD"/>
  <anchor x="100" y="-118" name="bottom"/>
  <anchor x="182" y="525" name="top"/>
  <outline>
    <contour>
      <point x="97" y="-69" type="curve" smooth="yes"/>
      <point x="138" y="-69"/>
      <point x="176" y="-57"/>
      <point x="211" y="-32" type="curve" smooth="yes"/>
      <point x="279" y="17"/>
      <point x="321" y="112"/>
      <point x="321" y="216" type="curve" smooth="yes"/>
      <point x="321" y="253"/>
      <point x="307" y="300"/>
      <point x="290" y="347" type="curve" smooth="yes"/>
      <point x="276" y="386"/>
      <point x="253" y="444"/>
      <point x="245" y="476" type="curve"/>
      <point x="208" y="458"/>
      <point x="187" y="440"/>
      <point x="187" y="406" type="curve" smooth="yes"/>
      <point x="187" y="373"/>
      <point x="207" y="328"/>
      <point x="253" y="247" type="curve" smooth="yes"/>
      <point x="265" y="226"/>
      <point x="275" y="205"/>
      <point x="284" y="184" type="curve"/>
      <point x="246" y="70"/>
      <point x="174" y="9"/>
      <point x="74" y="9" type="curve" smooth="yes"/>
      <point x="47" y="9"/>
      <point x="16" y="13"/>
      <point x="-21" y="20" type="curve"/>
      <point x="-34" y="-13" type="line"/>
      <point x="-2" y="-38"/>
      <point x="65" y="-69"/>
    </contour>
  </outline>
</glyph>
<glyph name="uni0633" format="2">
  <advance width="1013"/>
  <unicode hex="0633"/>
  <unicode hex="FEB1"/>
  <anchor x="718" y="59" name="bottom"/>
  <anchor x="690" y="465" name="top"/>
  <outline>
    <contour>
      <point x="249" y="-127" type="curve" smooth="yes"/>
      <point x="297" y="-127"/>
      <point x="344" y="-115"/>
      <point x="389" y="-91" type="curve" smooth="yes"/>
      <point x="480" y="-44"/>
      <point x="535" y="36"/>
      <point x="535" y="118" type="curve" smooth="yes"/>
      <point x="535" y="137" type="line"/>
      <point x="547" y="136"/>
      <point x="559" y="135"/>
      <point x="571" y="135" type="curve" smooth="yes"/>
      <point x="605" y="135"/>
      <point x="634" y="137"/>
      <point x="658" y="142" type="curve" smooth="yes"/>
      <point x="683" y="147"/>
      <point x="698" y="153"/>
      <point x="703" y="162" type="curve" smooth="yes"/>
      <point x="712" y="178" type="line"/>
      <point x="784" y="145"/>
      <point x="838" y="135"/>
      <point x="924" y="135" type="curve"/>
      <point x="943" y="172"/>
      <point x="962" y="237"/>
      <point x="962" y="258" type="curve" smooth="yes"/>
      <point x="962" y="289"/>
      <point x="955" y="324"/>
      <point x="947" y="360" type="curve" smooth="yes"/>
      <point x="940" y="391"/>
      <point x="928" y="443"/>
      <point x="923" y="475" type="curve"/>
      <point x="882" y="452"/>
      <point x="857" y="420"/>
      <point x="857" y="391" type="curve" smooth="yes"/>
      <point x="857" y="381"/>
      <point x="864" y="358"/>
      <point x="877" y="323" type="curve" smooth="yes"/>
      <point x="895" y="278"/>
      <point x="907" y="241"/>
      <point x="915" y="214" type="curve"/>
      <point x="853" y="214"/>
      <point x="805" y="223"/>
      <point x="739" y="253" type="curve"/>
      <point x="758" y="318"/>
      <point x="773" y="360"/>
      <point x="782" y="380" type="curve"/>
      <point x="775" y="385"/>
      <point x="767" y="387"/>
      <point x="758" y="387" type="curve" smooth="yes"/>
      <point x="736" y="387"/>
      <point x="729" y="380"/>
      <point x="718" y="354" type="curve" smooth="yes"/>
      <point x="711" y="340"/>
      <point x="699" y="305"/>
      <point x="683" y="250" type="curve" smooth="yes"/>
      <point x="679" y="237"/>
      <point x="675" y="228"/>
      <point x="671" y="221" type="curve"/>
      <point x="649" y="215"/>
      <point x="620" y="211"/>
      <point x="583" y="211" type="curve" smooth="yes"/>
      <point x="563" y="211"/>
      <point x="543" y="214"/>
      <point x="523" y="220" type="curve"/>
      <point x="506" y="305"/>
      <point x="501" y="333"/>
      <point x="498" y="361" type="curve"/>
      <point x="450" y="332"/>
      <point x="433" y="306"/>
      <point x="433" y="272" type="curve" smooth="yes"/>
      <point x="433" y="240"/>
      <point x="454" y="176"/>
      <point x="498" y="81" type="curve"/>
      <point x="465" y="10"/>
      <point x="350" y="-44"/>
      <point x="251" y="-44" type="curve" smooth="yes"/>
      <point x="164" y="-44"/>
      <point x="113" y="13"/>
      <point x="113" y="111" type="curve" smooth="yes"/>
      <point x="113" y="129"/>
      <point x="117" y="153"/>
      <point x="124" y="182" type="curve"/>
      <point x="87" y="191" type="line"/>
      <point x="71" y="125"/>
      <point x="68" y="100"/>
      <point x="68" y="61" type="curve" smooth="yes"/>
      <point x="68" y="-59"/>
      <point x="135" y="-127"/>
    </contour>
  </outline>
</glyph>
<glyph name="uni0637" format="2">
  <advance width="769"/>
  <unicode hex="0637"/>
  <unicode hex="FEC1"/>
  <anchor x="392" y="83" name="bottom"/>
  <anchor x="531" y="570" name="top"/>
  <outline>
    <contour>
      <point x="396" y="135" type="curve" smooth="yes"/>
      <point x="454" y="135"/>
      <point x="509" y="144"/>
      <point x="561" y="163" type="curve" smooth="yes"/>
      <point x="666" y="200"/>
      <point x="718" y="264"/>
      <point x="718" y="346" type="curve" smooth="yes"/>
      <point x="718" y="365"/>
      <point x="707" y="386"/>
      <point x="686" y="410" type="curve" smooth="yes"/>
      <point x="642" y="458"/>
      <point x="579" y="492"/>
      <point x="542" y="492" type="curve" smooth="yes"/>
      <point x="476" y="492"/>
      <point x="396" y="442"/>
      <point x="302" y="342" type="curve"/>
      <point x="301" y="367"/>
      <point x="300" y="393"/>
      <point x="298" y="421" type="curve" smooth="yes"/>
      <point x="295" y="456"/>
      <point x="279" y="601"/>
      <point x="272" y="664" type="curve"/>
      <point x="299" y="687" type="line"/>
      <point x="281" y="743"/>
      <point x="271" y="774"/>
      <point x="264" y="806" type="curve"/>
      <point x="217" y="797"/>
      <point x="197" y="772"/>
      <point x="197" y="727" type="curve" smooth="yes"/>
      <point x="197" y="675"/>
      <point x="219" y="531"/>
      <point x="262" y="297" type="curve"/>
      <point x="243" y="274"/>
      <point x="224" y="250"/>
      <point x="204" y="225" type="curve"/>
      <point x="152" y="233"/>
      <point x="102" y="244"/>
      <point x="53" y="256" type="curve"/>
      <point x="42" y="221" type="line"/>
      <point x="82" y="193"/>
      <point x="157" y="154"/>
      <point x="192" y="147" type="curve" smooth="yes"/>
      <point x="226" y="141"/>
      <point x="315" y="135"/>
    </contour>
    <contour>
      <point x="406" y="211" type="curve" smooth="yes"/>
      <point x="356" y="211"/>
      <point x="306" y="213"/>
      <point x="255" y="218" type="curve"/>
      <point x="354" y="338"/>
      <point x="451" y="408"/>
      <point x="517" y="408" type="curve" smooth="yes"/>
      <point x="572" y="408"/>
      <point x="633" y="367"/>
      <point x="673" y="297" type="curve"/>
      <point x="582" y="240"/>
      <point x="493" y="211"/>
    </contour>
  </outline>
</glyph>
<glyph name="uni0639" format="2">
  <advance width="604"/>
  <unicode hex="0639"/>
  <unicode hex="FEC9"/>
  <anchor x="85" y="-164" name="bottom"/>
  <anchor x="224" y="648" name="top"/>
  <outline>
    <contour>
      <point x="372" y="-151" type="curve" smooth="yes"/>
      <point x="451" y="-151"/>
      <point x="537" y="-125"/>
      <point x="629" y="-74" type="curve"/>
      <point x="618" y="-40" type="line"/>
      <point x="567" y="-52"/>
      <point x="520" y="-60"/>
      <point x="468" y="-64" type="curve" smooth="yes"/>
      <point x="439" y="-67"/>
      <point x="408" y="-68"/>
      <point x="375" y="-68" type="curve" smooth="yes"/>
      <point x="227" y="-68"/>
      <point x="150" y="-14"/>
      <point x="150" y="81" type="curve" smooth="yes"/>
      <point x="150" y="110"/>
      <point x="159" y="137"/>
      <point x="175" y="164" type="curve" smooth="yes"/>
      <point x="205" y="211"/>
      <point x="260" y="252"/>
      <point x="360" y="295" type="curve" smooth="yes"/>
      <point x="395" y="308"/>
      <point x="425" y="321"/>
      <point x="444" y="335" type="curve" smooth="yes"/>
      <point x="464" y="349"/>
      <point x="471" y="364"/>
      <point x="471" y="381" type="curve" smooth="yes"/>
      <point x="471" y="392"/>
      <point x="467" y="402"/>
      <point x="460" y="412" type="curve"/>
      <point x="392" y="390"/>
      <point x="334" y="364"/>
      <point x="285" y="334" type="curve"/>
      <point x="187" y="350"/>
      <point x="130" y="404"/>
      <point x="130" y="483" type="curve"/>
      <point x="174" y="507"/>
      <point x="217" y="519"/>
      <point x="258" y="519" type="curve" smooth="yes"/>
      <point x="282" y="519"/>
      <point x="313" y="513"/>
      <point x="353" y="501" type="curve"/>
      <point x="370" y="533" type="line"/>
      <point x="311" y="581"/>
      <point x="280" y="599"/>
      <point x="233" y="599" type="curve" smooth="yes"/>
      <point x="206" y="599"/>
      <point x="180" y="590"/>
      <point x="156" y="570" type="curve" smooth="yes"/>
      <point x="106" y="532"/>
      <point x="73" y="463"/>
      <point x="73" y="406" type="curve" smooth="yes"/>
      <point x="73" y="384"/>
      <point x="78" y="364"/>
      <point x="90" y="345" type="curve" smooth="yes"/>
      <point x="113" y="307"/>
      <point x="154" y="276"/>
      <point x="195" y="264" type="curve"/>
      <point x="141" y="206"/>
      <point x="114" y="140"/>
      <point x="114" y="65" type="curve" smooth="yes"/>
      <point x="114" y="-66"/>
      <point x="216" y="-151"/>
    </contour>
  </outline>
</glyph>
<glyph name="uni0640" format="2">
  <advance width="210"/>
  <unicode hex="0640"/>
  <anchor x="99" y="-9" name="bottom"/>
  <anchor x="99" y="587" name="top"/>
  <outline>
    <contour>
      <point x="0" y="135" type="curve" smooth="yes"/>
      <point x="210" y="135" type="line" smooth="yes"/>
      <point x="216" y="135"/>
      <point x="219" y="138"/>
      <point x="219" y="143" type="curve" smooth="yes"/>
      <point x="219" y="203" type="line" smooth="yes"/>
      <point x="219" y="208"/>
      <point x="216" y="211"/>
      <point x="210" y="211" type="curve" smooth="yes"/>
      <point x="0" y="211" type="line" smooth="yes"/>
      <point x="-6" y="211"/>
      <point x="-8" y="208"/>
      <point x="-8" y="203" type="curve" smooth="yes"/>
      <point x="-8" y="143" type="line" smooth="yes"/>
      <point x="-8" y="138"/>
      <point x="-6" y="135"/>
    </contour>
  </outline>
</glyph>
<glyph name="uni0643" format="2">
  <advance width="558"/>
  <unicode hex="0643"/>
  <unicode hex="FED9"/>
  <anchor x="262" y="83" name="bottom"/>
  <anchor x="231" y="553" name="top"/>
  <outline>
    <contour>
      <point x="226" y="135" type="curve" smooth="yes"/>
      <point x="309" y="135"/>
      <point x="388" y="141"/>
      <point x="462" y="152" type="curve"/>
      <point x="483" y="179"/>
      <point x="498" y="206"/>
      <point x="498" y="243" type="curve" smooth="yes"/>
      <point x="498" y="282"/>
      <point x="485" y="422"/>
      <point x="459" y="665" type="curve"/>
      <point x="485" y="687" type="line"/>
      <point x="473" y="727"/>
      <point x="456" y="781"/>
      <point x="450" y="806" type="curve"/>
      <point x="402" y="795"/>
      <point x="384" y="771"/>
      <point x="384" y="727" type="curve" smooth="yes"/>
      <point x="384" y="687"/>
      <point x="402" y="554"/>
      <point x="419" y="468" type="curve" smooth="yes"/>
      <point x="433" y="389"/>
      <point x="447" y="310"/>
      <point x="460" y="231" type="curve"/>
      <point x="388" y="218"/>
      <point x="316" y="211"/>
      <point x="245" y="211" type="curve" smooth="yes"/>
      <point x="173" y="211"/>
      <point x="85" y="220"/>
      <point x="33" y="232" type="curve"/>
      <point x="25" y="219"/>
      <point x="17" y="178"/>
      <point x="17" y="155" type="curve" smooth="yes"/>
      <point x="17" y="149"/>
      <point x="41" y="145"/>
      <point x="90" y="141" type="curve" smooth="yes"/>
      <point x="138" y="137"/>
      <point x="184" y="135"/>
    </contour>
    <contour>
      <point x="180" y="329" type="curve" smooth="yes"/>
      <point x="228" y="329"/>
      <point x="296" y="382"/>
      <point x="296" y="409" type="curve" smooth="yes"/>
      <point x="296" y="417"/>
      <point x="294" y="423"/>
      <point x="287" y="428" type="curve" smooth="yes"/>
      <point x="270" y="440"/>
      <point x="227" y="439"/>
      <point x="205" y="450" type="curve"/>
      <point x="209" y="471"/>
      <point x="240" y="499"/>
      <point x="256" y="499" type="curve" smooth="yes"/>
      <point x="261" y="499"/>
      <point x="265" y="497"/>
      <point x="268" y="494" type="curve"/>
      <point x="284" y="501" type="line"/>
      <point x="279" y="519"/>
      <point x="268" y="529"/>
      <point x="250" y="529" type="curve" smooth="yes"/>
      <point x="213" y="529"/>
      <point x="172" y="483"/>
      <point x="172" y="451" type="curve" smooth="yes"/>
      <point x="172" y="411"/>
      <point x="208" y="404"/>
      <point x="271" y="403" type="curve"/>
      <point x="267" y="395"/>
      <point x="259" y="388"/>
      <point x="249" y="381" type="curve" smooth="yes"/>
      <point x="226" y="365"/>
      <point x="192" y="352"/>
      <point x="157" y="349" type="curve"/>
      <point x="157" y="338"/>
      <point x="163" y="329"/>
    </contour>
  </outline>
</glyph>
<glyph name="uni0644" format="2">
  <advance width="595"/>
  <unicode hex="0644"/>
  <unicode hex="FEDD"/>
  <anchor x="37" y="-128" name="bottom"/>
  <anchor x="399" y="826" name="top"/>
  <outline>
    <contour>
      <point x="249" y="-127" type="curve" smooth="yes"/>
      <point x="297" y="-127"/>
      <point x="343" y="-115"/>
      <point x="388" y="-91" type="curve" smooth="yes"/>
      <point x="478" y="-44"/>
      <point x="533" y="36"/>
      <point x="533" y="118" type="curve" smooth="yes"/>
      <point x="533" y="177"/>
      <point x="526" y="255"/>
      <point x="513" y="355" type="curve" smooth="yes"/>
      <point x="479" y="667" type="line"/>
      <point x="502" y="687" type="line"/>
      <point x="490" y="726"/>
      <point x="475" y="776"/>
      <point x="466" y="806" type="curve"/>
      <point x="421" y="796"/>
      <point x="401" y="773"/>
      <point x="401" y="728" type="curve" smooth="yes"/>
      <point x="401" y="662"/>
      <point x="442" y="413"/>
      <point x="470" y="242" type="curve" smooth="yes"/>
      <point x="496" y="81" type="line"/>
      <point x="485" y="58"/>
      <point x="466" y="37"/>
      <point x="440" y="18" type="curve" smooth="yes"/>
      <point x="388" y="-21"/>
      <point x="315" y="-44"/>
      <point x="251" y="-44" type="curve" smooth="yes"/>
      <point x="164" y="-44"/>
      <point x="113" y="13"/>
      <point x="113" y="111" type="curve" smooth="yes"/>
      <point x="113" y="129"/>
      <point x="117" y="153"/>
      <point x="124" y="182" type="curve"/>
      <point x="87" y="191" type="line"/>
      <point x="71" y="125"/>
      <point x="68" y="100"/>
      <point x="68" y="61" type="curve" smooth="yes"/>
      <point x="68" y="-59"/>
      <point x="135" y="-127"/>
    </contour>
  </outline>
</glyph>
<glyph name="uni0645" format="2">
  <advance width="489"/>
  <unicode hex="0645"/>
  <unicode hex="FEE1"/>
  <anchor x="293" y="85" name="bottom"/>
  <anchor x="222" y="533" name="top"/>
  <outline>
    <contour>
      <point x="87" y="-170" type="curve"/>
      <point x="113" y="-160"/>
      <point x="135" y="-147"/>
      <point x="154" y="-133" type="curve"/>
      <point x="148" y="-84"/>
      <point x="139" y="-27"/>
      <point x="126" y="38" type="curve" smooth="yes"/>
      <point x="119" y="77"/>
      <point x="113" y="115"/>
      <point x="106" y="155" type="curve"/>
      <point x="180" y="180"/>
      <point x="271" y="193"/>
      <point x="412" y="193" type="curve"/>
      <point x="450" y="295" type="line"/>
      <point x="415" y="321"/>
      <point x="382" y="359"/>
      <point x="339" y="419" type="curve" smooth="yes"/>
      <point x="305" y="464"/>
      <point x="278" y="484"/>
      <point x="248" y="484" type="curve" smooth="yes"/>
      <point x="192" y="484"/>
      <point x="139" y="433"/>
      <point x="104" y="343" type="curve"/>
      <point x="136" y="327" type="line"/>
      <point x="170" y="380"/>
      <point x="197" y="401"/>
      <point x="229" y="401" type="curve" smooth="yes"/>
      <point x="259" y="401"/>
      <point x="295" y="366"/>
      <point x="337" y="297" type="curve"/>
      <point x="358" y="266" type="line"/>
      <point x="241" y="266"/>
      <point x="173" y="255"/>
      <point x="100" y="233" type="curve"/>
      <point x="83" y="198"/>
      <point x="68" y="165"/>
      <point x="68" y="140" type="curve" smooth="yes"/>
      <point x="68" y="125"/>
      <point x="71" y="84"/>
      <point x="77" y="17" type="curve" smooth="yes"/>
      <point x="83" y="-56"/>
      <point x="87" y="-119"/>
    </contour>
  </outline>
</glyph>
<glyph name="uni0647" format="2">
  <advance width="408"/>
  <unicode hex="0647"/>
  <unicode hex="FEE9"/>
  <anchor x="215" y="83" name="bottom"/>
  <anchor x="169" y="592" name="top"/>
  <outline>
    <contour>
      <point x="190" y="135" type="curve" smooth="yes"/>
      <point x="228" y="135"/>
      <point x="261" y="144"/>
      <point x="289" y="163" type="curve" smooth="yes"/>
      <point x="317" y="182"/>
      <point x="357" y="271"/>
      <point x="357" y="311" type="curve" smooth="yes"/>
      <point x="357" y="338"/>
      <point x="347" y="369"/>
      <point x="328" y="402" type="curve" smooth="yes"/>
      <point x="289" y="470"/>
      <point x="228" y="522"/>
      <point x="168" y="543" type="curve"/>
      <point x="153" y="537"/>
      <point x="142" y="516"/>
      <point x="142" y="495" type="curve" smooth="yes"/>
      <point x="142" y="480"/>
      <point x="146" y="463"/>
      <point x="167" y="451" type="curve"/>
      <point x="98" y="386"/>
      <point x="68" y="323"/>
      <point x="68" y="261" type="curve" smooth="yes"/>
      <point x="68" y="181"/>
      <point x="116" y="135"/>
    </contour>
    <contour>
      <point x="201" y="215" type="curve" smooth="yes"/>
      <point x="146" y="215"/>
      <point x="114" y="243"/>
      <point x="114" y="290" type="curve" smooth="yes"/>
      <point x="114" y="329"/>
      <point x="145" y="383"/>
      <point x="195" y="429" type="curve"/>
      <point x="256" y="382"/>
      <point x="294" y="325"/>
      <point x="308" y="259" type="curve"/>
      <point x="286" y="239"/>
      <point x="237" y="215"/>
    </contour>
  </outline>
</glyph>
<glyph name="uni0648" format="2">
  <advance width="468"/>
  <unicode hex="0648"/>
  <unicode hex="FEED"/>
  <anchor x="193" y="-117" name="bottom"/>
  <anchor x="256" y="524" name="top"/>
  <outline>
    <contour>
      <point x="193" y="-68" type="curve" smooth="yes"/>
      <point x="232" y="-68"/>
      <point x="269" y="-55"/>
      <point x="303" y="-30" type="curve" smooth="yes"/>
      <point x="371" y="21"/>
      <point x="417" y="121"/>
      <point x="417" y="216" type="curve" smooth="yes"/>
      <point x="417" y="257"/>
      <point x="410" y="299"/>
      <point x="394" y="342" type="curve" smooth="yes"/>
      <point x="363" y="427"/>
      <point x="313" y="475"/>
      <point x="261" y="475" type="curve" smooth="yes"/>
      <point x="239" y="475"/>
      <point x="216" y="465"/>
      <point x="194" y="445" type="curve" smooth="yes"/>
      <point x="150" y="404"/>
      <point x="120" y="332"/>
      <point x="120" y="264" type="curve" smooth="yes"/>
      <point x="120" y="186"/>
      <point x="168" y="135"/>
      <point x="245" y="135" type="curve" smooth="yes"/>
      <point x="292" y="135"/>
      <point x="340" y="155"/>
      <point x="379" y="192" type="curve"/>
      <point x="380" y="184" type="line"/>
      <point x="343" y="70"/>
      <point x="270" y="10"/>
      <point x="170" y="10" type="curve" smooth="yes"/>
      <point x="125" y="10"/>
      <point x="84" y="16"/>
      <point x="48" y="29" type="curve"/>
      <point x="34" y="-4" type="line"/>
      <point x="70" y="-35"/>
      <point x="150" y="-68"/>
    </contour>
    <contour>
      <point x="269" y="217" type="curve" smooth="yes"/>
      <point x="198" y="217"/>
      <point x="158" y="244"/>
      <point x="158" y="292" type="curve" smooth="yes"/>
      <point x="158" y="305"/>
      <point x="163" y="320"/>
      <point x="171" y="335" type="curve" smooth="yes"/>
      <point x="189" y="367"/>
      <point x="218" y="390"/>
      <point x="246" y="390" type="curve" smooth="yes"/>
      <point x="260" y="390"/>
      <point x="274" y="385"/>
      <point x="288" y="375" type="curve" smooth="yes"/>
      <point x="322" y="352"/>
      <point x="354" y="302"/>
      <point x="370" y="239" type="curve"/>
      <point x="323" y="220"/>
      <point x="302" y="217"/>
    </contour>
  </outline>
</glyph>
<glyph name="uni0649" format="2">
  <advance width="618"/>
  <unicode hex="0649"/>
  <unicode hex="FEEF"/>
  <anchor x="253" y="-226" name="bottom"/>
  <anchor x="205" y="376" name="top"/>
  <outline>
    <contour>
      <point x="249" y="-127" type="curve" smooth="yes"/>
      <point x="293" y="-127"/>
      <point x="342" y="-116"/>
      <point x="394" y="-94" type="curve" smooth="yes"/>
      <point x="499" y="-50"/>
      <point x="583" y="27"/>
      <point x="583" y="88" type="curve" smooth="yes"/>
      <point x="583" y="119"/>
      <point x="575" y="140"/>
      <point x="553" y="156" type="curve" smooth="yes"/>
      <point x="533" y="169"/>
      <point x="500" y="177"/>
      <point x="452" y="184" type="curve" smooth="yes"/>
      <point x="398" y="192"/>
      <point x="361" y="204"/>
      <point x="342" y="222" type="curve"/>
      <point x="347" y="247"/>
      <point x="360" y="272"/>
      <point x="380" y="299" type="curve" smooth="yes"/>
      <point x="421" y="351"/>
      <point x="481" y="393"/>
      <point x="516" y="393" type="curve" smooth="yes"/>
      <point x="532" y="393"/>
      <point x="539" y="391"/>
      <point x="548" y="378" type="curve"/>
      <point x="584" y="388" type="line"/>
      <point x="572" y="442"/>
      <point x="552" y="475"/>
      <point x="507" y="475" type="curve" smooth="yes"/>
      <point x="481" y="475"/>
      <point x="452" y="461"/>
      <point x="419" y="432" type="curve" smooth="yes"/>
      <point x="354" y="375"/>
      <point x="306" y="287"/>
      <point x="306" y="226" type="curve" smooth="yes"/>
      <point x="306" y="196"/>
      <point x="312" y="172"/>
      <point x="325" y="153" type="curve" smooth="yes"/>
      <point x="351" y="115"/>
      <point x="394" y="102"/>
      <point x="495" y="94" type="curve" smooth="yes"/>
      <point x="513" y="92"/>
      <point x="530" y="90"/>
      <point x="547" y="87" type="curve"/>
      <point x="537" y="65"/>
      <point x="516" y="44"/>
      <point x="484" y="24" type="curve" smooth="yes"/>
      <point x="421" y="-16"/>
      <point x="322" y="-44"/>
      <point x="251" y="-44" type="curve" smooth="yes"/>
      <point x="164" y="-44"/>
      <point x="113" y="13"/>
      <point x="113" y="111" type="curve" smooth="yes"/>
      <point x="113" y="129"/>
      <point x="117" y="153"/>
      <point x="124" y="182" type="curve"/>
      <point x="87" y="191" type="line"/>
      <point x="71" y="125"/>
      <point x="68" y="100"/>
      <point x="68" y="61" type="curve" smooth="yes"/>
      <point x="68" y="-59"/>
      <point x="135" y="-127"/>
    </contour>
  </outline>
</glyph>
<glyph name="uni064B" format="2">
  <unicode hex="064B"/>
  <anchor x="85" y="585" name="_top"/>
  <anchor x="85" y="585" name="_top2"/>
  <anchor x="85" y="585" name="_top3"/>
  <anchor x="63" y="777" name="top3"/>
  <outline>
    <contour>
      <point x="-11" y="584" type="line"/>
      <point x="56" y="605"/>
      <point x="109" y="624"/>
      <point x="148" y="642" type="curve" smooth="yes"/>
      <point x="163" y="649"/>
      <point x="171" y="661"/>
      <point x="171" y="678" type="curve"/>
      <point x="170" y="688" type="line"/>
      <point x="100" y="661"/>
      <point x="41" y="641"/>
      <point x="-7" y="627" type="curve"/>
    </contour>
    <contour>
      <point x="-21" y="656" type="line"/>
      <point x="43" y="674"/>
      <point x="96" y="691"/>
      <point x="137" y="709" type="curve" smooth="yes"/>
      <point x="152" y="716"/>
      <point x="159" y="728"/>
      <point x="159" y="746" type="curve"/>
      <point x="158" y="757" type="line"/>
      <point x="99" y="734"/>
      <point x="40" y="713"/>
      <point x="-18" y="696" type="curve"/>
    </contour>
  </outline>
</glyph>
<glyph name="uni064C" format="2">
  <unicode hex="064C"/>
  <anchor x="90" y="571" name="_top"/>
  <anchor x="90" y="571" name="_top2"/>
  <anchor x="90" y="571" name="_top3"/>
  <anchor x="77" y="765" name="top3"/>
  <outline>
    <contour>
      <point x="17" y="571" type="curve" smooth="yes"/>
      <point x="35" y="571"/>
      <point x="80" y="597"/>
      <point x="106" y="623" type="curve"/>
      <point x="120" y="622" type="line" smooth="yes"/>
      <point x="147" y="622"/>
      <point x="159" y="629"/>
      <point x="160" y="650" type="curve"/>
      <point x="150" y="650"/>
      <point x="140" y="650"/>
      <point x="129" y="652" type="curve"/>
      <point x="132" y="657"/>
      <point x="133" y="666"/>
      <point x="133" y="677" type="curve" smooth="yes"/>
      <point x="133" y="700"/>
      <point x="130" y="716"/>
      <point x="123" y="726" type="curve" smooth="yes"/>
      <point x="115" y="736"/>
      <point x="108" y="741"/>
      <point x="99" y="741" type="curve" smooth="yes"/>
      <point x="72" y="741"/>
      <point x="41" y="710"/>
      <point x="41" y="680" type="curve" smooth="yes"/>
      <point x="41" y="660"/>
      <point x="52" y="646"/>
      <point x="78" y="632" type="curve"/>
      <point x="62" y="620"/>
      <point x="42" y="611"/>
      <point x="18" y="605" type="curve"/>
      <point x="21" y="614"/>
      <point x="22" y="623"/>
      <point x="22" y="631" type="curve" smooth="yes"/>
      <point x="22" y="655"/>
      <point x="13" y="667"/>
      <point x="-4" y="667" type="curve" smooth="yes"/>
      <point x="-18" y="667"/>
      <point x="-35" y="654"/>
      <point x="-55" y="628" type="curve"/>
      <point x="-47" y="618" type="line"/>
      <point x="-29" y="627"/>
      <point x="-18" y="631"/>
      <point x="-14" y="631" type="curve" smooth="yes"/>
      <point x="-7" y="631"/>
      <point x="-4" y="626"/>
      <point x="-4" y="616" type="curve"/>
      <point x="-8" y="590" type="line"/>
      <point x="-8" y="587"/>
      <point x="13" y="571"/>
    </contour>
    <contour>
      <point x="104" y="657" type="line"/>
      <point x="78" y="667"/>
      <point x="65" y="679"/>
      <point x="65" y="694" type="curve" smooth="yes"/>
      <point x="65" y="700"/>
      <point x="75" y="710"/>
      <point x="87" y="710" type="curve" smooth="yes"/>
      <point x="102" y="710"/>
      <point x="108" y="693"/>
      <point x="108" y="675" type="curve" smooth="yes"/>
      <point x="108" y="671"/>
      <point x="108" y="667"/>
      <point x="106" y="662" type="curve" smooth="yes"/>
    </contour>
  </outline>
</glyph>
<glyph name="uni064D" format="2">
  <unicode hex="064D"/>
  <anchor x="79" y="141" name="_bottom"/>
  <anchor x="79" y="141" name="_bottom2"/>
  <anchor x="79" y="141" name="_bottom3"/>
  <anchor x="102" y="1" name="bottom3"/>
  <outline>
    <contour>
      <point x="0" y="53" type="line"/>
      <point x="79" y="78"/>
      <point x="114" y="90"/>
      <point x="132" y="98" type="curve" smooth="yes"/>
      <point x="163" y="110"/>
      <point x="175" y="115"/>
      <point x="175" y="137" type="curve" smooth="yes"/>
      <point x="174" y="143" type="line"/>
      <point x="124" y="123"/>
      <point x="66" y="104"/>
      <point x="3" y="86" type="curve"/>
    </contour>
    <contour>
      <point x="7" y="1" type="line"/>
      <point x="64" y="18"/>
      <point x="91" y="27"/>
      <point x="121" y="38" type="curve" smooth="yes"/>
      <point x="163" y="53"/>
      <point x="182" y="59"/>
      <point x="182" y="85" type="curve" smooth="yes"/>
      <point x="182" y="91" type="line"/>
      <point x="131" y="71"/>
      <point x="74" y="52"/>
      <point x="10" y="34" type="curve"/>
    </contour>
  </outline>
</glyph>
<glyph name="uni064E" format="2">
  <unicode hex="064E"/>
  <anchor x="90" y="587" name="_top"/>
  <anchor x="90" y="587" name="_top2"/>
  <anchor x="90" y="587" name="_top3"/>
  <anchor x="77" y="711" name="top3"/>
  <outline>
    <contour>
      <point x="-11" y="587" type="line"/>
      <point x="59" y="608"/>
      <point x="112" y="628"/>
      <point x="148" y="645" type="curve" smooth="yes"/>
      <point x="164" y="652"/>
      <point x="171" y="664"/>
      <point x="171" y="680" type="curve"/>
      <point x="170" y="691" type="line"/>
      <point x="137" y="678"/>
      <point x="78" y="658"/>
      <point x="-6" y="630" type="curve"/>
    </contour>
  </outline>
</glyph>
<glyph name="uni064F" format="2">
  <unicode hex="064F"/>
  <anchor x="74" y="569" name="_top"/>
  <anchor x="74" y="569" name="_top2"/>
  <anchor x="74" y="569" name="_top3"/>
  <anchor x="58" y="765" name="top3"/>
  <outline>
    <contour>
      <point x="0" y="569" type="curve" smooth="yes"/>
      <point x="25" y="569"/>
      <point x="61" y="589"/>
      <point x="95" y="623" type="curve"/>
      <point x="107" y="622" type="line"/>
      <point x="134" y="622"/>
      <point x="146" y="629"/>
      <point x="147" y="650" type="curve"/>
      <point x="116" y="652" type="line"/>
      <point x="119" y="660"/>
      <point x="121" y="668"/>
      <point x="121" y="677" type="curve" smooth="yes"/>
      <point x="121" y="701"/>
      <point x="116" y="719"/>
      <point x="107" y="730" type="curve" smooth="yes"/>
      <point x="102" y="737"/>
      <point x="95" y="741"/>
      <point x="86" y="741" type="curve" smooth="yes"/>
      <point x="60" y="741"/>
      <point x="28" y="711"/>
      <point x="28" y="679" type="curve" smooth="yes"/>
      <point x="28" y="659"/>
      <point x="41" y="643"/>
      <point x="65" y="632" type="curve"/>
      <point x="37" y="613"/>
      <point x="6" y="601"/>
      <point x="-28" y="594" type="curve"/>
      <point x="-28" y="578"/>
      <point x="-17" y="569"/>
    </contour>
    <contour>
      <point x="91" y="657" type="line"/>
      <point x="65" y="667"/>
      <point x="52" y="679"/>
      <point x="52" y="694" type="curve" smooth="yes"/>
      <point x="52" y="700"/>
      <point x="62" y="709"/>
      <point x="74" y="709" type="curve" smooth="yes"/>
      <point x="89" y="709"/>
      <point x="96" y="693"/>
      <point x="96" y="675" type="curve" smooth="yes"/>
      <point x="96" y="671"/>
      <point x="95" y="667"/>
      <point x="93" y="662" type="curve" smooth="yes"/>
    </contour>
  </outline>
</glyph>
<glyph name="uni0650" format="2">
  <unicode hex="0650"/>
  <anchor x="70" y="129" name="_bottom"/>
  <anchor x="70" y="129" name="_bottom2"/>
  <anchor x="70" y="129" name="_bottom3"/>
  <anchor x="86" y="26" name="bottom3"/>
  <outline>
    <contour>
      <point x="-11" y="26" type="line"/>
      <point x="59" y="47"/>
      <point x="112" y="67"/>
      <point x="148" y="84" type="curve" smooth="yes"/>
      <point x="164" y="91"/>
      <point x="171" y="103"/>
      <point x="171" y="120" type="curve"/>
      <point x="170" y="130" type="line"/>
      <point x="137" y="117"/>
      <point x="78" y="97"/>
      <point x="-6" y="69" type="curve"/>
    </contour>
  </outline>
</glyph>
<glyph name="uni0651" format="2">
  <unicode hex="0651"/>
  <anchor x="69" y="573" name="_top"/>
  <anchor x="69" y="573" name="_top2"/>
  <anchor x="69" y="573" name="_top3"/>
  <anchor x="54" y="728" name="top3"/>
  <outline>
    <contour>
      <point x="24" y="583" type="curve" smooth="yes"/>
      <point x="42" y="583"/>
      <point x="59" y="595"/>
      <point x="68" y="617" type="curve"/>
      <point x="76" y="608"/>
      <point x="86" y="603"/>
      <point x="100" y="603" type="curve" smooth="yes"/>
      <point x="126" y="603"/>
      <point x="148" y="628"/>
      <point x="148" y="659" type="curve" smooth="yes"/>
      <point x="148" y="669"/>
      <point x="144" y="695"/>
      <point x="132" y="718" type="curve"/>
      <point x="120" y="715"/>
      <point x="108" y="702"/>
      <point x="108" y="691" type="curve"/>
      <point x="110" y="683" type="line"/>
      <point x="118" y="665"/>
      <point x="123" y="653"/>
      <point x="124" y="647" type="curve"/>
      <point x="122" y="642"/>
      <point x="114" y="636"/>
      <point x="106" y="636" type="curve" smooth="yes"/>
      <point x="85" y="636"/>
      <point x="75" y="647"/>
      <point x="69" y="688" type="curve"/>
      <point x="48" y="675" type="line"/>
      <point x="50" y="644" type="line" smooth="yes"/>
      <point x="50" y="627"/>
      <point x="40" y="616"/>
      <point x="26" y="616" type="curve" smooth="yes"/>
      <point x="12" y="616"/>
      <point x="5" y="625"/>
      <point x="5" y="641" type="curve" smooth="yes"/>
      <point x="5" y="650"/>
      <point x="6" y="658"/>
      <point x="8" y="665" type="curve"/>
      <point x="-5" y="668" type="line"/>
      <point x="-13" y="653"/>
      <point x="-17" y="639"/>
      <point x="-17" y="627" type="curve" smooth="yes"/>
      <point x="-17" y="598"/>
      <point x="0" y="583"/>
    </contour>
  </outline>
</glyph>
<glyph name="uni0652" format="2">
  <unicode hex="0652"/>
  <anchor x="66" y="584" name="_top"/>
  <anchor x="66" y="584" name="_top2"/>
  <anchor x="66" y="584" name="_top3"/>
  <anchor x="66" y="731" name="top3"/>
  <outline>
    <contour>
      <point x="65" y="594" type="curve" smooth="yes"/>
      <point x="92" y="594"/>
      <point x="118" y="619"/>
      <point x="118" y="650" type="curve" smooth="yes"/>
      <point x="118" y="688"/>
      <point x="93" y="716"/>
      <point x="66" y="716" type="curve" smooth="yes"/>
      <point x="40" y="716"/>
      <point x="16" y="688"/>
      <point x="16" y="651" type="curve" smooth="yes"/>
      <point x="16" y="618"/>
      <point x="36" y="594"/>
    </contour>
    <contour>
      <point x="66" y="630" type="curve" smooth="yes"/>
      <point x="48" y="630"/>
      <point x="36" y="640"/>
      <point x="36" y="656" type="curve" smooth="yes"/>
      <point x="36" y="672"/>
      <point x="50" y="680"/>
      <point x="61" y="680" type="curve" smooth="yes"/>
      <point x="79" y="680"/>
      <point x="98" y="662"/>
      <point x="98" y="650" type="curve" smooth="yes"/>
      <point x="98" y="641"/>
      <point x="82" y="630"/>
    </contour>
  </outline>
</glyph>
<glyph name="uni0653" format="2">
  <unicode hex="0653"/>
  <anchor x="67" y="687" name="_top"/>
  <anchor x="67" y="687" name="_top2"/>
  <anchor x="67" y="687" name="_top3"/>
  <anchor x="68" y="783" name="top3"/>
  <outline>
    <contour>
      <point x="-56" y="695" type="line"/>
      <point x="-8" y="718" type="line"/>
      <point x="30" y="704"/>
      <point x="64" y="697"/>
      <point x="95" y="697" type="curve" smooth="yes"/>
      <point x="119" y="697"/>
      <point x="160" y="716"/>
      <point x="187" y="743" type="curve"/>
      <point x="179" y="765" type="line"/>
      <point x="160" y="756"/>
      <point x="121" y="747"/>
      <point x="99" y="747" type="curve" smooth="yes"/>
      <point x="82" y="747"/>
      <point x="54" y="752"/>
      <point x="15" y="761" type="curve"/>
      <point x="-2" y="763" type="line"/>
      <point x="-7" y="763"/>
      <point x="-29" y="747"/>
      <point x="-68" y="716" type="curve"/>
    </contour>
  </outline>
</glyph>
<glyph name="uni0654" format="2">
  <unicode hex="0654"/>
  <anchor x="66" y="651" name="_top"/>
  <anchor x="66" y="651" name="_top2"/>
  <anchor x="66" y="651" name="_top3"/>
  <anchor x="57" y="841" name="top3"/>
  <outline>
    <contour>
      <point x="-4" y="637" type="line"/>
      <point x="34" y="658"/>
      <point x="64" y="671"/>
      <point x="119" y="685" type="curve"/>
      <point x="121" y="723" type="line"/>
      <point x="100" y="719"/>
      <point x="84" y="717"/>
      <point x="72" y="717" type="curve" smooth="yes"/>
      <point x="51" y="717"/>
      <point x="35" y="724"/>
      <point x="24" y="737" type="curve"/>
      <point x="32" y="757"/>
      <point x="50" y="775"/>
      <point x="71" y="775" type="curve" smooth="yes"/>
      <point x="78" y="775"/>
      <point x="84" y="768"/>
      <point x="84" y="762" type="curve" smooth="yes"/>
      <point x="83" y="758" type="line"/>
      <point x="102" y="753" type="line"/>
      <point x="107" y="762"/>
      <point x="109" y="771"/>
      <point x="109" y="780" type="curve" smooth="yes"/>
      <point x="109" y="804"/>
      <point x="96" y="817"/>
      <point x="70" y="817" type="curve" smooth="yes"/>
      <point x="35" y="817"/>
      <point x="-4" y="776"/>
      <point x="-4" y="738" type="curve" smooth="yes"/>
      <point x="-4" y="716"/>
      <point x="8" y="702"/>
      <point x="33" y="698" type="curve"/>
      <point x="-7" y="676" type="line"/>
    </contour>
  </outline>
</glyph>
<glyph name="uni0655" format="2">
  <unicode hex="0655"/>
  <anchor x="84" y="180" name="_bottom"/>
  <anchor x="84" y="180" name="_bottom2"/>
  <anchor x="84" y="180" name="_bottom3"/>
  <anchor x="102" y="0" name="bottom3"/>
  <outline>
    <contour>
      <point x="25" y="-14" type="line"/>
      <point x="70" y="10"/>
      <point x="91" y="19"/>
      <point x="149" y="34" type="curve"/>
      <point x="151" y="73" type="line"/>
      <point x="132" y="68"/>
      <point x="115" y="66"/>
      <point x="100" y="66" type="curve" smooth="yes"/>
      <point x="80" y="66"/>
      <point x="65" y="73"/>
      <point x="55" y="86" type="curve"/>
      <point x="62" y="106"/>
      <point x="81" y="123"/>
      <point x="102" y="123" type="curve" smooth="yes"/>
      <point x="109" y="123"/>
      <point x="114" y="117"/>
      <point x="114" y="111" type="curve"/>
      <point x="113" y="107" type="line"/>
      <point x="132" y="101" type="line"/>
      <point x="137" y="111"/>
      <point x="139" y="120"/>
      <point x="139" y="129" type="curve" smooth="yes"/>
      <point x="139" y="153"/>
      <point x="126" y="165"/>
      <point x="100" y="165" type="curve" smooth="yes"/>
      <point x="66" y="165"/>
      <point x="26" y="126"/>
      <point x="26" y="87" type="curve" smooth="yes"/>
      <point x="26" y="65"/>
      <point x="38" y="52"/>
      <point x="62" y="47" type="curve"/>
      <point x="23" y="25" type="line"/>
    </contour>
  </outline>
</glyph>
<glyph name="uni0656" format="2">
  <unicode hex="0656"/>
  <anchor x="9" y="133" name="_bottom"/>
  <anchor x="9" y="133" name="_bottom2"/>
  <anchor x="9" y="133" name="_bottom3"/>
  <anchor x="11" y="-127" name="bottom3"/>
  <outline>
    <contour>
      <point x="11" y="-117" type="line"/>
      <point x="28" y="-93"/>
      <point x="37" y="-65"/>
      <point x="37" y="-32" type="curve" smooth="yes"/>
      <point x="37" y="32"/>
      <point x="32" y="67"/>
      <point x="22" y="118" type="curve"/>
      <point x="0" y="109"/>
      <point x="-15" y="88"/>
      <point x="-15" y="62" type="curve" smooth="yes"/>
      <point x="-15" y="55"/>
      <point x="-14" y="48"/>
      <point x="-12" y="39" type="curve" smooth="yes"/>
      <point x="-1" y="-6"/>
      <point x="5" y="-58"/>
      <point x="5" y="-115" type="curve"/>
    </contour>
  </outline>
</glyph>
<glyph name="uni0657" format="2">
  <unicode hex="0657"/>
  <anchor x="75" y="592" name="_top"/>
  <anchor x="75" y="592" name="_top2"/>
  <anchor x="75" y="592" name="_top3"/>
  <anchor x="78" y="820" name="top3"/>
  <outline>
    <contour>
      <point x="70" y="601" type="curve" smooth="yes"/>
      <point x="102" y="601"/>
      <point x="139" y="638"/>
      <point x="139" y="674" type="curve" smooth="yes"/>
      <point x="139" y="698"/>
      <point x="121" y="718"/>
      <point x="94" y="730" type="curve"/>
      <point x="96" y="732" type="line" smooth="yes"/>
      <point x="127" y="753"/>
      <point x="163" y="767"/>
      <point x="206" y="775" type="curve"/>
      <point x="206" y="794"/>
      <point x="192" y="805"/>
      <point x="171" y="805" type="curve" smooth="yes"/>
      <point x="143" y="805"/>
      <point x="98" y="781"/>
      <point x="59" y="741" type="curve"/>
      <point x="45" y="742" type="line"/>
      <point x="14" y="742"/>
      <point x="0" y="734"/>
      <point x="-3" y="710" type="curve"/>
      <point x="9" y="710"/>
      <point x="21" y="709"/>
      <point x="34" y="707" type="curve"/>
      <point x="31" y="699"/>
      <point x="29" y="689"/>
      <point x="29" y="677" type="curve" smooth="yes"/>
      <point x="29" y="630"/>
      <point x="46" y="601"/>
    </contour>
    <contour>
      <point x="84" y="639" type="curve" smooth="yes"/>
      <point x="67" y="639"/>
      <point x="59" y="659"/>
      <point x="59" y="680" type="curve" smooth="yes"/>
      <point x="59" y="688"/>
      <point x="60" y="695"/>
      <point x="64" y="700" type="curve"/>
      <point x="87" y="695"/>
      <point x="110" y="678"/>
      <point x="110" y="657" type="curve" smooth="yes"/>
      <point x="110" y="650"/>
      <point x="98" y="639"/>
    </contour>
  </outline>
</glyph>
<glyph name="uni0658" format="2">
  <unicode hex="0658"/>
  <anchor x="92" y="639" name="_top"/>
  <anchor x="92" y="639" name="_top2"/>
  <anchor x="92" y="639" name="_top3"/>
  <anchor x="102" y="797" name="top3"/>
  <outline>
    <contour>
      <point x="92" y="649" type="curve" smooth="yes"/>
      <point x="135" y="649"/>
      <point x="165" y="691"/>
      <point x="176" y="769" type="curve"/>
      <point x="160" y="772" type="line"/>
      <point x="149" y="718"/>
      <point x="127" y="691"/>
      <point x="95" y="691" type="curve" smooth="yes"/>
      <point x="61" y="691"/>
      <point x="40" y="718"/>
      <point x="34" y="772" type="curve"/>
      <point x="22" y="772"/>
      <point x="10" y="759"/>
      <point x="10" y="744" type="curve" smooth="yes"/>
      <point x="10" y="729"/>
      <point x="14" y="713"/>
      <point x="21" y="697" type="curve" smooth="yes"/>
      <point x="36" y="666"/>
      <point x="61" y="649"/>
    </contour>
  </outline>
</glyph>
<glyph name="uni0659" format="2">
  <unicode hex="0659"/>
  <anchor x="125" y="588" name="_top"/>
  <anchor x="125" y="588" name="_top2"/>
  <anchor x="125" y="588" name="_top3"/>
  <anchor x="122" y="667" name="top3"/>
  <outline>
    <contour>
      <point x="26" y="597" type="line"/>
      <point x="63" y="597"/>
      <point x="156" y="603"/>
      <point x="208" y="609" type="curve" smooth="yes"/>
      <point x="218" y="610"/>
      <point x="226" y="627"/>
      <point x="226" y="642" type="curve"/>
      <point x="132" y="635"/>
      <point x="69" y="632"/>
      <point x="34" y="632" type="curve"/>
    </contour>
  </outline>
</glyph>
<glyph name="uni065A" format="2">
  <unicode hex="065A"/>
  <anchor x="138" y="444" name="_top"/>
  <anchor x="138" y="444" name="_top2"/>
  <anchor x="138" y="444" name="_top3"/>
  <anchor x="125" y="642" name="top3"/>
  <outline>
    <contour>
      <point x="108" y="454" type="curve"/>
      <point x="128" y="457"/>
      <point x="144" y="462"/>
      <point x="157" y="470" type="curve"/>
      <point x="176" y="530"/>
      <point x="207" y="577"/>
      <point x="207" y="589" type="curve" smooth="yes"/>
      <point x="207" y="607"/>
      <point x="196" y="616"/>
      <point x="185" y="617" type="curve"/>
      <point x="169" y="597"/>
      <point x="145" y="535"/>
      <point x="139" y="503" type="curve"/>
      <point x="130" y="525"/>
      <point x="121" y="544"/>
      <point x="111" y="560" type="curve" smooth="yes"/>
      <point x="92" y="592"/>
      <point x="80" y="604"/>
      <point x="62" y="604" type="curve" smooth="yes"/>
      <point x="57" y="604"/>
      <point x="51" y="603"/>
      <point x="44" y="602" type="curve" smooth="yes"/>
      <point x="29" y="598" type="line"/>
      <point x="62" y="553"/>
      <point x="84" y="504"/>
    </contour>
  </outline>
</glyph>
<glyph name="uni065B" format="2">
  <unicode hex="065B"/>
  <anchor x="119" y="465" name="_top"/>
  <anchor x="119" y="465" name="_top2"/>
  <anchor x="119" y="465" name="_top3"/>
  <anchor x="93" y="663" name="top3"/>
  <outline>
    <contour>
      <point x="51" y="475" type="curve"/>
      <point x="67" y="498"/>
      <point x="91" y="554"/>
      <point x="97" y="591" type="curve"/>
      <point x="110" y="561"/>
      <point x="120" y="541"/>
      <point x="126" y="530" type="curve" smooth="yes"/>
      <point x="140" y="507"/>
      <point x="153" y="489"/>
      <point x="174" y="489" type="curve" smooth="yes"/>
      <point x="183" y="489"/>
      <point x="198" y="492"/>
      <point x="207" y="495" type="curve"/>
      <point x="182" y="529"/>
      <point x="156" y="577"/>
      <point x="128" y="639" type="curve"/>
      <point x="109" y="636"/>
      <point x="93" y="630"/>
      <point x="80" y="622" type="curve"/>
      <point x="60" y="566"/>
      <point x="29" y="513"/>
      <point x="29" y="504" type="curve" smooth="yes"/>
      <point x="29" y="485"/>
      <point x="40" y="476"/>
    </contour>
  </outline>
</glyph>
<glyph name="uni065C" format="2">
  <unicode hex="065C"/>
  <anchor x="0" y="-39" name="_bottom"/>
  <anchor x="0" y="-39" name="_bottom2"/>
  <anchor x="0" y="-39" name="_bottom3"/>
  <anchor x="0" y="-210" name="bottom3"/>
  <outline>
    <contour>
      <point x="0" y="-200" type="curve" smooth="yes"/>
      <point x="40" y="-200"/>
      <point x="73" y="-167"/>
      <point x="73" y="-127" type="curve" smooth="yes"/>
      <point x="73" y="-86"/>
      <point x="40" y="-53"/>
      <point x="0" y="-53" type="curve" smooth="yes"/>
      <point x="-40" y="-53"/>
      <point x="-73" y="-86"/>
      <point x="-73" y="-127" type="curve" smooth="yes"/>
      <point x="-73" y="-167"/>
      <point x="-40" y="-200"/>
    </contour>
  </outline>
</glyph>
<glyph name="uni065D" format="2">
  <unicode hex="065D"/>
  <anchor x="79" y="610" name="_top"/>
  <anchor x="79" y="610" name="_top2"/>
  <anchor x="79" y="610" name="_top3"/>
  <anchor x="86" y="848" name="top3"/>
  <outline>
    <contour>
      <point x="186" y="619" type="curve" smooth="yes"/>
      <point x="207" y="619"/>
      <point x="221" y="631"/>
      <point x="221" y="650" type="curve"/>
      <point x="177" y="658"/>
      <point x="141" y="672"/>
      <point x="109" y="694" type="curve"/>
      <point x="142" y="712"/>
      <point x="153" y="728"/>
      <point x="153" y="751" type="curve" smooth="yes"/>
      <point x="153" y="787"/>
      <point x="117" y="823"/>
      <point x="84" y="823" type="curve" smooth="yes"/>
      <point x="61" y="823"/>
      <point x="44" y="796"/>
      <point x="44" y="748" type="curve" smooth="yes"/>
      <point x="44" y="738"/>
      <point x="46" y="729"/>
      <point x="49" y="717" type="curve"/>
      <point x="36" y="715"/>
      <point x="23" y="715"/>
      <point x="12" y="715" type="curve"/>
      <point x="14" y="691"/>
      <point x="29" y="683"/>
      <point x="60" y="683" type="curve"/>
      <point x="74" y="684" type="line"/>
      <point x="113" y="644"/>
      <point x="157" y="619"/>
    </contour>
    <contour>
      <point x="79" y="724" type="curve"/>
      <point x="76" y="731"/>
      <point x="74" y="738"/>
      <point x="74" y="745" type="curve" smooth="yes"/>
      <point x="74" y="766"/>
      <point x="82" y="786"/>
      <point x="99" y="786" type="curve" smooth="yes"/>
      <point x="113" y="786"/>
      <point x="125" y="774"/>
      <point x="125" y="767" type="curve" smooth="yes"/>
      <point x="125" y="750"/>
      <point x="110" y="735"/>
    </contour>
  </outline>
</glyph>
<glyph name="uni065E" format="2">
  <unicode hex="065E"/>
  <anchor x="104" y="622" name="_top"/>
  <anchor x="104" y="622" name="_top2"/>
  <anchor x="104" y="622" name="_top3"/>
  <anchor x="133" y="824" name="top3"/>
  <outline>
    <contour>
      <point x="24" y="644" type="line"/>
      <point x="65" y="663"/>
      <point x="112" y="689"/>
      <point x="166" y="725" type="curve" smooth="yes"/>
      <point x="194" y="743"/>
      <point x="210" y="745"/>
      <point x="210" y="767" type="curve" smooth="yes"/>
      <point x="210" y="776"/>
      <point x="208" y="785"/>
      <point x="204" y="795" type="curve"/>
      <point x="195" y="790"/>
      <point x="184" y="782"/>
      <point x="171" y="772" type="curve" smooth="yes"/>
      <point x="110" y="724"/>
      <point x="64" y="695"/>
      <point x="34" y="684" type="curve"/>
    </contour>
    <contour>
      <point x="167" y="632" type="line"/>
      <point x="174" y="638"/>
      <point x="183" y="649"/>
      <point x="193" y="666" type="curve"/>
      <point x="177" y="681"/>
      <point x="165" y="692"/>
      <point x="156" y="697" type="curve"/>
      <point x="143" y="681" type="line"/>
      <point x="130" y="663" type="line"/>
    </contour>
    <contour>
      <point x="78" y="735" type="line"/>
      <point x="85" y="740"/>
      <point x="94" y="752"/>
      <point x="104" y="768" type="curve"/>
      <point x="91" y="781"/>
      <point x="79" y="792"/>
      <point x="67" y="800" type="curve"/>
      <point x="53" y="782"/>
      <point x="44" y="770"/>
      <point x="42" y="766" type="curve"/>
    </contour>
  </outline>
</glyph>
<glyph name="uni065F" format="2">
  <unicode hex="065F"/>
  <anchor x="79" y="201" name="_bottom"/>
  <anchor x="79" y="201" name="_bottom2"/>
  <anchor x="79" y="201" name="_bottom3"/>
  <anchor x="98" y="10" name="bottom3"/>
  <outline>
    <contour>
      <point x="-19" y="15" type="line"/>
      <point x="-7" y="28"/>
      <point x="3" y="35"/>
      <point x="13" y="35" type="curve" smooth="yes"/>
      <point x="20" y="35"/>
      <point x="27" y="32"/>
      <point x="35" y="28" type="curve" smooth="yes"/>
      <point x="43" y="22"/>
      <point x="52" y="20"/>
      <point x="59" y="20" type="curve" smooth="yes"/>
      <point x="80" y="20"/>
      <point x="122" y="35"/>
      <point x="160" y="57" type="curve"/>
      <point x="162" y="94" type="line"/>
      <point x="147" y="88"/>
      <point x="134" y="85"/>
      <point x="122" y="85" type="curve" smooth="yes"/>
      <point x="105" y="85"/>
      <point x="81" y="96"/>
      <point x="66" y="110" type="curve"/>
      <point x="77" y="130"/>
      <point x="96" y="145"/>
      <point x="111" y="145" type="curve" smooth="yes"/>
      <point x="119" y="145"/>
      <point x="123" y="140"/>
      <point x="123" y="129" type="curve"/>
      <point x="140" y="124" type="line"/>
      <point x="144" y="134"/>
      <point x="146" y="143"/>
      <point x="146" y="151" type="curve" smooth="yes"/>
      <point x="146" y="173"/>
      <point x="132" y="186"/>
      <point x="110" y="186" type="curve" smooth="yes"/>
      <point x="101" y="186"/>
      <point x="90" y="182"/>
      <point x="79" y="175" type="curve" smooth="yes"/>
      <point x="56" y="159"/>
      <point x="39" y="133"/>
      <point x="39" y="110" type="curve" smooth="yes"/>
      <point x="39" y="90"/>
      <point x="51" y="75"/>
      <point x="76" y="62" type="curve"/>
      <point x="71" y="60"/>
      <point x="66" y="59"/>
      <point x="60" y="59" type="curve" smooth="yes"/>
      <point x="53" y="59"/>
      <point x="45" y="60"/>
      <point x="36" y="63" type="curve" smooth="yes"/>
      <point x="27" y="66"/>
      <point x="23" y="68"/>
      <point x="16" y="68" type="curve" smooth="yes"/>
      <point x="2" y="68"/>
      <point x="-20" y="49"/>
      <point x="-33" y="26" type="curve"/>
    </contour>
  </outline>
</glyph>
<glyph name="uni0660" format="2">
  <advance width="314"/>
  <unicode hex="0660"/>
  <outline>
    <contour>
      <point x="183" y="275" type="curve"/>
      <point x="219" y="329"/>
      <point x="238" y="360"/>
      <point x="238" y="369" type="curve" smooth="yes"/>
      <point x="238" y="375"/>
      <point x="230" y="384"/>
      <point x="215" y="397" type="curve" smooth="yes"/>
      <point x="199" y="411"/>
      <point x="173" y="428"/>
      <point x="137" y="449" type="curve"/>
      <point x="125" y="432"/>
      <point x="115" y="415"/>
      <point x="106" y="398" type="curve" smooth="yes"/>
      <point x="97" y="380"/>
      <point x="87" y="362"/>
      <point x="76" y="344" type="curve"/>
      <point x="112" y="325"/>
      <point x="147" y="301"/>
    </contour>
  </outline>
</glyph>
<glyph name="uni0661" format="2">
  <advance width="316"/>
  <unicode hex="0661"/>
  <outline>
    <contour>
      <point x="226" y="135" type="line"/>
      <point x="235" y="198"/>
      <point x="240" y="261"/>
      <point x="240" y="326" type="curve" smooth="yes"/>
      <point x="240" y="431"/>
      <point x="197" y="584"/>
      <point x="131" y="703" type="curve"/>
      <point x="97" y="683"/>
      <point x="77" y="656"/>
      <point x="77" y="630" type="curve" smooth="yes"/>
      <point x="77" y="621"/>
      <point x="79" y="611"/>
      <point x="85" y="601" type="curve" smooth="yes"/>
      <point x="113" y="546"/>
      <point x="135" y="496"/>
      <point x="149" y="448" type="curve" smooth="yes"/>
      <point x="178" y="354"/>
      <point x="186" y="282"/>
      <point x="188" y="144" type="curve"/>
    </contour>
  </outline>
</glyph>
<glyph name="uni0662" format="2">
  <advance width="413"/>
  <unicode hex="0662"/>
  <outline>
    <contour>
      <point x="226" y="135" type="line"/>
      <point x="238" y="225"/>
      <point x="240" y="263"/>
      <point x="240" y="326" type="curve" smooth="yes"/>
      <point x="240" y="374"/>
      <point x="231" y="430"/>
      <point x="214" y="495" type="curve"/>
      <point x="226" y="490"/>
      <point x="238" y="488"/>
      <point x="249" y="488" type="curve" smooth="yes"/>
      <point x="341" y="488"/>
      <point x="388" y="556"/>
      <point x="388" y="694" type="curve"/>
      <point x="348" y="702" type="line"/>
      <point x="339" y="615"/>
      <point x="306" y="572"/>
      <point x="248" y="572" type="curve" smooth="yes"/>
      <point x="222" y="572"/>
      <point x="197" y="579"/>
      <point x="183" y="590" type="curve"/>
      <point x="168" y="629"/>
      <point x="151" y="666"/>
      <point x="131" y="703" type="curve"/>
      <point x="97" y="684"/>
      <point x="77" y="656"/>
      <point x="77" y="630" type="curve" smooth="yes"/>
      <point x="77" y="621"/>
      <point x="79" y="611"/>
      <point x="85" y="601" type="curve" smooth="yes"/>
      <point x="111" y="551"/>
      <point x="131" y="503"/>
      <point x="146" y="457" type="curve" smooth="yes"/>
      <point x="177" y="364"/>
      <point x="186" y="292"/>
      <point x="188" y="144" type="curve"/>
    </contour>
  </outline>
</glyph>
<glyph name="uni0663" format="2">
  <advance width="478"/>
  <unicode hex="0663"/>
  <outline>
    <contour>
      <point x="226" y="135" type="line"/>
      <point x="234" y="197"/>
      <point x="238" y="260"/>
      <point x="238" y="326" type="curve" smooth="yes"/>
      <point x="238" y="375"/>
      <point x="229" y="432"/>
      <point x="212" y="495" type="curve"/>
      <point x="226" y="490"/>
      <point x="238" y="488"/>
      <point x="248" y="488" type="curve" smooth="yes"/>
      <point x="280" y="488"/>
      <point x="304" y="507"/>
      <point x="318" y="534" type="curve"/>
      <point x="335" y="524"/>
      <point x="351" y="520"/>
      <point x="366" y="520" type="curve" smooth="yes"/>
      <point x="415" y="520"/>
      <point x="452" y="570"/>
      <point x="452" y="644" type="curve" smooth="yes"/>
      <point x="452" y="658"/>
      <point x="451" y="675"/>
      <point x="448" y="697" type="curve"/>
      <point x="407" y="701" type="line"/>
      <point x="408" y="695"/>
      <point x="409" y="685"/>
      <point x="409" y="673" type="curve" smooth="yes"/>
      <point x="409" y="628"/>
      <point x="393" y="603"/>
      <point x="365" y="603" type="curve" smooth="yes"/>
      <point x="357" y="603"/>
      <point x="347" y="605"/>
      <point x="336" y="609" type="curve"/>
      <point x="336" y="640"/>
      <point x="332" y="668"/>
      <point x="322" y="703" type="curve"/>
      <point x="292" y="693" type="line"/>
      <point x="294" y="677"/>
      <point x="295" y="662"/>
      <point x="295" y="647" type="curve" smooth="yes"/>
      <point x="295" y="596"/>
      <point x="278" y="572"/>
      <point x="239" y="572" type="curve" smooth="yes"/>
      <point x="217" y="572"/>
      <point x="199" y="578"/>
      <point x="183" y="590" type="curve"/>
      <point x="168" y="629"/>
      <point x="150" y="667"/>
      <point x="131" y="703" type="curve"/>
      <point x="96" y="683"/>
      <point x="77" y="657"/>
      <point x="77" y="630" type="curve" smooth="yes"/>
      <point x="77" y="621"/>
      <point x="79" y="611"/>
      <point x="85" y="601" type="curve" smooth="yes"/>
      <point x="115" y="541"/>
      <point x="137" y="486"/>
      <point x="151" y="438" type="curve" smooth="yes"/>
      <point x="179" y="341"/>
      <point x="187" y="273"/>
      <point x="188" y="144" type="curve"/>
    </contour>
  </outline>
</glyph>
<glyph name="uni0664" format="2">
  <advance width="420"/>
  <unicode hex="0664"/>
  <outline>
    <contour>
      <point x="280" y="133" type="curve" smooth="yes"/>
      <point x="309" y="133"/>
      <point x="329" y="144"/>
      <point x="345" y="159" type="curve" smooth="yes"/>
      <point x="359" y="173"/>
      <point x="370" y="191"/>
      <point x="382" y="207" type="curve"/>
      <point x="372" y="225" type="line"/>
      <point x="346" y="218"/>
      <point x="316" y="215"/>
      <point x="282" y="215" type="curve" smooth="yes"/>
      <point x="216" y="215"/>
      <point x="162" y="239"/>
      <point x="162" y="266" type="curve" smooth="yes"/>
      <point x="162" y="279"/>
      <point x="172" y="301"/>
      <point x="187" y="326" type="curve" smooth="yes"/>
      <point x="209" y="362"/>
      <point x="241" y="404"/>
      <point x="265" y="430" type="curve"/>
      <point x="238" y="489" type="line"/>
      <point x="184" y="501"/>
      <point x="146" y="515"/>
      <point x="117" y="547" type="curve"/>
      <point x="125" y="554"/>
      <point x="134" y="563"/>
      <point x="143" y="570" type="curve" smooth="yes"/>
      <point x="162" y="584"/>
      <point x="204" y="616"/>
      <point x="232" y="639" type="curve" smooth="yes"/>
      <point x="250" y="654"/>
      <point x="262" y="682"/>
      <point x="262" y="710" type="curve" smooth="yes"/>
      <point x="262" y="718"/>
      <point x="261" y="725"/>
      <point x="259" y="731" type="curve"/>
      <point x="179" y="690"/>
      <point x="134" y="655"/>
      <point x="110" y="622" type="curve" smooth="yes"/>
      <point x="87" y="589"/>
      <point x="68" y="531"/>
      <point x="68" y="497" type="curve" smooth="yes"/>
      <point x="68" y="469"/>
      <point x="116" y="434"/>
      <point x="185" y="405" type="curve"/>
      <point x="145" y="344"/>
      <point x="116" y="272"/>
      <point x="116" y="234" type="curve" smooth="yes"/>
      <point x="116" y="167"/>
      <point x="174" y="133"/>
    </contour>
  </outline>
</glyph>
<glyph name="uni0665" format="2">
  <advance width="382"/>
  <unicode hex="0665"/>
  <outline>
    <contour>
      <point x="173" y="195" type="curve" smooth="yes"/>
      <point x="200" y="195"/>
      <point x="227" y="203"/>
      <point x="252" y="220" type="curve" smooth="yes"/>
      <point x="304" y="254"/>
      <point x="335" y="295"/>
      <point x="335" y="415" type="curve" smooth="yes"/>
      <point x="335" y="456"/>
      <point x="330" y="495"/>
      <point x="319" y="533" type="curve" smooth="yes"/>
      <point x="297" y="609"/>
      <point x="256" y="650"/>
      <point x="207" y="650" type="curve" smooth="yes"/>
      <point x="184" y="650"/>
      <point x="160" y="633"/>
      <point x="135" y="600" type="curve" smooth="yes"/>
      <point x="83" y="533"/>
      <point x="47" y="425"/>
      <point x="47" y="339" type="curve" smooth="yes"/>
      <point x="47" y="240"/>
      <point x="84" y="195"/>
    </contour>
    <contour>
      <point x="184" y="279" type="curve" smooth="yes"/>
      <point x="119" y="279"/>
      <point x="87" y="306"/>
      <point x="87" y="361" type="curve" smooth="yes"/>
      <point x="87" y="383"/>
      <point x="92" y="411"/>
      <point x="102" y="443" type="curve" smooth="yes"/>
      <point x="123" y="507"/>
      <point x="158" y="554"/>
      <point x="185" y="554" type="curve" smooth="yes"/>
      <point x="247" y="554"/>
      <point x="293" y="474"/>
      <point x="293" y="370" type="curve" smooth="yes"/>
      <point x="293" y="326"/>
      <point x="239" y="279"/>
    </contour>
  </outline>
</glyph>
<glyph name="uni0666" format="2">
  <advance width="445"/>
  <unicode hex="0666"/>
  <outline>
    <contour>
      <point x="323" y="134" type="curve"/>
      <point x="382" y="197" type="line"/>
      <point x="332" y="296"/>
      <point x="306" y="408"/>
      <point x="306" y="564" type="curve" smooth="yes"/>
      <point x="306" y="598"/>
      <point x="311" y="637"/>
      <point x="323" y="683" type="curve"/>
      <point x="311" y="699" type="line"/>
      <point x="258" y="692"/>
      <point x="209" y="689"/>
      <point x="165" y="689" type="curve" smooth="yes"/>
      <point x="128" y="689"/>
      <point x="89" y="697"/>
      <point x="48" y="714" type="curve"/>
      <point x="25" y="629" type="line"/>
      <point x="57" y="614"/>
      <point x="111" y="603"/>
      <point x="165" y="603" type="curve" smooth="yes"/>
      <point x="206" y="603"/>
      <point x="240" y="605"/>
      <point x="267" y="609" type="curve"/>
      <point x="262" y="590"/>
      <point x="250" y="511"/>
      <point x="250" y="468" type="curve" smooth="yes"/>
      <point x="250" y="356"/>
      <point x="273" y="257"/>
    </contour>
  </outline>
</glyph>
<glyph name="uni0667" format="2">
  <advance width="436"/>
  <unicode hex="0667"/>
  <outline>
    <contour>
      <point x="204" y="135" type="curve"/>
      <point x="219" y="145"/>
      <point x="237" y="158"/>
      <point x="258" y="175" type="curve"/>
      <point x="299" y="335"/>
      <point x="344" y="462"/>
      <point x="427" y="629" type="curve"/>
      <point x="385" y="701" type="line"/>
      <point x="330" y="601"/>
      <point x="261" y="403"/>
      <point x="233" y="243" type="curve"/>
      <point x="206" y="380"/>
      <point x="119" y="607"/>
      <point x="58" y="701" type="curve"/>
      <point x="28" y="679"/>
      <point x="9" y="650"/>
      <point x="9" y="625" type="curve" smooth="yes"/>
      <point x="9" y="617"/>
      <point x="11" y="610"/>
      <point x="15" y="603" type="curve" smooth="yes"/>
      <point x="101" y="442"/>
      <point x="135" y="368"/>
    </contour>
  </outline>
</glyph>
<glyph name="uni0668" format="2">
  <advance width="436"/>
  <unicode hex="0668"/>
  <outline>
    <contour>
      <point x="51" y="135" type="line"/>
      <point x="109" y="242"/>
      <point x="173" y="427"/>
      <point x="203" y="593" type="curve"/>
      <point x="211" y="551"/>
      <point x="225" y="500"/>
      <point x="242" y="447" type="curve" smooth="yes"/>
      <point x="281" y="328"/>
      <point x="335" y="199"/>
      <point x="378" y="135" type="curve"/>
      <point x="409" y="158"/>
      <point x="427" y="186"/>
      <point x="427" y="211" type="curve" smooth="yes"/>
      <point x="427" y="218"/>
      <point x="425" y="226"/>
      <point x="422" y="233" type="curve" smooth="yes"/>
      <point x="333" y="395"/>
      <point x="297" y="481"/>
      <point x="232" y="701" type="curve"/>
      <point x="178" y="661" type="line"/>
      <point x="135" y="492"/>
      <point x="95" y="379"/>
      <point x="8" y="206" type="curve"/>
    </contour>
  </outline>
</glyph>
<glyph name="uni0669" format="2">
  <advance width="433"/>
  <unicode hex="0669"/>
  <outline>
    <contour>
      <point x="311" y="134" type="curve"/>
      <point x="370" y="197" type="line"/>
      <point x="316" y="304"/>
      <point x="291" y="403"/>
      <point x="291" y="510" type="curve" smooth="yes"/>
      <point x="291" y="656"/>
      <point x="250" y="720"/>
      <point x="173" y="720" type="curve" smooth="yes"/>
      <point x="154" y="720"/>
      <point x="134" y="712"/>
      <point x="113" y="695" type="curve" smooth="yes"/>
      <point x="72" y="661"/>
      <point x="42" y="605"/>
      <point x="42" y="561" type="curve" smooth="yes"/>
      <point x="42" y="479"/>
      <point x="91" y="435"/>
      <point x="187" y="435" type="curve" smooth="yes"/>
      <point x="205" y="435"/>
      <point x="223" y="439"/>
      <point x="241" y="447" type="curve"/>
      <point x="243" y="346"/>
      <point x="262" y="260"/>
    </contour>
    <contour>
      <point x="213" y="519" type="curve" smooth="yes"/>
      <point x="148" y="519"/>
      <point x="86" y="547"/>
      <point x="86" y="585" type="curve" smooth="yes"/>
      <point x="86" y="605"/>
      <point x="115" y="633"/>
      <point x="148" y="633" type="curve" smooth="yes"/>
      <point x="200" y="633"/>
      <point x="226" y="595"/>
      <point x="237" y="521" type="curve"/>
      <point x="230" y="520"/>
      <point x="222" y="519"/>
    </contour>
  </outline>
</glyph>
<glyph name="uni066B" format="2">
  <advance width="222"/>
  <unicode hex="066B"/>
  <outline>
    <contour>
      <point x="42" y="38" type="line"/>
      <point x="133" y="66"/>
      <point x="181" y="124"/>
      <point x="181" y="204" type="curve" smooth="yes"/>
      <point x="181" y="247"/>
      <point x="155" y="279"/>
      <point x="115" y="279" type="curve" smooth="yes"/>
      <point x="84" y="279"/>
      <point x="60" y="261"/>
      <point x="60" y="229" type="curve" smooth="yes"/>
      <point x="60" y="198"/>
      <point x="86" y="189"/>
      <point x="105" y="177" type="curve" smooth="yes"/>
      <point x="115" y="170"/>
      <point x="123" y="162"/>
      <point x="123" y="150" type="curve" smooth="yes"/>
      <point x="123" y="117"/>
      <point x="96" y="91"/>
      <point x="42" y="74" type="curve"/>
    </contour>
  </outline>
</glyph>
<glyph name="uni066C" format="2">
  <advance width="161"/>
  <unicode hex="066C"/>
  <outline>
    <contour>
      <point x="78" y="136" type="curve" smooth="yes"/>
      <point x="109" y="136"/>
      <point x="133" y="154"/>
      <point x="133" y="187" type="curve" smooth="yes"/>
      <point x="133" y="207"/>
      <point x="123" y="222"/>
      <point x="102" y="233" type="curve" smooth="yes"/>
      <point x="79" y="244"/>
      <point x="71" y="252"/>
      <point x="71" y="265" type="curve" smooth="yes"/>
      <point x="71" y="299"/>
      <point x="98" y="325"/>
      <point x="151" y="342" type="curve"/>
      <point x="151" y="377" type="line"/>
      <point x="62" y="351"/>
      <point x="12" y="292"/>
      <point x="12" y="211" type="curve" smooth="yes"/>
      <point x="12" y="168"/>
      <point x="39" y="136"/>
    </contour>
  </outline>
</glyph>
<glyph name="uni066D" format="2">
  <advance width="400"/>
  <unicode hex="066D"/>
  <outline>
    <contour>
      <point x="90" y="194" type="line"/>
      <point x="199" y="280" type="line"/>
      <point x="309" y="194" type="line"/>
      <point x="312" y="196" type="line"/>
      <point x="265" y="327" type="line"/>
      <point x="382" y="406" type="line"/>
      <point x="380" y="409" type="line"/>
      <point x="241" y="405" type="line"/>
      <point x="202" y="539" type="line"/>
      <point x="197" y="539" type="line"/>
      <point x="159" y="405" type="line"/>
      <point x="21" y="409" type="line"/>
      <point x="19" y="405" type="line"/>
      <point x="134" y="327" type="line"/>
      <point x="87" y="196" type="line"/>
    </contour>
  </outline>
</glyph>
<glyph name="uni066E" format="2">
  <advance width="772"/>
  <unicode hex="066E"/>
  <anchor x="378" y="83" name="bottom"/>
  <anchor x="365" y="503" name="top"/>
  <outline>
    <contour>
      <point x="314" y="135" type="curve" smooth="yes"/>
      <point x="472" y="135"/>
      <point x="600" y="168"/>
      <point x="688" y="224" type="curve"/>
      <point x="711" y="269"/>
      <point x="723" y="303"/>
      <point x="723" y="326" type="curve" smooth="yes"/>
      <point x="723" y="374"/>
      <point x="707" y="444"/>
      <point x="686" y="543" type="curve"/>
      <point x="643" y="519"/>
      <point x="620" y="487"/>
      <point x="620" y="459" type="curve" smooth="yes"/>
      <point x="620" y="448"/>
      <point x="626" y="426"/>
      <point x="639" y="392" type="curve" smooth="yes"/>
      <point x="656" y="346"/>
      <point x="668" y="310"/>
      <point x="675" y="282" type="curve"/>
      <point x="583" y="238"/>
      <point x="459" y="211"/>
      <point x="335" y="211" type="curve" smooth="yes"/>
      <point x="282" y="211"/>
      <point x="240" y="217"/>
      <point x="208" y="228" type="curve" smooth="yes"/>
      <point x="144" y="250"/>
      <point x="116" y="288"/>
      <point x="116" y="366" type="curve" smooth="yes"/>
      <point x="116" y="382"/>
      <point x="118" y="410"/>
      <point x="119" y="415" type="curve"/>
      <point x="83" y="415" type="line"/>
      <point x="74" y="383"/>
      <point x="70" y="347"/>
      <point x="70" y="305" type="curve" smooth="yes"/>
      <point x="70" y="191"/>
      <point x="157" y="135"/>
    </contour>
  </outline>
</glyph>
<glyph name="uni066F" format="2">
  <advance width="647"/>
  <unicode hex="066F"/>
  <anchor x="4" y="-159" name="bottom"/>
  <anchor x="394" y="524" name="top"/>
  <outline>
    <contour>
      <point x="266" y="-127" type="curve" smooth="yes"/>
      <point x="344" y="-127"/>
      <point x="436" y="-91"/>
      <point x="499" y="-36" type="curve" smooth="yes"/>
      <point x="562" y="19"/>
      <point x="596" y="92"/>
      <point x="596" y="176" type="curve" smooth="yes"/>
      <point x="596" y="227"/>
      <point x="588" y="276"/>
      <point x="572" y="321" type="curve" smooth="yes"/>
      <point x="539" y="413"/>
      <point x="476" y="475"/>
      <point x="413" y="475" type="curve" smooth="yes"/>
      <point x="391" y="475"/>
      <point x="368" y="465"/>
      <point x="346" y="445" type="curve" smooth="yes"/>
      <point x="302" y="404"/>
      <point x="272" y="332"/>
      <point x="272" y="264" type="curve" smooth="yes"/>
      <point x="272" y="186"/>
      <point x="321" y="135"/>
      <point x="397" y="135" type="curve" smooth="yes"/>
      <point x="448" y="135"/>
      <point x="491" y="155"/>
      <point x="534" y="195" type="curve"/>
      <point x="540" y="163"/>
      <point x="544" y="126"/>
      <point x="545" y="84" type="curve"/>
      <point x="529" y="59"/>
      <point x="506" y="36"/>
      <point x="476" y="17" type="curve" smooth="yes"/>
      <point x="417" y="-22"/>
      <point x="338" y="-44"/>
      <point x="269" y="-44" type="curve" smooth="yes"/>
      <point x="168" y="-44"/>
      <point x="113" y="10"/>
      <point x="113" y="111" type="curve" smooth="yes"/>
      <point x="113" y="129"/>
      <point x="117" y="153"/>
      <point x="124" y="182" type="curve"/>
      <point x="87" y="191" type="line"/>
      <point x="71" y="125"/>
      <point x="68" y="100"/>
      <point x="68" y="61" type="curve" smooth="yes"/>
      <point x="68" y="-58"/>
      <point x="141" y="-127"/>
    </contour>
    <contour>
      <point x="421" y="217" type="curve" smooth="yes"/>
      <point x="351" y="217"/>
      <point x="311" y="244"/>
      <point x="311" y="292" type="curve" smooth="yes"/>
      <point x="311" y="305"/>
      <point x="315" y="320"/>
      <point x="323" y="335" type="curve" smooth="yes"/>
      <point x="341" y="366"/>
      <point x="370" y="390"/>
      <point x="397" y="390" type="curve" smooth="yes"/>
      <point x="412" y="390"/>
      <point x="427" y="384"/>
      <point x="444" y="372" type="curve" smooth="yes"/>
      <point x="476" y="349"/>
      <point x="505" y="299"/>
      <point x="523" y="240" type="curve"/>
      <point x="489" y="224"/>
      <point x="455" y="217"/>
    </contour>
  </outline>
</glyph>
<glyph name="uni0670" format="2">
  <unicode hex="0670"/>
  <anchor x="11" y="544" name="_top"/>
  <anchor x="11" y="544" name="_top2"/>
  <anchor x="11" y="544" name="_top3"/>
  <anchor x="9" y="804" name="top3"/>
  <outline>
    <contour>
      <point x="11" y="554" type="line"/>
      <point x="28" y="578"/>
      <point x="37" y="607"/>
      <point x="37" y="639" type="curve" smooth="yes"/>
      <point x="37" y="704"/>
      <point x="32" y="739"/>
      <point x="22" y="789" type="curve"/>
      <point x="0" y="781"/>
      <point x="-15" y="759"/>
      <point x="-15" y="733" type="curve" smooth="yes"/>
      <point x="-15" y="727"/>
      <point x="-14" y="719"/>
      <point x="-12" y="711" type="curve" smooth="yes"/>
      <point x="-1" y="665"/>
      <point x="5" y="614"/>
      <point x="5" y="556" type="curve"/>
    </contour>
  </outline>
</glyph>
<glyph name="uni06A9" format="2">
  <advance width="722"/>
  <unicode hex="06A9"/>
  <unicode hex="FB8E"/>
  <anchor x="450" y="83" name="bottom"/>
  <anchor x="355" y="710" name="top"/>
  <outline>
    <contour>
      <point x="308" y="135" type="curve" smooth="yes"/>
      <point x="532" y="135"/>
      <point x="643" y="192"/>
      <point x="643" y="299" type="curve" smooth="yes"/>
      <point x="643" y="329"/>
      <point x="629" y="362"/>
      <point x="602" y="397" type="curve" smooth="yes"/>
      <point x="547" y="466"/>
      <point x="447" y="530"/>
      <point x="343" y="555" type="curve"/>
      <point x="419" y="590"/>
      <point x="525" y="636"/>
      <point x="661" y="693" type="curve" smooth="yes"/>
      <point x="690" y="704"/>
      <point x="704" y="725"/>
      <point x="704" y="757" type="curve" smooth="yes"/>
      <point x="704" y="772"/>
      <point x="698" y="781"/>
      <point x="688" y="789" type="curve"/>
      <point x="573" y="742"/>
      <point x="513" y="716"/>
      <point x="333" y="623" type="curve" smooth="yes"/>
      <point x="326" y="619"/>
      <point x="307" y="557"/>
      <point x="307" y="528" type="curve" smooth="yes"/>
      <point x="307" y="491"/>
      <point x="332" y="463"/>
      <point x="368" y="463" type="curve" smooth="yes"/>
      <point x="376" y="463"/>
      <point x="384" y="464"/>
      <point x="393" y="466" type="curve"/>
      <point x="440" y="443"/>
      <point x="479" y="419"/>
      <point x="510" y="394" type="curve" smooth="yes"/>
      <point x="558" y="356"/>
      <point x="587" y="315"/>
      <point x="603" y="270" type="curve"/>
      <point x="518" y="224"/>
      <point x="431" y="211"/>
      <point x="316" y="211" type="curve" smooth="yes"/>
      <point x="243" y="211"/>
      <point x="190" y="218"/>
      <point x="159" y="232" type="curve" smooth="yes"/>
      <point x="128" y="245"/>
      <point x="113" y="268"/>
      <point x="113" y="299" type="curve" smooth="yes"/>
      <point x="113" y="314"/>
      <point x="114" y="328"/>
      <point x="117" y="340" type="curve"/>
      <point x="81" y="340" type="line"/>
      <point x="72" y="319"/>
      <point x="68" y="298"/>
      <point x="68" y="276" type="curve" smooth="yes"/>
      <point x="68" y="247"/>
      <point x="75" y="223"/>
      <point x="89" y="203" type="curve" smooth="yes"/>
      <point x="122" y="158"/>
      <point x="192" y="135"/>
    </contour>
  </outline>
</glyph>
<glyph name="uni06AA" format="2">
  <advance width="1015"/>
  <unicode hex="06AA"/>
  <anchor x="774" y="83" name="bottom"/>
  <anchor x="387" y="693" name="top"/>
  <outline>
    <contour>
      <point x="286" y="135" type="curve" smooth="yes"/>
      <point x="502" y="135"/>
      <point x="766" y="152"/>
      <point x="942" y="179" type="curve"/>
      <point x="957" y="211"/>
      <point x="964" y="238"/>
      <point x="964" y="260" type="curve" smooth="yes"/>
      <point x="964" y="289"/>
      <point x="956" y="313"/>
      <point x="940" y="334" type="curve" smooth="yes"/>
      <point x="909" y="376"/>
      <point x="850" y="399"/>
      <point x="784" y="399" type="curve" smooth="yes"/>
      <point x="743" y="399"/>
      <point x="677" y="397"/>
      <point x="584" y="392" type="curve" smooth="yes"/>
      <point x="492" y="387"/>
      <point x="427" y="385"/>
      <point x="389" y="385" type="curve" smooth="yes"/>
      <point x="341" y="385"/>
      <point x="280" y="401"/>
      <point x="280" y="418" type="curve" smooth="yes"/>
      <point x="280" y="427"/>
      <point x="289" y="440"/>
      <point x="307" y="455" type="curve" smooth="yes"/>
      <point x="343" y="485"/>
      <point x="427" y="533"/>
      <point x="483" y="556" type="curve" smooth="yes"/>
      <point x="514" y="568"/>
      <point x="529" y="593"/>
      <point x="529" y="629" type="curve" smooth="yes"/>
      <point x="529" y="637"/>
      <point x="528" y="645"/>
      <point x="526" y="654" type="curve"/>
      <point x="452" y="634"/>
      <point x="374" y="593"/>
      <point x="322" y="546" type="curve" smooth="yes"/>
      <point x="269" y="500"/>
      <point x="244" y="451"/>
      <point x="244" y="400" type="curve" smooth="yes"/>
      <point x="244" y="333"/>
      <point x="281" y="307"/>
      <point x="371" y="307" type="curve" smooth="yes"/>
      <point x="419" y="307"/>
      <point x="490" y="310"/>
      <point x="583" y="316" type="curve" smooth="yes"/>
      <point x="676" y="321"/>
      <point x="744" y="323"/>
      <point x="786" y="323" type="curve" smooth="yes"/>
      <point x="862" y="323"/>
      <point x="906" y="299"/>
      <point x="926" y="241" type="curve"/>
      <point x="775" y="223"/>
      <point x="520" y="211"/>
      <point x="271" y="211" type="curve" smooth="yes"/>
      <point x="173" y="211"/>
      <point x="86" y="219"/>
      <point x="10" y="235" type="curve"/>
      <point x="9" y="174"/>
      <point x="21" y="158"/>
      <point x="85" y="145" type="curve" smooth="yes"/>
      <point x="118" y="137"/>
      <point x="174" y="135"/>
    </contour>
  </outline>
</glyph>
<glyph name="uni06BA" format="2">
  <advance width="586"/>
  <unicode hex="06BA"/>
  <unicode hex="FB9E"/>
  <anchor x="30" y="-123" name="bottom"/>
  <anchor x="263" y="361" name="top"/>
  <outline>
    <contour>
      <point x="249" y="-127" type="curve" smooth="yes"/>
      <point x="297" y="-127"/>
      <point x="344" y="-115"/>
      <point x="389" y="-91" type="curve" smooth="yes"/>
      <point x="480" y="-44"/>
      <point x="535" y="36"/>
      <point x="535" y="118" type="curve" smooth="yes"/>
      <point x="535" y="146"/>
      <point x="530" y="184"/>
      <point x="521" y="232" type="curve" smooth="yes"/>
      <point x="509" y="295"/>
      <point x="501" y="338"/>
      <point x="498" y="361" type="curve"/>
      <point x="450" y="332"/>
      <point x="433" y="306"/>
      <point x="433" y="272" type="curve" smooth="yes"/>
      <point x="433" y="240"/>
      <point x="454" y="176"/>
      <point x="498" y="81" type="curve"/>
      <point x="465" y="10"/>
      <point x="350" y="-44"/>
      <point x="251" y="-44" type="curve" smooth="yes"/>
      <point x="164" y="-44"/>
      <point x="113" y="13"/>
      <point x="113" y="111" type="curve" smooth="yes"/>
      <point x="113" y="129"/>
      <point x="117" y="153"/>
      <point x="124" y="182" type="curve"/>
      <point x="87" y="191" type="line"/>
      <point x="71" y="125"/>
      <point x="68" y="100"/>
      <point x="68" y="61" type="curve" smooth="yes"/>
      <point x="68" y="-59"/>
      <point x="135" y="-127"/>
    </contour>
  </outline>
</glyph>
<glyph name="uni06BE" format="2">
  <advance width="631"/>
  <unicode hex="06BE"/>
  <unicode hex="FBAA"/>
  <anchor x="320" y="68" name="bottom"/>
  <anchor x="268" y="617" name="top"/>
  <outline>
    <contour>
      <point x="529" y="117" type="curve"/>
      <point x="563" y="174"/>
      <point x="580" y="219"/>
      <point x="580" y="251" type="curve" smooth="yes"/>
      <point x="580" y="296"/>
      <point x="567" y="340"/>
      <point x="542" y="383" type="curve" smooth="yes"/>
      <point x="492" y="469"/>
      <point x="398" y="537"/>
      <point x="287" y="568" type="curve"/>
      <point x="264" y="503" type="line"/>
      <point x="214" y="478"/>
      <point x="176" y="403"/>
      <point x="176" y="342" type="curve" smooth="yes"/>
      <point x="176" y="299"/>
      <point x="196" y="260"/>
      <point x="238" y="225" type="curve"/>
      <point x="205" y="216"/>
      <point x="171" y="211"/>
      <point x="137" y="211" type="curve" smooth="yes"/>
      <point x="91" y="211"/>
      <point x="54" y="214"/>
      <point x="26" y="219" type="curve"/>
      <point x="17" y="185" type="line"/>
      <point x="77" y="152"/>
      <point x="122" y="135"/>
      <point x="151" y="135" type="curve" smooth="yes"/>
      <point x="206" y="135"/>
      <point x="258" y="150"/>
      <point x="307" y="179" type="curve"/>
      <point x="368" y="148"/>
      <point x="442" y="127"/>
    </contour>
    <contour>
      <point x="312" y="260" type="curve"/>
      <point x="274" y="283"/>
      <point x="240" y="310"/>
      <point x="211" y="343" type="curve"/>
      <point x="217" y="362"/>
      <point x="224" y="380"/>
      <point x="235" y="395" type="curve" smooth="yes"/>
      <point x="256" y="426"/>
      <point x="283" y="444"/>
      <point x="304" y="444" type="curve" smooth="yes"/>
      <point x="333" y="444"/>
      <point x="363" y="404"/>
      <point x="363" y="366" type="curve" smooth="yes"/>
      <point x="363" y="322"/>
      <point x="346" y="287"/>
    </contour>
    <contour>
      <point x="526" y="190" type="curve"/>
      <point x="472" y="197"/>
      <point x="420" y="210"/>
      <point x="370" y="230" type="curve"/>
      <point x="405" y="269"/>
      <point x="422" y="313"/>
      <point x="422" y="363" type="curve" smooth="yes"/>
      <point x="422" y="391"/>
      <point x="415" y="418"/>
      <point x="400" y="443" type="curve"/>
      <point x="475" y="379"/>
      <point x="526" y="277"/>
    </contour>
  </outline>
</glyph>
<glyph name="uni06C5" format="2">
  <advance width="468"/>
  <unicode hex="06C5"/>
  <unicode hex="FBE0"/>
  <anchor x="192" y="-117" name="bottom"/>
  <anchor x="256" y="524" name="top"/>
  <outline>
    <contour>
      <point x="193" y="-68" type="curve" smooth="yes"/>
      <point x="232" y="-68"/>
      <point x="269" y="-55"/>
      <point x="303" y="-30" type="curve" smooth="yes"/>
      <point x="371" y="21"/>
      <point x="417" y="121"/>
      <point x="417" y="216" type="curve" smooth="yes"/>
      <point x="417" y="257"/>
      <point x="410" y="299"/>
      <point x="394" y="342" type="curve" smooth="yes"/>
      <point x="363" y="427"/>
      <point x="313" y="475"/>
      <point x="261" y="475" type="curve" smooth="yes"/>
      <point x="239" y="475"/>
      <point x="216" y="465"/>
      <point x="194" y="445" type="curve" smooth="yes"/>
      <point x="150" y="404"/>
      <point x="120" y="332"/>
      <point x="120" y="264" type="curve" smooth="yes"/>
      <point x="120" y="186"/>
      <point x="168" y="135"/>
      <point x="245" y="135" type="curve" smooth="yes"/>
      <point x="292" y="135"/>
      <point x="340" y="155"/>
      <point x="379" y="192" type="curve"/>
      <point x="380" y="184" type="line"/>
      <point x="366" y="140"/>
      <point x="346" y="103"/>
      <point x="320" y="74" type="curve"/>
      <point x="305" y="77"/>
      <point x="285" y="83"/>
      <point x="263" y="92" type="curve" smooth="yes"/>
      <point x="238" y="102"/>
      <point x="219" y="107"/>
      <point x="204" y="107" type="curve" smooth="yes"/>
      <point x="184" y="107"/>
      <point x="174" y="103"/>
      <point x="140" y="76" type="curve"/>
      <point x="156" y="51" type="line"/>
      <point x="175" y="59"/>
      <point x="191" y="64"/>
      <point x="203" y="64" type="curve" smooth="yes"/>
      <point x="223" y="64"/>
      <point x="238" y="59"/>
      <point x="282" y="42" type="curve"/>
      <point x="250" y="21"/>
      <point x="212" y="10"/>
      <point x="170" y="10" type="curve" smooth="yes"/>
      <point x="125" y="10"/>
      <point x="84" y="16"/>
      <point x="48" y="29" type="curve"/>
      <point x="34" y="-4" type="line"/>
      <point x="70" y="-35"/>
      <point x="150" y="-68"/>
    </contour>
    <contour>
      <point x="269" y="217" type="curve" smooth="yes"/>
      <point x="198" y="217"/>
      <point x="158" y="244"/>
      <point x="158" y="292" type="curve" smooth="yes"/>
      <point x="158" y="305"/>
      <point x="163" y="320"/>
      <point x="171" y="335" type="curve" smooth="yes"/>
      <point x="189" y="367"/>
      <point x="218" y="390"/>
      <point x="246" y="390" type="curve" smooth="yes"/>
      <point x="295" y="390"/>
      <point x="347" y="327"/>
      <point x="370" y="239" type="curve"/>
      <point x="323" y="220"/>
      <point x="302" y="217"/>
    </contour>
  </outline>
</glyph>
<glyph name="uni06CD" format="2">
  <advance width="753"/>
  <unicode hex="06CD"/>
  <anchor x="158" y="-73" name="bottom"/>
  <anchor x="370" y="449" name="top"/>
  <outline>
    <contour>
      <point x="384" y="-127" type="curve" smooth="yes"/>
      <point x="429" y="-127"/>
      <point x="477" y="-116"/>
      <point x="529" y="-94" type="curve" smooth="yes"/>
      <point x="634" y="-50"/>
      <point x="718" y="27"/>
      <point x="718" y="88" type="curve" smooth="yes"/>
      <point x="718" y="120"/>
      <point x="710" y="141"/>
      <point x="687" y="156" type="curve" smooth="yes"/>
      <point x="667" y="169"/>
      <point x="635" y="177"/>
      <point x="587" y="184" type="curve" smooth="yes"/>
      <point x="533" y="192"/>
      <point x="496" y="204"/>
      <point x="477" y="222" type="curve"/>
      <point x="483" y="247"/>
      <point x="495" y="272"/>
      <point x="516" y="299" type="curve" smooth="yes"/>
      <point x="556" y="351"/>
      <point x="616" y="393"/>
      <point x="651" y="393" type="curve" smooth="yes"/>
      <point x="668" y="393"/>
      <point x="674" y="391"/>
      <point x="684" y="378" type="curve"/>
      <point x="719" y="388" type="line"/>
      <point x="707" y="442"/>
      <point x="687" y="475"/>
      <point x="642" y="475" type="curve" smooth="yes"/>
      <point x="616" y="475"/>
      <point x="587" y="461"/>
      <point x="554" y="432" type="curve" smooth="yes"/>
      <point x="489" y="375"/>
      <point x="441" y="287"/>
      <point x="441" y="226" type="curve" smooth="yes"/>
      <point x="441" y="196"/>
      <point x="447" y="172"/>
      <point x="460" y="153" type="curve" smooth="yes"/>
      <point x="486" y="115"/>
      <point x="530" y="102"/>
      <point x="630" y="94" type="curve" smooth="yes"/>
      <point x="648" y="92"/>
      <point x="666" y="90"/>
      <point x="683" y="87" type="curve"/>
      <point x="672" y="65"/>
      <point x="651" y="44"/>
      <point x="619" y="24" type="curve" smooth="yes"/>
      <point x="557" y="-16"/>
      <point x="458" y="-44"/>
      <point x="387" y="-44" type="curve" smooth="yes"/>
      <point x="299" y="-44"/>
      <point x="248" y="13"/>
      <point x="248" y="111" type="curve" smooth="yes"/>
      <point x="248" y="139"/>
      <point x="256" y="173"/>
      <point x="268" y="211" type="curve"/>
      <point x="235" y="227" type="line"/>
      <point x="172" y="195"/>
      <point x="93" y="154"/>
      <point x="80" y="139" type="curve" smooth="yes"/>
      <point x="71" y="128"/>
      <point x="70" y="122"/>
      <point x="68" y="105" type="curve" smooth="yes"/>
      <point x="68" y="94"/>
      <point x="71" y="84"/>
      <point x="77" y="74" type="curve"/>
      <point x="122" y="98"/>
      <point x="166" y="122"/>
      <point x="210" y="146" type="curve"/>
      <point x="205" y="121"/>
      <point x="203" y="93"/>
      <point x="203" y="61" type="curve" smooth="yes"/>
      <point x="203" y="-59"/>
      <point x="270" y="-127"/>
    </contour>
  </outline>
</glyph>
<glyph name="uni06D2" format="2">
  <advance width="773"/>
  <unicode hex="06D2"/>
  <unicode hex="FBAE"/>
  <anchor x="459" y="83" name="bottom"/>
  <anchor x="242" y="496" name="top"/>
  <outline>
    <contour>
      <point x="406" y="135" type="curve" smooth="yes"/>
      <point x="516" y="135"/>
      <point x="666" y="153"/>
      <point x="720" y="180" type="curve" smooth="yes"/>
      <point x="744" y="192"/>
      <point x="755" y="206"/>
      <point x="755" y="224" type="curve" smooth="yes"/>
      <point x="755" y="235"/>
      <point x="751" y="246"/>
      <point x="741" y="257" type="curve"/>
      <point x="647" y="229"/>
      <point x="521" y="211"/>
      <point x="419" y="211" type="curve" smooth="yes"/>
      <point x="280" y="211"/>
      <point x="189" y="223"/>
      <point x="114" y="253" type="curve"/>
      <point x="146" y="275"/>
      <point x="167" y="288"/>
      <point x="195" y="300" type="curve" smooth="yes"/>
      <point x="218" y="310"/>
      <point x="247" y="320"/>
      <point x="292" y="333" type="curve" smooth="yes"/>
      <point x="334" y="346"/>
      <point x="359" y="373"/>
      <point x="379" y="432" type="curve"/>
      <point x="348" y="449" type="line"/>
      <point x="335" y="424"/>
      <point x="317" y="403"/>
      <point x="271" y="388" type="curve" smooth="yes"/>
      <point x="221" y="371"/>
      <point x="192" y="361"/>
      <point x="183" y="357" type="curve" smooth="yes"/>
      <point x="149" y="341"/>
      <point x="121" y="322"/>
      <point x="101" y="301" type="curve" smooth="yes"/>
      <point x="88" y="288"/>
      <point x="68" y="215"/>
      <point x="68" y="187" type="curve" smooth="yes"/>
      <point x="68" y="180"/>
      <point x="84" y="172"/>
      <point x="116" y="164" type="curve" smooth="yes"/>
      <point x="187" y="146"/>
      <point x="312" y="135"/>
    </contour>
  </outline>
</glyph>
<glyph name="uni06D4" format="2">
  <advance width="243"/>
  <unicode hex="06D4"/>
  <outline>
    <contour>
      <point x="44" y="135" type="curve" smooth="yes"/>
      <point x="198" y="135" type="line" smooth="yes"/>
      <point x="201" y="135"/>
      <point x="203" y="136"/>
      <point x="203" y="138" type="curve" smooth="yes"/>
      <point x="203" y="208" type="line" smooth="yes"/>
      <point x="203" y="210"/>
      <point x="200" y="211"/>
      <point x="198" y="211" type="curve" smooth="yes"/>
      <point x="44" y="211" type="line" smooth="yes"/>
      <point x="42" y="211"/>
      <point x="41" y="210"/>
      <point x="41" y="208" type="curve" smooth="yes"/>
      <point x="41" y="138" type="line" smooth="yes"/>
      <point x="41" y="136"/>
      <point x="42" y="135"/>
    </contour>
  </outline>
</glyph>
<glyph name="uni06D6" format="2">
  <unicode hex="06D6"/>
  <anchor x="9" y="614" name="_top"/>
  <anchor x="9" y="614" name="_top2"/>
  <anchor x="9" y="614" name="_top3"/>
  <anchor x="50" y="968" name="top3"/>
  <outline>
    <contour>
      <point x="-123" y="624" type="curve" smooth="yes"/>
      <point x="-79" y="624"/>
      <point x="3" y="621"/>
      <point x="3" y="649" type="curve" smooth="yes"/>
      <point x="3" y="653"/>
      <point x="1" y="658"/>
      <point x="-2" y="662" type="curve"/>
      <point x="-31" y="656"/>
      <point x="-70" y="653"/>
      <point x="-121" y="653" type="curve" smooth="yes"/>
      <point x="-164" y="653"/>
      <point x="-211" y="658"/>
      <point x="-231" y="664" type="curve"/>
      <point x="-202" y="683"/>
      <point x="-135" y="702"/>
      <point x="-96" y="710" type="curve" smooth="yes"/>
      <point x="-73" y="715" type="line"/>
      <point x="-63" y="705"/>
      <point x="-49" y="701"/>
      <point x="-30" y="701" type="curve" smooth="yes"/>
      <point x="-11" y="701"/>
      <point x="3" y="705"/>
      <point x="12" y="715" type="curve"/>
      <point x="18" y="722" type="line"/>
      <point x="39" y="710"/>
      <point x="79" y="701"/>
      <point x="120" y="701" type="curve" smooth="yes"/>
      <point x="142" y="701"/>
      <point x="162" y="704"/>
      <point x="180" y="711" type="curve" smooth="yes"/>
      <point x="217" y="724"/>
      <point x="241" y="746"/>
      <point x="241" y="781" type="curve" smooth="yes"/>
      <point x="241" y="801"/>
      <point x="198" y="835"/>
      <point x="174" y="835" type="curve" smooth="yes"/>
      <point x="140" y="835"/>
      <point x="99" y="803"/>
      <point x="52" y="739" type="curve"/>
      <point x="33" y="747" type="line"/>
      <point x="44" y="773" type="line"/>
      <point x="42" y="775"/>
      <point x="39" y="777"/>
      <point x="35" y="777" type="curve" smooth="yes"/>
      <point x="30" y="777"/>
      <point x="26" y="774"/>
      <point x="23" y="770" type="curve" smooth="yes"/>
      <point x="12" y="751" type="line" smooth="yes"/>
      <point x="5" y="739"/>
      <point x="-6" y="730"/>
      <point x="-30" y="730" type="curve" smooth="yes"/>
      <point x="-43" y="730"/>
      <point x="-56" y="733"/>
      <point x="-69" y="739" type="curve"/>
      <point x="-71" y="847" type="line" smooth="yes"/>
      <point x="-71" y="892"/>
      <point x="-72" y="928"/>
      <point x="-74" y="954" type="curve"/>
      <point x="-82" y="948"/>
      <point x="-90" y="941"/>
      <point x="-99" y="933" type="curve"/>
      <point x="-92" y="832"/>
      <point x="-87" y="768"/>
      <point x="-84" y="739" type="curve"/>
      <point x="-169" y="724"/>
      <point x="-206" y="707"/>
      <point x="-239" y="678" type="curve"/>
      <point x="-243" y="672"/>
      <point x="-249" y="651"/>
      <point x="-249" y="647" type="curve" smooth="yes"/>
      <point x="-249" y="642"/>
      <point x="-235" y="637"/>
      <point x="-207" y="632" type="curve" smooth="yes"/>
      <point x="-179" y="626"/>
      <point x="-151" y="624"/>
    </contour>
    <contour>
      <point x="124" y="730" type="curve" smooth="yes"/>
      <point x="105" y="730"/>
      <point x="87" y="732"/>
      <point x="69" y="735" type="curve"/>
      <point x="106" y="780"/>
      <point x="141" y="804"/>
      <point x="166" y="804" type="curve" smooth="yes"/>
      <point x="183" y="804"/>
      <point x="208" y="791"/>
      <point x="224" y="762" type="curve"/>
      <point x="190" y="740"/>
      <point x="157" y="730"/>
    </contour>
  </outline>
</glyph>
<glyph name="uni06D7" format="2">
  <unicode hex="06D7"/>
  <anchor x="0" y="614" name="_top"/>
  <anchor x="0" y="614" name="_top2"/>
  <anchor x="0" y="614" name="_top3"/>
  <anchor x="-94" y="964" name="top3"/>
  <outline>
    <contour>
      <point x="-50" y="624" type="curve" smooth="yes"/>
      <point x="-11" y="624"/>
      <point x="20" y="625"/>
      <point x="42" y="628" type="curve" smooth="yes"/>
      <point x="65" y="630"/>
      <point x="77" y="637"/>
      <point x="77" y="649" type="curve" smooth="yes"/>
      <point x="77" y="653"/>
      <point x="75" y="657"/>
      <point x="71" y="662" type="curve"/>
      <point x="42" y="656"/>
      <point x="3" y="653"/>
      <point x="-47" y="653" type="curve" smooth="yes"/>
      <point x="-90" y="653"/>
      <point x="-137" y="658"/>
      <point x="-158" y="664" type="curve"/>
      <point x="-142" y="674"/>
      <point x="-115" y="685"/>
      <point x="-77" y="696" type="curve" smooth="yes"/>
      <point x="-65" y="700"/>
      <point x="-39" y="706"/>
      <point x="0" y="715" type="curve"/>
      <point x="11" y="705"/>
      <point x="25" y="701"/>
      <point x="44" y="701" type="curve" smooth="yes"/>
      <point x="95" y="701"/>
      <point x="133" y="705"/>
      <point x="168" y="728" type="curve"/>
      <point x="178" y="746"/>
      <point x="182" y="759"/>
      <point x="182" y="766" type="curve" smooth="yes"/>
      <point x="182" y="824"/>
      <point x="156" y="875"/>
      <point x="115" y="875" type="curve" smooth="yes"/>
      <point x="90" y="875"/>
      <point x="68" y="842"/>
      <point x="68" y="802" type="curve" smooth="yes"/>
      <point x="68" y="778"/>
      <point x="83" y="759"/>
      <point x="105" y="759" type="curve" smooth="yes"/>
      <point x="124" y="759"/>
      <point x="146" y="767"/>
      <point x="159" y="779" type="curve"/>
      <point x="164" y="750" type="line"/>
      <point x="135" y="736"/>
      <point x="95" y="730"/>
      <point x="44" y="730" type="curve" smooth="yes"/>
      <point x="31" y="730"/>
      <point x="17" y="733"/>
      <point x="4" y="739" type="curve"/>
      <point x="0" y="954" type="line"/>
      <point x="-10" y="947"/>
      <point x="-18" y="940"/>
      <point x="-26" y="933" type="curve"/>
      <point x="-23" y="900"/>
      <point x="-21" y="868"/>
      <point x="-19" y="834" type="curve" smooth="yes"/>
      <point x="-17" y="801"/>
      <point x="-14" y="770"/>
      <point x="-11" y="739" type="curve"/>
      <point x="-98" y="723"/>
      <point x="-134" y="706"/>
      <point x="-166" y="678" type="curve"/>
      <point x="-169" y="674"/>
      <point x="-175" y="653"/>
      <point x="-175" y="647" type="curve" smooth="yes"/>
      <point x="-175" y="642"/>
      <point x="-162" y="637"/>
      <point x="-134" y="632" type="curve" smooth="yes"/>
      <point x="-107" y="626"/>
      <point x="-78" y="624"/>
    </contour>
    <contour>
      <point x="114" y="787" type="curve" smooth="yes"/>
      <point x="93" y="787"/>
      <point x="83" y="795"/>
      <point x="83" y="809" type="curve" smooth="yes"/>
      <point x="83" y="828"/>
      <point x="94" y="843"/>
      <point x="110" y="843" type="curve" smooth="yes"/>
      <point x="129" y="843"/>
      <point x="146" y="824"/>
      <point x="154" y="797" type="curve"/>
      <point x="139" y="790"/>
      <point x="126" y="787"/>
    </contour>
    <contour>
      <point x="77" y="893" type="curve"/>
      <point x="89" y="905"/>
      <point x="96" y="914"/>
      <point x="99" y="919" type="curve"/>
      <point x="76" y="942" type="line"/>
      <point x="52" y="917" type="line"/>
      <point x="57" y="910"/>
      <point x="65" y="902"/>
    </contour>
    <contour>
      <point x="133" y="899" type="curve"/>
      <point x="144" y="909"/>
      <point x="151" y="917"/>
      <point x="156" y="925" type="curve"/>
      <point x="133" y="947" type="line"/>
      <point x="108" y="922" type="line"/>
      <point x="117" y="913"/>
      <point x="125" y="905"/>
    </contour>
  </outline>
</glyph>
<glyph name="uni06D8" format="2">
  <unicode hex="06D8"/>
  <anchor x="-1" y="574" name="_top"/>
  <anchor x="-1" y="574" name="_top2"/>
  <anchor x="-1" y="574" name="_top3"/>
  <anchor x="-9" y="736" name="top3"/>
  <outline>
    <contour>
      <point x="-160" y="532" type="curve" smooth="yes"/>
      <point x="-104" y="532"/>
      <point x="-61" y="564"/>
      <point x="-33" y="606" type="curve"/>
      <point x="-10" y="593"/>
      <point x="23" y="584"/>
      <point x="51" y="584" type="curve"/>
      <point x="62" y="592"/>
      <point x="70" y="603"/>
      <point x="70" y="623" type="curve" smooth="yes"/>
      <point x="70" y="661"/>
      <point x="49" y="712"/>
      <point x="24" y="712" type="curve" smooth="yes"/>
      <point x="-7" y="712"/>
      <point x="-18" y="673"/>
      <point x="-36" y="645" type="curve" smooth="yes"/>
      <point x="-73" y="583"/>
      <point x="-120" y="546"/>
      <point x="-194" y="546" type="curve"/>
      <point x="-194" y="536" type="line"/>
      <point x="-181" y="534"/>
      <point x="-170" y="532"/>
    </contour>
    <contour>
      <point x="43" y="613" type="curve"/>
      <point x="19" y="614"/>
      <point x="2" y="620"/>
      <point x="-19" y="632" type="curve"/>
      <point x="-11" y="647"/>
      <point x="-5" y="658"/>
      <point x="1" y="666" type="curve" smooth="yes"/>
      <point x="7" y="674"/>
      <point x="12" y="678"/>
      <point x="18" y="678" type="curve" smooth="yes"/>
      <point x="30" y="678"/>
      <point x="42" y="639"/>
    </contour>
  </outline>
</glyph>
<glyph name="uni06D9" format="2">
  <unicode hex="06D9"/>
  <anchor x="0" y="591" name="_top"/>
  <anchor x="0" y="591" name="_top2"/>
  <anchor x="0" y="591" name="_top3"/>
  <anchor x="-38" y="879" name="top3"/>
  <outline>
    <contour>
      <point x="-64" y="600" type="line"/>
      <point x="-44" y="600" type="line" smooth="yes"/>
      <point x="-5" y="600"/>
      <point x="26" y="602"/>
      <point x="48" y="607" type="curve"/>
      <point x="52" y="609"/>
      <point x="60" y="625"/>
      <point x="60" y="632" type="curve" smooth="yes"/>
      <point x="60" y="638"/>
      <point x="50" y="656"/>
      <point x="31" y="688" type="curve"/>
      <point x="41" y="705"/>
      <point x="46" y="724"/>
      <point x="46" y="744" type="curve" smooth="yes"/>
      <point x="43" y="806" type="line"/>
      <point x="53" y="815" type="line"/>
      <point x="46" y="837"/>
      <point x="42" y="852"/>
      <point x="40" y="860" type="curve"/>
      <point x="23" y="856"/>
      <point x="14" y="848"/>
      <point x="14" y="835" type="curve"/>
      <point x="19" y="806" type="line" smooth="yes"/>
      <point x="24" y="772"/>
      <point x="27" y="748"/>
      <point x="27" y="737" type="curve" smooth="yes"/>
      <point x="27" y="726"/>
      <point x="25" y="716"/>
      <point x="20" y="706" type="curve" smooth="yes"/>
      <point x="20" y="704" type="line"/>
      <point x="-3" y="732"/>
      <point x="-50" y="776"/>
      <point x="-90" y="805" type="curve"/>
      <point x="-98" y="801"/>
      <point x="-103" y="794"/>
      <point x="-103" y="783" type="curve" smooth="yes"/>
      <point x="-102" y="774"/>
      <point x="-96" y="763"/>
      <point x="-84" y="752" type="curve"/>
      <point x="-71" y="752" type="line"/>
      <point x="-45" y="738"/>
      <point x="-18" y="715"/>
      <point x="9" y="686" type="curve"/>
      <point x="-2" y="671"/>
      <point x="-22" y="652"/>
      <point x="-51" y="629" type="curve"/>
      <point x="-60" y="629" type="line" smooth="yes"/>
      <point x="-62" y="629"/>
      <point x="-65" y="613"/>
      <point x="-65" y="605" type="curve"/>
    </contour>
    <contour>
      <point x="-21" y="630" type="line"/>
      <point x="-5" y="642"/>
      <point x="9" y="656"/>
      <point x="21" y="671" type="curve"/>
      <point x="31" y="658"/>
      <point x="39" y="647"/>
      <point x="44" y="636" type="curve"/>
      <point x="27" y="634"/>
      <point x="9" y="632"/>
      <point x="-10" y="631" type="curve" smooth="yes"/>
    </contour>
  </outline>
</glyph>
<glyph name="uni06DA" format="2">
  <unicode hex="06DA"/>
  <anchor x="0" y="510" name="_top"/>
  <anchor x="0" y="510" name="_top2"/>
  <anchor x="0" y="510" name="_top3"/>
  <anchor x="-7" y="804" name="top3"/>
  <outline>
    <contour>
      <point x="2" y="520" type="curve" smooth="yes"/>
      <point x="31" y="520"/>
      <point x="63" y="530"/>
      <point x="100" y="549" type="curve"/>
      <point x="95" y="562" type="line"/>
      <point x="64" y="555"/>
      <point x="33" y="552"/>
      <point x="3" y="552" type="curve" smooth="yes"/>
      <point x="-47" y="552"/>
      <point x="-83" y="577"/>
      <point x="-83" y="616" type="curve" smooth="yes"/>
      <point x="-83" y="634"/>
      <point x="-76" y="651"/>
      <point x="-63" y="667" type="curve" smooth="yes"/>
      <point x="-37" y="698"/>
      <point x="18" y="721"/>
      <point x="62" y="723" type="curve" smooth="yes"/>
      <point x="81" y="725" type="line"/>
      <point x="91" y="754" type="line"/>
      <point x="78" y="753" type="line"/>
      <point x="66" y="753" type="line" smooth="yes"/>
      <point x="51" y="753"/>
      <point x="29" y="758"/>
      <point x="1" y="766" type="curve" smooth="yes"/>
      <point x="-28" y="775"/>
      <point x="-49" y="780"/>
      <point x="-62" y="780" type="curve" smooth="yes"/>
      <point x="-89" y="780"/>
      <point x="-108" y="767"/>
      <point x="-108" y="748" type="curve" smooth="yes"/>
      <point x="-108" y="745"/>
      <point x="-106" y="740"/>
      <point x="-103" y="733" type="curve"/>
      <point x="-90" y="741"/>
      <point x="-81" y="748"/>
      <point x="-61" y="748" type="curve" smooth="yes"/>
      <point x="-54" y="748"/>
      <point x="-47" y="747"/>
      <point x="-39" y="744" type="curve" smooth="yes"/>
      <point x="-8" y="734" type="line"/>
      <point x="-58" y="715"/>
      <point x="-95" y="668"/>
      <point x="-95" y="616" type="curve" smooth="yes"/>
      <point x="-95" y="555"/>
      <point x="-59" y="520"/>
    </contour>
    <contour>
      <point x="1" y="588" type="curve"/>
      <point x="11" y="598"/>
      <point x="19" y="607"/>
      <point x="26" y="616" type="curve"/>
      <point x="19" y="621"/>
      <point x="11" y="630"/>
      <point x="1" y="640" type="curve"/>
      <point x="-25" y="613" type="line"/>
      <point x="-19" y="605"/>
      <point x="-10" y="597"/>
    </contour>
  </outline>
</glyph>
<glyph name="uni06DB" format="2">
  <unicode hex="06DB"/>
  <anchor x="0" y="409" name="_top"/>
  <anchor x="0" y="409" name="_top2"/>
  <anchor x="0" y="409" name="_top3"/>
  <anchor x="-1" y="601" name="top3"/>
  <outline>
    <contour>
      <point x="54" y="427" type="curve"/>
      <point x="67" y="439"/>
      <point x="80" y="454"/>
      <point x="93" y="472" type="curve"/>
      <point x="53" y="512" type="line"/>
      <point x="33" y="491" type="line"/>
      <point x="10" y="468" type="line"/>
      <point x="19" y="458"/>
      <point x="33" y="445"/>
    </contour>
    <contour>
      <point x="-51" y="419" type="curve"/>
      <point x="-37" y="431"/>
      <point x="-24" y="446"/>
      <point x="-12" y="464" type="curve"/>
      <point x="-52" y="503" type="line"/>
      <point x="-76" y="478"/>
      <point x="-90" y="463"/>
      <point x="-95" y="459" type="curve"/>
      <point x="-82" y="445"/>
      <point x="-68" y="431"/>
    </contour>
    <contour>
      <point x="0" y="501" type="curve"/>
      <point x="5" y="504"/>
      <point x="17" y="516"/>
      <point x="37" y="537" type="curve"/>
      <point x="20" y="552"/>
      <point x="7" y="565"/>
      <point x="-2" y="577" type="curve"/>
      <point x="-13" y="564"/>
      <point x="-26" y="551"/>
      <point x="-42" y="537" type="curve"/>
      <point x="-29" y="521"/>
      <point x="-15" y="509"/>
    </contour>
  </outline>
</glyph>
<glyph name="uni06DC" format="2">
  <unicode hex="06DC"/>
  <anchor x="75" y="557" name="_top"/>
  <anchor x="75" y="557" name="_top2"/>
  <anchor x="75" y="557" name="_top3"/>
  <anchor x="5" y="782" name="top3"/>
  <outline>
    <contour>
      <point x="-92" y="557" type="curve" smooth="yes"/>
      <point x="-37" y="557"/>
      <point x="16" y="601"/>
      <point x="16" y="649" type="curve" smooth="yes"/>
      <point x="16" y="663" type="line"/>
      <point x="18" y="663" type="line"/>
      <point x="29" y="663" type="line" smooth="yes"/>
      <point x="59" y="663"/>
      <point x="75" y="666"/>
      <point x="79" y="673" type="curve" smooth="yes"/>
      <point x="82" y="678" type="line"/>
      <point x="110" y="666"/>
      <point x="132" y="663"/>
      <point x="162" y="663" type="curve"/>
      <point x="167" y="674"/>
      <point x="176" y="698"/>
      <point x="176" y="709" type="curve" smooth="yes"/>
      <point x="176" y="721"/>
      <point x="174" y="733"/>
      <point x="171" y="748" type="curve" smooth="yes"/>
      <point x="167" y="762"/>
      <point x="164" y="776"/>
      <point x="162" y="791" type="curve"/>
      <point x="145" y="781"/>
      <point x="137" y="770"/>
      <point x="137" y="759" type="curve" smooth="yes"/>
      <point x="137" y="753"/>
      <point x="139" y="745"/>
      <point x="144" y="734" type="curve" smooth="yes"/>
      <point x="149" y="723"/>
      <point x="154" y="709"/>
      <point x="158" y="693" type="curve"/>
      <point x="131" y="693"/>
      <point x="118" y="695"/>
      <point x="92" y="707" type="curve"/>
      <point x="93" y="711" type="line" smooth="yes"/>
      <point x="99" y="732"/>
      <point x="104" y="746"/>
      <point x="108" y="755" type="curve"/>
      <point x="106" y="757"/>
      <point x="103" y="758"/>
      <point x="100" y="758" type="curve" smooth="yes"/>
      <point x="94" y="758"/>
      <point x="90" y="755"/>
      <point x="86" y="749" type="curve" smooth="yes"/>
      <point x="83" y="743"/>
      <point x="78" y="729"/>
      <point x="71" y="706" type="curve"/>
      <point x="66" y="696" type="line"/>
      <point x="59" y="693"/>
      <point x="48" y="692"/>
      <point x="34" y="692" type="curve" smooth="yes"/>
      <point x="25" y="692"/>
      <point x="17" y="693"/>
      <point x="10" y="695" type="curve"/>
      <point x="7" y="709"/>
      <point x="4" y="724"/>
      <point x="1" y="741" type="curve"/>
      <point x="-12" y="733"/>
      <point x="-23" y="724"/>
      <point x="-23" y="708" type="curve" smooth="yes"/>
      <point x="-23" y="694"/>
      <point x="-15" y="670"/>
      <point x="1" y="635" type="curve"/>
      <point x="-12" y="608"/>
      <point x="-53" y="589"/>
      <point x="-91" y="589" type="curve" smooth="yes"/>
      <point x="-122" y="589"/>
      <point x="-144" y="608"/>
      <point x="-144" y="647" type="curve" smooth="yes"/>
      <point x="-144" y="653"/>
      <point x="-142" y="662"/>
      <point x="-139" y="673" type="curve"/>
      <point x="-153" y="677" type="line"/>
      <point x="-158" y="659"/>
      <point x="-160" y="643"/>
      <point x="-160" y="628" type="curve" smooth="yes"/>
      <point x="-160" y="587"/>
      <point x="-139" y="557"/>
    </contour>
  </outline>
</glyph>
<glyph name="uni06DD" format="2">
  <advance width="189"/>
  <unicode hex="06DD"/>
  <outline>
    <contour>
      <point x="602" y="-195" type="curve"/>
      <point x="623" y="-165"/>
      <point x="660" y="-132"/>
      <point x="704" y="-122" type="curve" smooth="yes"/>
      <point x="888" y="-79"/>
      <point x="1021" y="18"/>
      <point x="1105" y="166" type="curve"/>
      <point x="1099" y="170"/>
      <point x="1093" y="174"/>
      <point x="1086" y="174" type="curve" smooth="yes"/>
      <point x="1081" y="174"/>
      <point x="1074" y="172"/>
      <point x="1067" y="166" type="curve"/>
      <point x="1112" y="251"/>
      <point x="1132" y="336"/>
      <point x="1132" y="435" type="curve" smooth="yes"/>
      <point x="1132" y="530"/>
      <point x="1112" y="616"/>
      <point x="1067" y="699" type="curve"/>
      <point x="1075" y="697"/>
      <point x="1081" y="696"/>
      <point x="1087" y="696" type="curve" smooth="yes"/>
      <point x="1090" y="696"/>
      <point x="1093" y="696"/>
      <point x="1096" y="697" type="curve" smooth="yes"/>
      <point x="1099" y="698"/>
      <point x="1102" y="699"/>
      <point x="1105" y="699" type="curve"/>
      <point x="1063" y="773"/>
      <point x="1006" y="835"/>
      <point x="938" y="885" type="curve" smooth="yes"/>
      <point x="869" y="933"/>
      <point x="790" y="968"/>
      <point x="704" y="986" type="curve" smooth="yes"/>
      <point x="657" y="997"/>
      <point x="623" y="1034"/>
      <point x="602" y="1065" type="curve"/>
      <point x="577" y="1032"/>
      <point x="545" y="991"/>
      <point x="506" y="986" type="curve" smooth="yes"/>
      <point x="422" y="974"/>
      <point x="343" y="939"/>
      <point x="275" y="888" type="curve" smooth="yes"/>
      <point x="207" y="838"/>
      <point x="149" y="773"/>
      <point x="109" y="699" type="curve"/>
      <point x="111" y="699"/>
      <point x="114" y="698"/>
      <point x="117" y="697" type="curve" smooth="yes"/>
      <point x="119" y="696"/>
      <point x="122" y="696"/>
      <point x="126" y="696" type="curve" smooth="yes"/>
      <point x="131" y="696"/>
      <point x="137" y="697"/>
      <point x="144" y="699" type="curve"/>
      <point x="101" y="616"/>
      <point x="71" y="530"/>
      <point x="71" y="435" type="curve" smooth="yes"/>
      <point x="71" y="385"/>
      <point x="79" y="340"/>
      <point x="92" y="295" type="curve" smooth="yes"/>
      <point x="104" y="251"/>
      <point x="123" y="208"/>
      <point x="144" y="166" type="curve"/>
      <point x="137" y="172"/>
      <point x="131" y="174"/>
      <point x="126" y="174" type="curve" smooth="yes"/>
      <point x="119" y="174"/>
      <point x="113" y="170"/>
      <point x="109" y="166" type="curve"/>
      <point x="150" y="92"/>
      <point x="201" y="29"/>
      <point x="267" y="-20" type="curve" smooth="yes"/>
      <point x="331" y="-68"/>
      <point x="410" y="-104"/>
      <point x="506" y="-122" type="curve" smooth="yes"/>
      <point x="547" y="-127"/>
      <point x="580" y="-165"/>
    </contour>
    <contour>
      <point x="461" y="-76" type="curve"/>
      <point x="396" y="-54"/>
      <point x="337" y="-26"/>
      <point x="285" y="11" type="curve"/>
      <point x="276" y="17"/>
      <point x="271" y="26"/>
      <point x="271" y="35" type="curve" smooth="yes"/>
      <point x="271" y="51"/>
      <point x="285" y="66"/>
      <point x="300" y="66" type="curve" smooth="yes"/>
      <point x="307" y="66"/>
      <point x="315" y="64"/>
      <point x="322" y="57" type="curve"/>
      <point x="364" y="28"/>
      <point x="428" y="-4"/>
      <point x="477" y="-19" type="curve"/>
      <point x="490" y="-25"/>
      <point x="500" y="-34"/>
      <point x="500" y="-48" type="curve" smooth="yes"/>
      <point x="500" y="-48"/>
      <point x="500" y="-50"/>
      <point x="499" y="-54" type="curve" smooth="yes"/>
      <point x="494" y="-71"/>
      <point x="477" y="-76"/>
    </contour>
    <contour>
      <point x="602" y="-112" type="curve" smooth="yes"/>
      <point x="572" y="-112"/>
      <point x="552" y="-91"/>
      <point x="552" y="-61" type="curve" smooth="yes"/>
      <point x="552" y="-30"/>
      <point x="572" y="-11"/>
      <point x="602" y="-11" type="curve" smooth="yes"/>
      <point x="632" y="-11"/>
      <point x="655" y="-32"/>
      <point x="655" y="-61" type="curve" smooth="yes"/>
      <point x="655" y="-91"/>
      <point x="633" y="-112"/>
    </contour>
    <contour>
      <point x="744" y="-75" type="curve"/>
      <point x="725" y="-75"/>
      <point x="705" y="-67"/>
      <point x="705" y="-44" type="curve" smooth="yes"/>
      <point x="705" y="-29"/>
      <point x="716" y="-21"/>
      <point x="729" y="-15" type="curve"/>
      <point x="780" y="-1"/>
      <point x="840" y="29"/>
      <point x="885" y="58" type="curve"/>
      <point x="892" y="65"/>
      <point x="900" y="69"/>
      <point x="906" y="69" type="curve" smooth="yes"/>
      <point x="914" y="69"/>
      <point x="921" y="65"/>
      <point x="927" y="58" type="curve" smooth="yes"/>
      <point x="931" y="53"/>
      <point x="934" y="46"/>
      <point x="934" y="40" type="curve" smooth="yes"/>
      <point x="934" y="29"/>
      <point x="929" y="21"/>
      <point x="920" y="14" type="curve" smooth="yes"/>
      <point x="868" y="-21"/>
      <point x="810" y="-51"/>
    </contour>
    <contour>
      <point x="683" y="8" type="curve" smooth="yes"/>
      <point x="653" y="8"/>
      <point x="623" y="25"/>
      <point x="602" y="43" type="curve"/>
      <point x="581" y="25"/>
      <point x="556" y="9"/>
      <point x="524" y="9" type="curve" smooth="yes"/>
      <point x="518" y="9"/>
      <point x="512" y="10"/>
      <point x="506" y="11" type="curve" smooth="yes"/>
      <point x="415" y="34"/>
      <point x="350" y="71"/>
      <point x="300" y="130" type="curve"/>
      <point x="293" y="127"/>
      <point x="281" y="124"/>
      <point x="269" y="124" type="curve"/>
      <point x="180" y="205"/>
      <point x="136" y="313"/>
      <point x="136" y="435" type="curve" smooth="yes"/>
      <point x="136" y="560"/>
      <point x="181" y="662"/>
      <point x="269" y="750" type="curve"/>
      <point x="281" y="742"/>
      <point x="294" y="741"/>
      <point x="300" y="741" type="curve"/>
      <point x="351" y="794"/>
      <point x="424" y="838"/>
      <point x="506" y="854" type="curve" smooth="yes"/>
      <point x="516" y="856"/>
      <point x="527" y="857"/>
      <point x="536" y="857" type="curve" smooth="yes"/>
      <point x="569" y="857"/>
      <point x="589" y="846"/>
      <point x="602" y="831" type="curve"/>
      <point x="618" y="847"/>
      <point x="641" y="857"/>
      <point x="675" y="857" type="curve" smooth="yes"/>
      <point x="684" y="857"/>
      <point x="694" y="856"/>
      <point x="704" y="854" type="curve" smooth="yes"/>
      <point x="777" y="839"/>
      <point x="853" y="794"/>
      <point x="905" y="741" type="curve"/>
      <point x="911" y="741"/>
      <point x="922" y="742"/>
      <point x="934" y="750" type="curve"/>
      <point x="1023" y="662"/>
      <point x="1065" y="560"/>
      <point x="1067" y="435" type="curve" smooth="yes"/>
      <point x="1067" y="377"/>
      <point x="1055" y="319"/>
      <point x="1034" y="267" type="curve" smooth="yes"/>
      <point x="1012" y="214"/>
      <point x="978" y="165"/>
      <point x="934" y="124" type="curve"/>
      <point x="922" y="124"/>
      <point x="912" y="127"/>
      <point x="905" y="130" type="curve"/>
      <point x="879" y="101"/>
      <point x="850" y="79"/>
      <point x="818" y="60" type="curve" smooth="yes"/>
      <point x="786" y="42"/>
      <point x="749" y="27"/>
      <point x="704" y="11" type="curve" smooth="yes"/>
      <point x="697" y="9"/>
      <point x="690" y="8"/>
    </contour>
    <contour>
      <point x="301" y="801" type="curve" smooth="yes"/>
      <point x="287" y="801"/>
      <point x="273" y="815"/>
      <point x="273" y="831" type="curve" smooth="yes"/>
      <point x="273" y="841"/>
      <point x="278" y="851"/>
      <point x="287" y="856" type="curve"/>
      <point x="338" y="893"/>
      <point x="397" y="923"/>
      <point x="462" y="945" type="curve"/>
      <point x="478" y="945"/>
      <point x="495" y="941"/>
      <point x="499" y="924" type="curve" smooth="yes"/>
      <point x="500" y="921"/>
      <point x="500" y="919"/>
      <point x="500" y="917" type="curve" smooth="yes"/>
      <point x="500" y="904"/>
      <point x="492" y="892"/>
      <point x="478" y="887" type="curve"/>
      <point x="427" y="871"/>
      <point x="366" y="841"/>
      <point x="323" y="812" type="curve"/>
      <point x="316" y="805"/>
      <point x="308" y="801"/>
    </contour>
    <contour>
      <point x="602" y="875" type="curve" smooth="yes"/>
      <point x="572" y="875"/>
      <point x="552" y="896"/>
      <point x="552" y="927" type="curve" smooth="yes"/>
      <point x="552" y="957"/>
      <point x="572" y="977"/>
      <point x="602" y="977" type="curve" smooth="yes"/>
      <point x="633" y="977"/>
      <point x="655" y="957"/>
      <point x="655" y="927" type="curve" smooth="yes"/>
      <point x="655" y="896"/>
      <point x="633" y="875"/>
    </contour>
    <contour>
      <point x="907" y="799" type="curve" smooth="yes"/>
      <point x="900" y="799"/>
      <point x="892" y="803"/>
      <point x="885" y="810" type="curve"/>
      <point x="840" y="839"/>
      <point x="783" y="869"/>
      <point x="730" y="885" type="curve" smooth="yes"/>
      <point x="717" y="888"/>
      <point x="707" y="904"/>
      <point x="707" y="918" type="curve" smooth="yes"/>
      <point x="707" y="940"/>
      <point x="727" y="943"/>
      <point x="745" y="943" type="curve"/>
      <point x="810" y="919"/>
      <point x="868" y="890"/>
      <point x="922" y="854" type="curve"/>
      <point x="930" y="850"/>
      <point x="935" y="840"/>
      <point x="935" y="830" type="curve" smooth="yes"/>
      <point x="935" y="822"/>
      <point x="932" y="815"/>
      <point x="927" y="810" type="curve" smooth="yes"/>
      <point x="922" y="803"/>
      <point x="914" y="799"/>
    </contour>
  </outline>
</glyph>
<glyph name="uni06DE" format="2">
  <advance width="921"/>
  <unicode hex="06DE"/>
  <outline>
    <contour>
      <point x="460" y="-54" type="line"/>
      <point x="590" y="75" type="line"/>
      <point x="773" y="75" type="line"/>
      <point x="773" y="257" type="line"/>
      <point x="901" y="386" type="line"/>
      <point x="773" y="515" type="line"/>
      <point x="773" y="697" type="line"/>
      <point x="590" y="697" type="line"/>
      <point x="460" y="826" type="line"/>
      <point x="333" y="697" type="line"/>
      <point x="149" y="697" type="line"/>
      <point x="149" y="515" type="line"/>
      <point x="21" y="386" type="line"/>
      <point x="149" y="257" type="line"/>
      <point x="149" y="75" type="line"/>
      <point x="333" y="75" type="line"/>
    </contour>
    <contour>
      <point x="181" y="107" type="line"/>
      <point x="181" y="226" type="line"/>
      <point x="301" y="107" type="line"/>
    </contour>
    <contour>
      <point x="460" y="-10" type="line"/>
      <point x="375" y="75" type="line"/>
      <point x="546" y="75" type="line"/>
    </contour>
    <contour>
      <point x="149" y="301" type="line"/>
      <point x="65" y="386" type="line"/>
      <point x="149" y="471" type="line"/>
    </contour>
    <contour>
      <point x="181" y="547" type="line"/>
      <point x="181" y="666" type="line"/>
      <point x="301" y="666" type="line"/>
    </contour>
    <contour>
      <point x="621" y="107" type="line"/>
      <point x="741" y="226" type="line"/>
      <point x="741" y="107" type="line"/>
    </contour>
    <contour>
      <point x="345" y="107" type="line"/>
      <point x="181" y="270" type="line"/>
      <point x="181" y="502" type="line"/>
      <point x="345" y="666" type="line"/>
      <point x="577" y="666" type="line"/>
      <point x="741" y="502" type="line"/>
      <point x="741" y="270" type="line"/>
      <point x="577" y="107" type="line"/>
    </contour>
    <contour>
      <point x="460" y="296" type="curve" smooth="yes"/>
      <point x="511" y="296"/>
      <point x="551" y="336"/>
      <point x="551" y="386" type="curve" smooth="yes"/>
      <point x="551" y="436"/>
      <point x="511" y="476"/>
      <point x="460" y="476" type="curve" smooth="yes"/>
      <point x="412" y="476"/>
      <point x="371" y="436"/>
      <point x="371" y="386" type="curve" smooth="yes"/>
      <point x="371" y="336"/>
      <point x="412" y="296"/>
    </contour>
    <contour>
      <point x="460" y="326" type="curve" smooth="yes"/>
      <point x="428" y="326"/>
      <point x="402" y="353"/>
      <point x="402" y="386" type="curve" smooth="yes"/>
      <point x="402" y="419"/>
      <point x="428" y="446"/>
      <point x="460" y="446" type="curve" smooth="yes"/>
      <point x="494" y="446"/>
      <point x="520" y="419"/>
      <point x="520" y="386" type="curve" smooth="yes"/>
      <point x="520" y="353"/>
      <point x="494" y="326"/>
    </contour>
    <contour>
      <point x="375" y="697" type="line"/>
      <point x="460" y="783" type="line"/>
      <point x="546" y="697" type="line"/>
    </contour>
    <contour>
      <point x="773" y="301" type="line"/>
      <point x="773" y="471" type="line"/>
      <point x="856" y="386" type="line"/>
    </contour>
    <contour>
      <point x="741" y="547" type="line"/>
      <point x="621" y="666" type="line"/>
      <point x="741" y="666" type="line"/>
    </contour>
  </outline>
</glyph>
<glyph name="uni06DF" format="2">
  <unicode hex="06DF"/>
  <anchor x="0" y="577" name="_top"/>
  <anchor x="0" y="577" name="_top2"/>
  <anchor x="0" y="577" name="_top3"/>
  <anchor x="0" y="717" name="top3"/>
  <outline>
    <contour>
      <point x="0" y="587" type="curve" smooth="yes"/>
      <point x="32" y="587"/>
      <point x="54" y="608"/>
      <point x="54" y="645" type="curve" smooth="yes"/>
      <point x="54" y="682"/>
      <point x="32" y="702"/>
      <point x="0" y="702" type="curve" smooth="yes"/>
      <point x="-30" y="702"/>
      <point x="-54" y="685"/>
      <point x="-54" y="645" type="curve" smooth="yes"/>
      <point x="-54" y="604"/>
      <point x="-30" y="587"/>
    </contour>
    <contour>
      <point x="0" y="613" type="curve" smooth="yes"/>
      <point x="-20" y="613"/>
      <point x="-30" y="624"/>
      <point x="-30" y="645" type="curve" smooth="yes"/>
      <point x="-30" y="666"/>
      <point x="-20" y="677"/>
      <point x="0" y="677" type="curve" smooth="yes"/>
      <point x="16" y="677"/>
      <point x="30" y="668"/>
      <point x="30" y="645" type="curve" smooth="yes"/>
      <point x="30" y="622"/>
      <point x="16" y="613"/>
    </contour>
  </outline>
</glyph>
<glyph name="uni06E0" format="2">
  <unicode hex="06E0"/>
  <anchor x="0" y="538" name="_top"/>
  <anchor x="0" y="538" name="_top2"/>
  <anchor x="0" y="538" name="_top3"/>
  <anchor x="0" y="717" name="top3"/>
  <outline>
    <contour>
      <point x="0" y="548" type="curve" smooth="yes"/>
      <point x="36" y="548"/>
      <point x="54" y="574"/>
      <point x="54" y="625" type="curve" smooth="yes"/>
      <point x="54" y="677"/>
      <point x="36" y="702"/>
      <point x="0" y="702" type="curve" smooth="yes"/>
      <point x="-36" y="702"/>
      <point x="-54" y="677"/>
      <point x="-54" y="625" type="curve" smooth="yes"/>
      <point x="-54" y="574"/>
      <point x="-36" y="548"/>
    </contour>
    <contour>
      <point x="0" y="574" type="curve" smooth="yes"/>
      <point x="-21" y="574"/>
      <point x="-30" y="589"/>
      <point x="-30" y="625" type="curve" smooth="yes"/>
      <point x="-30" y="662"/>
      <point x="-21" y="677"/>
      <point x="0" y="677" type="curve" smooth="yes"/>
      <point x="21" y="677"/>
      <point x="30" y="662"/>
      <point x="30" y="625" type="curve" smooth="yes"/>
      <point x="30" y="589"/>
      <point x="21" y="574"/>
    </contour>
  </outline>
</glyph>
<glyph name="uni06E1" format="2">
  <unicode hex="06E1"/>
  <anchor x="0" y="577" name="_top"/>
  <anchor x="0" y="577" name="_top2"/>
  <anchor x="0" y="577" name="_top3"/>
  <anchor x="0" y="739" name="top3"/>
  <outline>
    <contour>
      <point x="-53" y="587" type="line"/>
      <point x="-49" y="587" type="line" smooth="yes"/>
      <point x="25" y="587"/>
      <point x="64" y="634"/>
      <point x="84" y="699" type="curve"/>
      <point x="53" y="709"/>
      <point x="28" y="715"/>
      <point x="-6" y="715" type="curve" smooth="yes"/>
      <point x="-47" y="715"/>
      <point x="-64" y="697"/>
      <point x="-64" y="680" type="curve" smooth="yes"/>
      <point x="-64" y="672"/>
      <point x="-61" y="668"/>
      <point x="-59" y="664" type="curve"/>
      <point x="-49" y="675"/>
      <point x="-34" y="681"/>
      <point x="-11" y="681" type="curve" smooth="yes"/>
      <point x="9" y="681"/>
      <point x="29" y="680"/>
      <point x="47" y="676" type="curve"/>
      <point x="20" y="625"/>
      <point x="-15" y="610"/>
      <point x="-81" y="605" type="curve"/>
    </contour>
  </outline>
</glyph>
<glyph name="uni06E2" format="2">
  <unicode hex="06E2"/>
  <anchor x="15" y="538" name="_top"/>
  <anchor x="15" y="538" name="_top2"/>
  <anchor x="15" y="538" name="_top3"/>
  <anchor x="-7" y="775" name="top3"/>
  <outline>
    <contour>
      <point x="-58" y="517" type="curve"/>
      <point x="-47" y="525"/>
      <point x="-38" y="532"/>
      <point x="-33" y="538" type="curve"/>
      <point x="-35" y="555"/>
      <point x="-37" y="573"/>
      <point x="-41" y="594" type="curve" smooth="yes"/>
      <point x="-47" y="630" type="line"/>
      <point x="-12" y="642"/>
      <point x="13" y="644"/>
      <point x="53" y="644" type="curve"/>
      <point x="67" y="683" type="line"/>
      <point x="39" y="706"/>
      <point x="23" y="751"/>
      <point x="0" y="751" type="curve" smooth="yes"/>
      <point x="-21" y="751"/>
      <point x="-38" y="734"/>
      <point x="-52" y="699" type="curve"/>
      <point x="-40" y="694" type="line"/>
      <point x="-28" y="709"/>
      <point x="-18" y="717"/>
      <point x="-9" y="717" type="curve" smooth="yes"/>
      <point x="-5" y="717"/>
      <point x="-1" y="715"/>
      <point x="4" y="711" type="curve" smooth="yes"/>
      <point x="8" y="706"/>
      <point x="15" y="698"/>
      <point x="24" y="684" type="curve"/>
      <point x="32" y="676" type="line"/>
      <point x="-8" y="674"/>
      <point x="-9" y="673"/>
      <point x="-51" y="662" type="curve"/>
      <point x="-59" y="642"/>
      <point x="-63" y="629"/>
      <point x="-63" y="624" type="curve" smooth="yes"/>
      <point x="-63" y="614"/>
      <point x="-63" y="600"/>
      <point x="-61" y="583" type="curve" smooth="yes"/>
      <point x="-59" y="565"/>
      <point x="-58" y="544"/>
    </contour>
  </outline>
</glyph>
<glyph name="uni06E3" format="2">
  <unicode hex="06E3"/>
  <anchor x="0" y="92" name="_bottom"/>
  <anchor x="0" y="92" name="_bottom2"/>
  <anchor x="0" y="92" name="_bottom3"/>
  <anchor x="75" y="-123" name="bottom3"/>
  <outline>
    <contour>
      <point x="-92" y="-123" type="curve" smooth="yes"/>
      <point x="-38" y="-123"/>
      <point x="16" y="-79"/>
      <point x="16" y="-31" type="curve" smooth="yes"/>
      <point x="16" y="-16" type="line"/>
      <point x="29" y="-17" type="line" smooth="yes"/>
      <point x="42" y="-17"/>
      <point x="53" y="-16"/>
      <point x="62" y="-14" type="curve" smooth="yes"/>
      <point x="71" y="-12"/>
      <point x="77" y="-10"/>
      <point x="79" y="-7" type="curve" smooth="yes"/>
      <point x="82" y="-1" type="line"/>
      <point x="114" y="-15"/>
      <point x="133" y="-17"/>
      <point x="162" y="-17" type="curve"/>
      <point x="166" y="-8"/>
      <point x="176" y="19"/>
      <point x="176" y="29" type="curve" smooth="yes"/>
      <point x="176" y="41"/>
      <point x="174" y="54"/>
      <point x="171" y="68" type="curve" smooth="yes"/>
      <point x="167" y="82"/>
      <point x="164" y="96"/>
      <point x="162" y="111" type="curve"/>
      <point x="145" y="101"/>
      <point x="137" y="90"/>
      <point x="137" y="79" type="curve" smooth="yes"/>
      <point x="137" y="73"/>
      <point x="139" y="65"/>
      <point x="144" y="54" type="curve" smooth="yes"/>
      <point x="149" y="43"/>
      <point x="154" y="29"/>
      <point x="158" y="12" type="curve"/>
      <point x="135" y="12"/>
      <point x="113" y="17"/>
      <point x="92" y="27" type="curve"/>
      <point x="97" y="45"/>
      <point x="102" y="61"/>
      <point x="108" y="75" type="curve"/>
      <point x="106" y="77"/>
      <point x="103" y="77"/>
      <point x="100" y="77" type="curve" smooth="yes"/>
      <point x="94" y="77"/>
      <point x="89" y="74"/>
      <point x="85" y="68" type="curve" smooth="yes"/>
      <point x="82" y="62"/>
      <point x="77" y="48"/>
      <point x="71" y="26" type="curve"/>
      <point x="66" y="15" type="line"/>
      <point x="59" y="13"/>
      <point x="48" y="11"/>
      <point x="34" y="11" type="curve" smooth="yes"/>
      <point x="27" y="11"/>
      <point x="19" y="13"/>
      <point x="10" y="15" type="curve"/>
      <point x="7" y="29"/>
      <point x="4" y="44"/>
      <point x="1" y="61" type="curve"/>
      <point x="-15" y="52"/>
      <point x="-23" y="40"/>
      <point x="-23" y="28" type="curve" smooth="yes"/>
      <point x="-23" y="14"/>
      <point x="-15" y="-10"/>
      <point x="1" y="-44" type="curve"/>
      <point x="-11" y="-70"/>
      <point x="-52" y="-92"/>
      <point x="-91" y="-92" type="curve" smooth="yes"/>
      <point x="-122" y="-92"/>
      <point x="-144" y="-73"/>
      <point x="-144" y="-33" type="curve" smooth="yes"/>
      <point x="-144" y="-27"/>
      <point x="-142" y="-18"/>
      <point x="-139" y="-7" type="curve"/>
      <point x="-153" y="-4" type="line"/>
      <point x="-158" y="-23"/>
      <point x="-160" y="-39"/>
      <point x="-160" y="-52" type="curve" smooth="yes"/>
      <point x="-160" y="-98"/>
      <point x="-134" y="-123"/>
    </contour>
  </outline>
</glyph>
<glyph name="uni06E5" format="2">
  <advance width="205"/>
  <unicode hex="06E5"/>
  <anchor x="93" y="41" name="bottom"/>
  <anchor x="101" y="575" name="top"/>
  <outline>
    <contour>
      <point x="81" y="114" type="curve" smooth="yes"/>
      <point x="128" y="114"/>
      <point x="166" y="165"/>
      <point x="166" y="221" type="curve" smooth="yes"/>
      <point x="166" y="272"/>
      <point x="138" y="319"/>
      <point x="102" y="319" type="curve" smooth="yes"/>
      <point x="73" y="319"/>
      <point x="47" y="283"/>
      <point x="47" y="239" type="curve" smooth="yes"/>
      <point x="47" y="209"/>
      <point x="64" y="191"/>
      <point x="96" y="191" type="curve" smooth="yes"/>
      <point x="115" y="191"/>
      <point x="139" y="201"/>
      <point x="151" y="213" type="curve"/>
      <point x="151" y="209" type="line"/>
      <point x="137" y="165"/>
      <point x="110" y="143"/>
      <point x="72" y="143" type="curve" smooth="yes"/>
      <point x="56" y="143"/>
      <point x="41" y="146"/>
      <point x="27" y="151" type="curve"/>
      <point x="21" y="138" type="line"/>
      <point x="35" y="126"/>
      <point x="65" y="114"/>
    </contour>
    <contour>
      <point x="105" y="221" type="curve" smooth="yes"/>
      <point x="78" y="221"/>
      <point x="62" y="231"/>
      <point x="62" y="250" type="curve" smooth="yes"/>
      <point x="62" y="265"/>
      <point x="79" y="287"/>
      <point x="96" y="287" type="curve" smooth="yes"/>
      <point x="119" y="287"/>
      <point x="137" y="268"/>
      <point x="148" y="230" type="curve"/>
      <point x="135" y="224"/>
      <point x="121" y="221"/>
    </contour>
  </outline>
</glyph>
